<?xml version="1.0" encoding="utf-8"?>
<svg xmlns="http://www.w3.org/2000/svg" fill="none" viewBox="0 0 150 46" height="46" width="150">
<g clip-path="url(#clip0_1072_14101)">
<path fill="#1D4F91" d="M52.092 33.2422C51.3398 32.3787 50.6164 31.9621 49.705 31.9621C48.0701 31.9621 46.9851 33.2422 46.9851 35.0442C46.9851 36.6819 48.0553 38.0072 49.705 38.0072C50.6164 38.0072 51.3398 37.5901 52.092 36.7266V39.8979C51.1949 40.3448 50.3416 40.568 49.4155 40.568C46.3632 40.568 44.1641 38.2006 44.1641 34.9842C44.1641 31.7677 46.3632 29.4003 49.4155 29.4003C50.3412 29.4003 51.1949 29.6235 52.092 30.0704V33.2422Z"/>
<path fill="#1D4F91" d="M68.0009 34.4787C69.2013 34.4787 69.8237 34.2397 69.8237 33.2096C69.8237 32.1795 69.1727 31.9707 68.0299 31.9707H67.1443V34.4787H68.0009ZM64.3052 40.3458V29.6715H67.7691H67.9718C69.2738 29.6715 70.3011 29.6864 71.1109 30.224C72.0223 30.8211 72.5574 31.9261 72.5574 33.2994C72.5574 34.7178 72.0509 35.7776 71.1252 36.345C70.4165 36.7779 69.6205 36.8226 68.6514 36.8226H67.9713H67.1438V40.3458H64.3052Z"/>
<path fill="#1D4F91" d="M81.0945 32.1944H77.9873V29.6715H87.0603V32.1944H83.9155V40.3458H81.0945V32.1944Z"/>
<path fill="#1D4F91" d="M89.322 20.109H86.2148V17.6629H95.2878V20.109H92.1425V28.3371H89.322V20.109Z"/>
<path fill="#1D4F91" d="M92.1687 36.3598L90.7656 31.8954L89.3625 36.3598H92.1687ZM88.9862 29.6715H92.5159L96.089 40.3458H93.2823L92.7615 38.4349H88.7544L88.2193 40.3458H85.4126L88.9862 29.6715Z"/>
<path fill="#1D4F91" d="M59.5842 36.3598L58.1811 31.8954L56.778 36.3598H59.5842ZM56.4017 29.6715H59.9314L63.5045 40.3458H60.6978L60.177 38.4349H56.1699L55.6348 40.3458H52.8281L56.4017 29.6715Z"/>
<path fill="#1D4F91" d="M96.8818 29.6715H99.7028V37.8526H104.006V40.3458H96.8818V29.6715Z"/>
<path fill="#1D4F91" d="M47.897 26.359C48.6782 26.359 49.1842 25.8824 49.1842 25.2574C49.1842 24.4088 48.62 24.1558 47.4482 23.8429C45.582 23.3365 44.6706 22.5622 44.6706 20.8947C44.6706 18.9142 46.0737 17.4402 48.2437 17.4402C49.4012 17.4402 50.4137 17.7526 51.3103 18.393L50.428 20.4776C49.777 19.9122 49.0826 19.629 48.4459 19.629C47.7515 19.629 47.3032 20.0158 47.3032 20.5222C47.3032 21.2816 48.0119 21.4453 48.9524 21.6982C50.7895 22.2046 51.8025 22.9045 51.8025 24.8696C51.8025 27.0882 50.2692 28.6218 47.8388 28.6218C46.3775 28.6218 45.2782 28.1451 44.1646 27.0584L45.4375 24.8994C46.2621 25.868 47.0724 26.359 47.897 26.359Z"/>
<path fill="#1D4F91" d="M60.5711 23.024C60.5711 21.297 59.4427 19.8973 57.866 19.8973C56.2745 19.8973 55.1608 21.2821 55.1608 23.024C55.1608 24.7813 56.2168 26.1507 57.866 26.1507C59.4713 26.1507 60.5711 24.7659 60.5711 23.024ZM61.7863 26.9696C60.7304 28.0266 59.3125 28.6074 57.866 28.6074C56.6074 28.6074 55.3488 28.1456 54.3506 27.3267C53.0486 26.2549 52.3398 24.7357 52.3398 23.0235C52.3398 21.5048 52.904 20.1349 53.96 19.0779C55.0016 18.0354 56.419 17.4402 57.866 17.4402C59.3129 17.4402 60.7447 18.0354 61.7863 19.0779C62.8422 20.1349 63.3921 21.5197 63.3921 23.0235C63.3921 24.5427 62.8279 25.9275 61.7863 26.9696Z"/>
<path fill="#1D4F91" d="M72.2258 21.2821C71.4736 20.4186 70.7502 20.0019 69.8388 20.0019C68.2039 20.0019 67.1189 21.2821 67.1189 23.084C67.1189 24.7218 68.1891 26.047 69.8388 26.047C70.7502 26.047 71.4736 25.6299 72.2258 24.7664V27.9378C71.3287 28.3846 70.4754 28.6078 69.5497 28.6078C66.4974 28.6078 64.2983 26.2405 64.2983 23.024C64.2983 19.8075 66.4974 17.4402 69.5497 17.4402C70.4754 17.4402 71.3291 17.6634 72.2258 18.1102V21.2821Z"/>
<path fill="#1D4F91" d="M77.9873 17.6629H85.3105V20.109L80.6533 20.1243V21.8581H84.8507V24.1419H80.6533V25.891H85.3105V28.3371H77.9873V17.6629Z"/>
<path fill="#1D4F91" d="M99.4995 23.4704L95.8682 17.6629H98.797L100.859 21.2211L102.995 17.6629H105.835L102.219 23.4704V28.3371H99.4995V23.4704Z"/>
<path fill="#1D4F91" d="M68.1842 14.1262C69.3846 14.1262 70.0213 13.8882 70.0213 13.0098C70.0213 11.997 69.4428 11.8035 68.2276 11.8035H66.8459V14.1262H68.1842ZM67.6309 9.9128C68.817 9.9128 69.5873 9.73424 69.5873 8.85584C69.5873 7.90304 68.817 7.76864 67.6743 7.76864H66.8459V9.9128H67.6309ZM64.2715 5.65424H67.0629H67.5875C68.8604 5.65424 69.9922 5.66912 70.7734 6.02672C71.7282 6.45872 72.2347 7.26272 72.2347 8.31968C72.2347 9.5408 71.6705 10.1955 70.3542 10.568C71.8298 10.687 72.6978 11.685 72.6978 13.2632C72.6978 14.395 72.2204 15.2883 71.3524 15.765C70.4267 16.2714 68.8423 16.3011 67.1497 16.3011H64.2715V5.65424Z"/>
<path fill="#1D4F91" d="M83.0283 10.1667H88.5687C88.583 10.3899 88.583 10.5987 88.583 10.807C88.583 14.4848 86.558 16.5694 83.2019 16.5694C81.5527 16.5694 80.265 16.0779 79.2234 14.9912C78.2395 13.9635 77.6758 12.5048 77.6758 11.001C77.6758 7.7696 80.0194 5.432 83.2019 5.432C85.2126 5.432 86.7893 6.26576 87.86 7.88864L85.4153 9.0944C84.8368 8.27552 84.1133 7.87328 83.2019 7.87328C81.5527 7.87328 80.482 9.06464 80.482 11.119C80.482 13.159 81.5379 14.3802 83.2019 14.3802C84.6627 14.3802 85.69 13.5464 85.8345 12.3997H83.0283V10.1667Z"/>
<path fill="#B1C9E8" d="M76.6448 5.65424H73.5815V16.9957H76.6448V5.65424Z"/>
<path fill="#7A99AC" d="M76.6448 29.0043H73.5815V40.3458H76.6448V29.0043Z"/>
<path fill="#6BCABA" d="M76.6448 16.9957H73.5815V29.0043H76.6448V16.9957Z"/>
</g>
<defs>
<clipPath id="clip0_1072_14101">
<rect transform="translate(44 5)" fill="white" height="36" width="62"/>
</clipPath>
</defs>
</svg>