<?xml version="1.0" encoding="utf-8"?>
<svg xmlns="http://www.w3.org/2000/svg" fill="none" viewBox="0 0 200 40" height="40" width="200">
<path fill="#E98300" d="M64 0.999969H136V38.7958H64V0.999969Z"/>
<path fill="white" d="M94.7169 14.7975H80.2461C79.0727 14.7975 78.1212 13.8461 78.1212 12.6726C78.1212 11.5017 79.0727 10.5503 80.2461 10.5503H94.7169C95.8904 10.5503 96.8418 11.5017 96.8418 12.6726C96.8418 13.8461 95.8904 14.7975 94.7169 14.7975ZM94.0025 23.3043C94.0025 22.1282 93.0511 21.1768 91.8776 21.1768H77.4042C76.2308 21.1768 75.2819 22.1282 75.2819 23.3017C75.2819 24.4725 76.2308 25.424 77.4042 25.424H91.8776C93.0485 25.424 93.9999 24.4752 94.0025 23.3043ZM71.0171 17.9705C71.0171 18.5347 71.2391 19.078 71.6394 19.4757C72.0378 19.876 72.5784 20.1006 73.1446 20.1006H87.6154C88.7889 20.1006 89.7403 19.1492 89.7403 17.9783C89.7403 16.8049 88.7889 15.8534 87.6154 15.8534H73.1446C72.5811 15.8534 72.0397 16.0754 71.642 16.4731C71.2443 16.8689 71.0197 17.4069 71.0171 17.9705ZM100.992 10.6678L100.089 13.9989H104.566L101.52 25.2967H105.374L108.402 13.9989H112.879L113.759 10.6678H100.997H100.992ZM114.876 10.6678L110.958 25.2967H122.712L123.57 22.0597H115.596L116.315 19.3993H123.437L124.246 16.4477H117.108L117.809 13.8944H125.758L126.636 10.6724H114.881L114.876 10.6678ZM97.8827 30.748C98.204 30.748 98.5103 30.6174 98.7343 30.3856L98.4104 29.9748C98.2804 30.1048 98.1048 30.1838 97.9206 30.1943C97.7959 30.1943 97.6757 30.1433 97.5915 30.0486C97.5072 29.9546 97.4694 29.8292 97.4844 29.7045C97.4642 29.3166 97.7423 28.9803 98.1276 28.9268C98.334 28.9189 98.5253 29.0338 98.6174 29.22L99.1071 28.8778C98.9184 28.5513 98.5638 28.3626 98.191 28.388C97.8292 28.3756 97.4772 28.5108 97.2193 28.7635C96.962 29.0156 96.8164 29.363 96.819 29.7247C96.8085 30.0055 96.9208 30.2759 97.1252 30.4698C97.329 30.6638 97.6072 30.7578 97.8853 30.7323L97.8827 30.748ZM100.189 30.748C100.895 30.7323 101.466 30.1636 101.481 29.4544C101.497 29.169 101.387 28.8935 101.181 28.6943C100.974 28.4977 100.693 28.3985 100.408 28.4265C99.7014 28.4416 99.1326 29.013 99.1143 29.7195C99.1045 30.0029 99.2168 30.2785 99.4232 30.4724C99.6295 30.6664 99.9103 30.763 100.194 30.7323L100.189 30.748ZM100.217 30.2047C100.087 30.2119 99.9561 30.1636 99.862 30.0695C99.7674 29.9775 99.719 29.8475 99.7269 29.7149C99.7216 29.3421 99.9998 29.026 100.369 28.9803C100.502 28.9725 100.633 29.0208 100.724 29.1129C100.819 29.2069 100.867 29.3375 100.859 29.4701C100.859 29.8371 100.586 30.1485 100.222 30.1943L100.217 30.2047ZM101.568 30.6945H102.206L102.543 29.4061C102.566 29.1534 102.78 28.9594 103.032 28.9594C103.112 28.947 103.194 28.9699 103.254 29.0234C103.313 29.0769 103.347 29.1534 103.341 29.235C103.341 29.3016 103.331 29.3702 103.313 29.4368L102.984 30.6638H103.622L103.946 29.4648C103.986 29.3271 104.01 29.184 104.017 29.0391C104.02 28.8654 103.949 28.6995 103.821 28.5846C103.696 28.467 103.525 28.4089 103.352 28.4265C103.122 28.4396 102.905 28.5363 102.744 28.7021L102.803 28.4265H102.168L101.568 30.6945ZM104.155 30.6945H104.788L105.145 29.4061C105.168 29.1534 105.379 28.9594 105.635 28.9594C105.714 28.947 105.795 28.9699 105.854 29.0234C105.915 29.0769 105.946 29.1534 105.943 29.235C105.941 29.3016 105.93 29.3702 105.913 29.4368L105.586 30.6638H106.216L106.54 29.4648C106.581 29.3323 106.604 29.1971 106.614 29.0593C106.622 28.8804 106.553 28.7073 106.42 28.5846C106.29 28.4625 106.111 28.4037 105.933 28.4265C105.701 28.4396 105.484 28.5363 105.321 28.7021L105.39 28.4265H104.752L104.155 30.6945ZM107.476 29.7992H109.009C109.075 29.6431 109.114 29.4772 109.122 29.3094C109.134 29.0665 109.04 28.8295 108.866 28.661C108.691 28.4932 108.453 28.4063 108.211 28.4265C107.476 28.4344 106.887 29.0312 106.885 29.7633C106.869 30.0362 106.974 30.304 107.173 30.4927C107.372 30.6814 107.645 30.7735 107.918 30.7428C108.228 30.7506 108.532 30.6455 108.774 30.4496L108.484 30.0565C108.343 30.1662 108.173 30.2302 107.994 30.2328C107.867 30.253 107.734 30.2171 107.634 30.1303C107.535 30.0441 107.479 29.9187 107.481 29.7887L107.476 29.7992ZM107.535 29.4061C107.614 29.1227 107.869 28.9268 108.163 28.9163C108.257 28.9013 108.351 28.9294 108.422 28.9927C108.494 29.0567 108.532 29.1481 108.529 29.2454C108.537 29.2937 108.537 29.3421 108.529 29.391H107.55L107.535 29.4061ZM110.474 30.748C110.792 30.7454 111.096 30.6154 111.315 30.3856L110.991 29.9748C110.861 30.1074 110.688 30.1838 110.502 30.1943C110.377 30.1943 110.257 30.1433 110.172 30.0486C110.091 29.9546 110.05 29.8292 110.068 29.7045C110.045 29.3166 110.325 28.9803 110.708 28.9268C110.915 28.9215 111.106 29.0365 111.198 29.22L111.687 28.8778C111.501 28.5513 111.147 28.3626 110.772 28.388C110.048 28.3932 109.461 28.9803 109.455 29.7045C109.44 29.9775 109.542 30.2452 109.734 30.4391C109.925 30.6357 110.19 30.7428 110.463 30.7323L110.474 30.748ZM112.394 30.748C112.553 30.7506 112.708 30.7173 112.853 30.6559L113.001 30.1152C112.899 30.1609 112.79 30.1864 112.677 30.189C112.629 30.2093 112.573 30.2021 112.534 30.1662C112.494 30.1329 112.478 30.0793 112.491 30.0284C112.489 29.9951 112.489 29.9625 112.491 29.9292L112.741 28.9901H113.264L113.412 28.4468H112.902L113.055 27.8728H112.422L112.272 28.4266H112.002L111.853 28.9699H112.124L111.853 30.0029C111.831 30.095 111.815 30.1891 111.815 30.2837C111.828 30.4189 111.894 30.5436 112.004 30.6279C112.111 30.7121 112.249 30.7454 112.384 30.7226L112.394 30.748ZM113.338 30.7095H113.961L114.563 28.4265H113.925L113.338 30.7095ZM113.961 28.2019H114.626L114.782 27.6383H114.116L113.961 28.2019ZM115.185 30.699H115.759L117.228 28.4468H116.547L115.659 29.916L115.557 28.4468H114.94L115.185 30.699ZM117.042 30.699H117.677L118.289 28.4265H117.659L117.042 30.699ZM117.693 28.2149H118.368L118.519 27.6534H117.879L117.693 28.2149ZM119.087 30.7375C119.246 30.7401 119.404 30.7094 119.549 30.6455L119.695 30.1074C119.593 30.1538 119.481 30.1766 119.368 30.1792C119.328 30.1916 119.281 30.1818 119.248 30.1557C119.215 30.1303 119.195 30.0897 119.195 30.0486C119.192 30.016 119.192 29.9827 119.195 29.9493L119.445 29.0084H119.97L120.116 28.465H119.593L119.743 27.8937H119.113L118.996 28.4265H118.726L118.577 28.9698H118.858L118.588 29.9853C118.562 30.0741 118.547 30.1688 118.544 30.2628C118.552 30.4006 118.616 30.5286 118.723 30.6174C118.828 30.7042 118.965 30.7428 119.103 30.7225L119.087 30.7375ZM120.391 31.3651C120.792 31.35 121.149 31.1071 121.307 30.7375L122.697 28.4265H122.011L121.174 29.9441L121.072 28.4265H120.424L120.7 30.6788C120.649 30.7682 120.554 30.8192 120.455 30.8166C120.365 30.8113 120.282 30.7807 120.21 30.7271L119.871 31.1888C120.021 31.3037 120.202 31.3651 120.391 31.3651Z"/>
</svg>