<?xml version="1.0" encoding="utf-8"?>
<svg xmlns="http://www.w3.org/2000/svg" fill="none" viewBox="0 0 200 40" height="40" width="200">
<g clip-path="url(#clip0_1072_13881)">
<mask height="21" width="120" y="9" x="40" maskUnits="userSpaceOnUse" style="mask-type:luminance" id="mask0_1072_13881">
<path fill="white" d="M160 9H40V30H160V9Z"/>
</mask>
<g mask="url(#mask0_1072_13881)">
<path fill="#333F48" d="M58.9798 10.48C58.7298 10.47 58.4898 10.5 58.2598 10.59C58.0298 10.68 57.8198 10.8 57.6298 10.97C57.4398 11.14 57.2998 11.33 57.1998 11.56C57.0998 11.78 57.0398 12.02 57.0298 12.27C57.0498 12.51 57.1098 12.75 57.2198 12.97C57.3298 13.19 57.4698 13.38 57.6498 13.55C57.8298 13.72 58.0398 13.84 58.2698 13.93C58.4998 14.02 58.7398 14.06 58.9898 14.05C59.2298 14.05 59.4698 14.01 59.6998 13.92C59.9298 13.83 60.1298 13.71 60.3098 13.54C60.4898 13.37 60.6298 13.18 60.7398 12.96C60.8498 12.74 60.8998 12.51 60.9198 12.27C60.9198 12.03 60.8498 11.79 60.7498 11.57C60.6498 11.35 60.5098 11.15 60.3298 10.99C60.1498 10.82 59.9398 10.7 59.7098 10.61C59.4798 10.52 59.2398 10.49 58.9898 10.49"/>
<path fill="#333F48" d="M131.2 10.48C130.95 10.47 130.71 10.5 130.47 10.59C130.24 10.67 130.03 10.8 129.84 10.97C129.66 11.14 129.51 11.33 129.41 11.56C129.31 11.78 129.25 12.02 129.24 12.27C129.26 12.51 129.32 12.75 129.43 12.97C129.54 13.19 129.68 13.38 129.86 13.55C130.04 13.72 130.25 13.84 130.48 13.93C130.71 14.02 130.95 14.06 131.2 14.05C131.44 14.05 131.68 14.01 131.91 13.92C132.14 13.83 132.34 13.71 132.52 13.54C132.7 13.37 132.84 13.18 132.95 12.96C133.05 12.74 133.11 12.51 133.13 12.27C133.13 12.03 133.06 11.79 132.96 11.57C132.86 11.35 132.72 11.15 132.54 10.99C132.36 10.82 132.15 10.7 131.92 10.61C131.69 10.52 131.45 10.49 131.2 10.49"/>
<path fill="#333F48" d="M47.35 12.75C46.68 12.74 46.01 12.78 45.34 12.88V19.49H47.51C49.78 19.49 51.09 18.31 51.09 16.26C51.09 13.63 50.14 12.75 47.35 12.75ZM45.34 20.9V26.4C45.34 28.16 45.56 28.32 47.99 28.32C50.63 28.32 51.91 27.19 51.91 24.86C51.91 22.05 50.74 20.9 47.88 20.9H45.34ZM48.25 29.7H40.02V28.32H41.46C41.63 28.34 41.78 28.3 41.91 28.2C42.04 28.1 42.12 27.97 42.14 27.8C42.18 27.52 42.2 27.24 42.19 26.96V14.07C42.19 13.84 42.19 13.61 42.16 13.38C42.09 12.93 41.89 12.75 41.45 12.75H40.02V11.37H47.59C52.01 11.37 54.26 12.84 54.26 15.75C54.26 18.03 52.9 19.42 50.09 20.01C53.51 20.39 55.25 21.9 55.25 24.5C55.25 27.76 52.64 29.71 48.26 29.71L48.25 29.7Z"/>
<path fill="#333F48" d="M71.56 15.8C70.12 15.91 68.86 16.44 67.79 17.39C67.81 17.08 67.82 16.92 67.82 16.92C67.85 16.82 67.83 16.74 67.77 16.66C67.7 16.58 67.61 16.54 67.51 16.55H63V17.92H64.14C64.31 17.9 64.47 17.94 64.6 18.05C64.74 18.16 64.81 18.29 64.83 18.47V18.52C64.86 18.72 64.87 18.91 64.87 19.11V27.68C64.87 28.44 64.51 28.54 64.17 28.54H63.06V29.72H69.84V28.55H68.47C68.13 28.55 67.79 28.45 67.78 27.73V18.89C68.33 18.33 68.98 17.98 69.75 17.81C69.97 17.81 70.12 17.87 70.25 18.18C70.5 18.78 70.82 19.09 71.88 19.09C72.09 19.09 72.3 19.07 72.5 18.99C72.7 18.91 72.87 18.8 73.02 18.65C73.17 18.5 73.28 18.33 73.35 18.13C73.42 17.93 73.45 17.73 73.44 17.52C73.44 17.28 73.41 17.04 73.31 16.82C73.21 16.6 73.08 16.4 72.89 16.24C72.7 16.08 72.5 15.96 72.27 15.89C72.04 15.82 71.8 15.8 71.56 15.84"/>
<path fill="#333F48" d="M61.3198 28.51C60.9898 28.51 60.6498 28.41 60.6498 27.66C60.6498 27.51 60.6498 27.34 60.6498 27.14V19.03C60.6498 17.53 60.7198 16.74 60.7098 16.74C60.7298 16.65 60.7198 16.57 60.6698 16.5C60.6098 16.43 60.5398 16.39 60.4398 16.4H55.8198V17.59H57.1298C57.2698 17.57 57.4098 17.61 57.5298 17.69C57.6498 17.77 57.7298 17.88 57.7598 18.02V18.05C57.7598 18.05 57.7798 18.09 57.7798 18.11V18.14C57.8198 18.42 57.8298 18.7 57.8198 18.98V27.14C57.8198 27.3 57.8198 27.44 57.8198 27.56V27.64C57.8198 27.71 57.8098 27.77 57.7998 27.83C57.7998 27.86 57.7998 27.89 57.7898 27.94C57.7898 28.11 57.7198 28.26 57.5898 28.37C57.4598 28.48 57.3098 28.53 57.1398 28.52H56.0598V29.71H62.3798V28.52H61.3098L61.3198 28.51Z"/>
<path fill="#333F48" d="M119.57 12.75C118.9 12.74 118.23 12.78 117.56 12.88V19.49H119.73C122 19.49 123.31 18.31 123.31 16.26C123.31 13.63 122.36 12.75 119.57 12.75ZM117.56 20.9V26.4C117.56 28.16 117.78 28.32 120.21 28.32C122.85 28.32 124.13 27.19 124.13 24.86C124.13 22.05 122.96 20.9 120.1 20.9H117.56ZM120.47 29.7H112.24V28.32H113.68C113.85 28.34 114 28.3 114.13 28.2C114.26 28.1 114.34 27.97 114.36 27.8C114.4 27.52 114.42 27.24 114.41 26.96V14.07C114.41 13.84 114.41 13.61 114.38 13.38C114.31 12.93 114.11 12.75 113.67 12.75H112.23V11.37H119.8C124.22 11.37 126.47 12.84 126.47 15.75C126.47 18.03 125.11 19.42 122.3 20.01C125.72 20.39 127.46 21.9 127.46 24.5C127.46 27.76 124.85 29.71 120.48 29.71L120.47 29.7Z"/>
<path fill="#333F48" d="M143.77 15.8C142.33 15.91 141.07 16.44 140 17.39C140.02 17.08 140.03 16.92 140.03 16.92C140.06 16.83 140.04 16.74 139.98 16.66C139.91 16.58 139.82 16.54 139.72 16.55H135.22V17.92H136.36C136.53 17.9 136.69 17.94 136.82 18.05C136.95 18.16 137.03 18.29 137.05 18.46V18.51C137.08 18.71 137.09 18.9 137.09 19.1V27.67C137.09 28.43 136.73 28.53 136.39 28.53H135.28V29.71H142.07V28.54H140.71C140.37 28.54 140.03 28.44 140.02 27.72C140.02 27.56 140.02 27.39 140.02 27.18V18.87C140.57 18.32 141.22 17.96 141.99 17.79C142.21 17.79 142.36 17.85 142.49 18.16C142.74 18.76 143.07 19.07 144.13 19.07C144.34 19.08 144.55 19.05 144.75 18.97C144.95 18.89 145.12 18.78 145.27 18.63C145.42 18.48 145.53 18.3 145.61 18.11C145.68 17.91 145.71 17.71 145.7 17.5C145.7 17.26 145.67 17.02 145.57 16.8C145.47 16.58 145.34 16.38 145.15 16.22C144.97 16.06 144.76 15.94 144.53 15.87C144.3 15.8 144.06 15.78 143.82 15.82"/>
<path fill="#333F48" d="M133.54 28.51C133.21 28.51 132.87 28.41 132.87 27.66C132.87 27.51 132.87 27.34 132.87 27.14V19.03C132.87 17.53 132.94 16.74 132.93 16.74C132.95 16.65 132.93 16.58 132.89 16.5C132.83 16.43 132.76 16.39 132.66 16.4H128.04V17.59H129.35C129.49 17.57 129.63 17.61 129.74 17.69C129.86 17.77 129.94 17.88 129.97 18.02C129.97 18.03 129.97 18.04 129.97 18.05C129.97 18.07 129.97 18.09 129.98 18.11V18.14C130.02 18.42 130.03 18.7 130.02 18.98V27.14C130.02 27.29 130.02 27.43 130.02 27.55V27.64C130.02 27.71 130.01 27.77 130 27.83C130 27.86 130 27.88 130 27.91V27.94C130 28.11 129.93 28.26 129.8 28.37C129.67 28.48 129.52 28.53 129.35 28.52H128.27V29.71H134.59V28.52H133.52L133.54 28.51Z"/>
<path fill="#333F48" d="M98.9101 10.63C98.1101 10.61 97.4301 10.87 96.8701 11.43C96.2901 12.02 96.0201 12.72 96.0601 13.54C96.2601 14.47 96.7001 15.27 97.3801 15.95L97.4501 16.04C97.5801 16.2 97.7101 16.36 97.8301 16.53C100.29 15.42 101.49 14.24 101.48 12.93C101.48 12.63 101.43 12.33 101.31 12.05C101.2 11.77 101.03 11.52 100.81 11.3C100.59 11.08 100.34 10.92 100.06 10.8C99.7801 10.68 99.4801 10.63 99.1701 10.63C99.0701 10.63 98.9901 10.62 98.8901 10.62L98.9101 10.63ZM97.2101 18.51L97.1201 18.55L97.0201 18.59L96.9001 18.64C95.2401 19.3 93.0201 20.5 92.8101 23.31C92.7501 23.95 92.8301 24.58 93.0301 25.19C93.2401 25.8 93.5601 26.34 93.9901 26.82C94.4101 27.3 94.9101 27.67 95.4901 27.95C96.0701 28.23 96.6701 28.38 97.3101 28.42C97.3901 28.42 97.4701 28.42 97.5501 28.42C98.6101 28.4 99.6201 28.16 100.57 27.69C101.52 27.22 102.32 26.57 102.97 25.74C100.9 23.25 98.3901 20.06 97.2101 18.52V18.51ZM97.4301 29.93C97.3301 29.93 97.2301 29.93 97.1101 29.93C96.3101 29.9 95.5401 29.72 94.8101 29.39C94.0801 29.07 93.4301 28.62 92.8701 28.05C92.2501 27.42 91.7901 26.7 91.4901 25.87C91.1901 25.04 91.0801 24.19 91.1701 23.31C91.2201 22.48 91.4301 21.69 91.8001 20.94C92.1701 20.19 92.6601 19.54 93.2901 18.98C94.1601 18.22 95.1301 17.63 96.2101 17.21C96.1601 17.14 96.1001 17.08 96.0601 17.03C95.1901 16.12 94.6401 15.05 94.4301 13.82C94.4101 13.51 94.4301 13.2 94.4701 12.89C94.5101 12.58 94.5901 12.28 94.7001 11.99C94.8101 11.7 94.9401 11.42 95.1101 11.15C95.2801 10.88 95.4701 10.64 95.6901 10.41C95.9101 10.18 96.1501 9.98 96.4101 9.81C96.6701 9.64 96.9501 9.48 97.2401 9.36C97.5301 9.24 97.8301 9.15 98.1401 9.09C98.4501 9.03 98.7601 9 99.0801 9.01C99.2101 9.01 99.3401 9.01 99.4701 9.02C99.9701 9.02 100.44 9.13 100.9 9.33C101.36 9.53 101.76 9.8 102.1 10.15C102.45 10.5 102.71 10.91 102.89 11.37C103.07 11.83 103.16 12.3 103.15 12.8C103.16 14.79 101.75 16.44 98.8301 17.83C100.04 19.4 102.11 22.01 104 24.3C104.39 23.52 104.61 22.7 104.66 21.83C104.72 20.89 104.72 20.14 104.72 19.67C104.74 19.45 104.86 19.32 105.09 19.3H108.07V20.93H106.33V20.98C106.35 22.63 105.93 24.17 105.07 25.59C105.69 26.38 106.37 27.12 107.1 27.8C107.41 27.94 107.73 28.01 108.07 27.98V29.61H107.96C107.85 29.61 107.74 29.61 107.63 29.61C107.06 29.64 106.54 29.48 106.09 29.14C105.34 28.46 104.64 27.73 104.01 26.94C103.19 27.89 102.21 28.62 101.06 29.15C99.9201 29.67 98.7101 29.94 97.4501 29.94L97.4301 29.93ZM80.5001 17.21C77.5301 17.21 76.1401 19.01 76.1401 22.88C76.1401 26.36 77.3701 27.98 80.0001 27.98C81.0001 27.98 81.9301 27.74 82.8001 27.26C82.8801 27.22 82.9401 27.19 82.9901 27.16V18.14C82.2901 17.49 81.4601 17.18 80.5101 17.21H80.5001ZM78.5501 30C76.0501 30 73.1401 28.17 73.1401 23C73.1401 17.83 77.0401 15.72 80.6801 15.72C81.4901 15.72 82.2801 15.8 83.0601 16L83.0401 11.88V11.76C83.0401 11.52 83.0001 11.29 82.8901 11.07L82.8601 11.02C82.7201 10.85 82.5301 10.78 82.3101 10.81H80.8901V9.42H85.6001L85.6301 9.41C85.7301 9.41 85.8201 9.44 85.8901 9.52C85.9501 9.6 85.9601 9.69 85.9401 9.79C85.9201 10.07 85.8601 11.08 85.8601 12.81V26.77C85.8601 28.16 86.1401 28.26 86.5301 28.26H87.6201V29.66H83.2501L83.1201 29.41L83.1501 28.5C81.7701 29.46 80.2501 29.96 78.5601 30.01L78.5501 30Z"/>
<path fill="#333F48" d="M152.79 17.14C149.79 17.14 148.39 18.95 148.39 22.84C148.39 26.34 149.63 27.97 152.29 27.97C153.3 27.97 154.24 27.73 155.12 27.24L155.31 27.15V18.08C154.6 17.42 153.77 17.11 152.8 17.14H152.79ZM150.82 30C148.3 30 145.36 28.16 145.36 22.97C145.36 17.78 149.29 15.64 152.98 15.64C153.79 15.64 154.6 15.72 155.39 15.92L155.37 11.78V11.66C155.37 11.42 155.33 11.18 155.22 10.96L155.19 10.91C155.04 10.74 154.86 10.67 154.64 10.7H153.2V9.31H157.95L157.98 9.3C158.09 9.3 158.17 9.33 158.24 9.41C158.3 9.49 158.31 9.58 158.29 9.68V9.71C158.27 10.07 158.21 11.09 158.21 12.72V26.75C158.21 28.14 158.49 28.25 158.88 28.25H159.98V29.65H155.56L155.43 29.4L155.46 28.49C154.07 29.46 152.52 29.97 150.82 30.01V30Z"/>
</g>
</g>
<defs>
<clipPath id="clip0_1072_13881">
<rect transform="translate(40 9)" fill="white" height="21" width="120"/>
</clipPath>
</defs>
</svg>