<?xml version="1.0" encoding="utf-8"?>
<svg xmlns="http://www.w3.org/2000/svg" fill="none" viewBox="0 0 200 40" height="40" width="200">
<path fill="#224A87" d="M68.7044 21.1513C68.5204 18.9129 67.3138 17.6076 64.8898 17.6076C62.6498 17.6076 61.2646 18.981 61.0212 21.1513H68.7044ZM72.3296 21.9848C72.3296 22.6977 72.27 23.4421 72.1456 24.0397H61.0807C61.4757 25.8273 63.0448 26.9281 65.999 26.9281H66.0369L66.0639 26.9229C66.3453 26.9176 66.6267 26.9071 66.9026 26.8862L67.1353 26.8704C68.3364 26.7551 69.5052 26.4406 70.6035 25.9426L70.8578 25.822C71.0743 25.7119 71.2853 25.5966 71.4909 25.4813H71.5883V28.5007C69.9705 29.4496 68.0713 30 66.0369 30V29.9895L65.8205 29.9948C60.2528 29.9948 57.212 26.9281 57.212 22.4618C57.212 17.6653 60.3448 14.5095 64.8952 14.5095C69.4456 14.5095 72.335 17.6338 72.3296 21.9848ZM34 29.696H37.7821L38.4909 16.8632L38.6478 13.3772H38.7073L39.5081 16.8632L42.5814 29.696H47.3212L50.4215 16.8632L51.1845 13.3772H51.2494L51.4063 16.8632L52.1422 29.696H56.0758L54.7772 9.15204H48.5116L45.6818 21.4815L45.0649 24.6058H45.0054L44.3615 21.4763L41.5317 9.15204H35.2607L34 29.696ZM99.0694 29.9948C95.5416 29.9948 93.5396 28.4221 93.5396 24.847V17.8173H89.2976V25.2873C89.2976 26.3882 89.7359 26.8338 90.6557 26.8338C90.8721 26.8338 91.1156 26.8338 91.3915 26.7761H91.4835V29.696C90.937 29.8113 90.3851 29.8689 89.8278 29.8742C87.7339 29.8742 86.4461 29.1036 85.8888 27.4051C84.785 29.0721 83.032 29.9948 80.8515 29.9948C76.9449 29.9948 73.7796 27.0487 73.7796 22.2207C73.7796 17.4556 76.9503 14.5043 80.8515 14.5043C82.7885 14.5043 84.3901 15.2172 85.4884 16.5277V9.15204H89.303V14.8135H93.545V11.2594H97.3542V14.8031H101.445V17.812H97.3542V24.6635C97.3542 26.1523 98.1171 26.8652 99.5996 26.8652C100.276 26.8652 100.736 26.8075 101.347 26.6555H101.445V29.6907C100.666 29.8847 99.8755 29.9843 99.0694 29.9948ZM81.6468 26.8704C84.2223 26.8704 85.6724 24.9361 85.6724 22.2259C85.6724 19.5419 84.2277 17.6076 81.6468 17.6076C79.028 17.6076 77.6808 19.5419 77.6808 22.2259C77.6808 24.9361 79.028 26.8704 81.6468 26.8704ZM106.947 21.8957C106.947 19.4843 108.235 18.1423 110.697 18.1423C111.124 18.1423 111.59 18.2 112.017 18.3205H112.082V14.8607C111.601 14.693 111.087 14.6143 110.578 14.6248C108.733 14.6248 107.505 15.7257 106.796 17.5132V14.8031H103.138V29.696H106.947V21.8957ZM120.22 29.9948C115.394 29.9948 112.136 26.5979 112.136 22.2521C112.136 17.9064 115.394 14.5095 120.225 14.5095C125.014 14.5095 128.276 17.9064 128.276 22.2521C128.276 26.5979 125.014 29.9948 120.22 29.9948ZM120.225 26.8075C122.958 26.8075 124.37 24.8732 124.37 22.2574C124.37 19.6415 122.958 17.702 120.22 17.702C117.547 17.702 116.043 19.6363 116.043 22.2574C116.043 24.8784 117.547 26.8128 120.225 26.8075ZM134.125 21.3872C134.125 19.0911 135.321 17.6024 137.534 17.6024C139.715 17.6024 140.732 19.002 140.732 21.3872V29.696H144.541V21.2404C144.541 17.6653 142.636 14.5095 138.492 14.5095C136.279 14.5095 134.802 15.5841 133.974 17.1935V14.8135H130.316V29.7064H134.125V21.3872ZM151.272 11.1755C151.272 12.3655 150.287 13.3824 149 13.3824C147.75 13.3772 146.743 12.3917 146.749 11.1807C146.754 9.96982 147.771 8.99478 149.021 9.00002C150.266 9.00526 151.267 9.97506 151.272 11.1755ZM153.398 29.7012C152.782 29.8323 152.154 29.9004 151.521 29.9109C148.599 29.9109 147.03 28.4221 147.03 25.6857V14.8083H150.872V25.4131C150.872 26.3934 151.364 26.8704 152.408 26.8704C152.652 26.8704 152.96 26.8338 153.296 26.7761H153.393V29.7012H153.398ZM153.766 22.2521C153.766 17.9012 157.024 14.5095 161.882 14.5095C163.268 14.5095 164.831 14.8398 166 15.4636V18.7399H165.903C164.777 18.0742 163.479 17.7229 162.153 17.7282C159.231 17.7282 157.662 19.6625 157.662 22.2574C157.662 24.8522 159.226 26.7813 162.153 26.7813C163.473 26.7866 164.772 26.4354 165.903 25.7696H166V29.0459C164.831 29.6697 163.262 30 161.877 30C157.024 29.9948 153.766 26.5979 153.766 22.2521Z"/>
</svg>