<?xml version="1.0" encoding="utf-8"?>
<svg xmlns="http://www.w3.org/2000/svg" fill="none" viewBox="0 0 200 40" height="40" width="200">
<g clip-path="url(#clip0_985_13407)">
<path fill="#1A1A1A" d="M75.4584 26.4356C75.3204 26.7708 74.9754 27.4077 74.3198 28.1116C73.5261 28.9496 72.1804 30.0222 69.4545 30.0222C65.1413 30.0222 62.3809 27.106 62.3464 22.9831C62.3464 18.7932 65.1758 15.7764 69.5925 15.7764C72.5945 15.7764 74.0782 17.2178 74.7683 18.2904H77.3217C77.2182 18.0222 77.0802 17.7541 76.9766 17.5865C76.045 16.1116 73.9747 13.8323 69.627 13.8323C65.6589 13.8323 62.1393 15.6423 60.6556 19.3966C60.4141 19.9999 60 21.2401 60 22.9496C60 26.3016 61.4837 29.5195 64.7617 31.0614C66.6941 31.9664 68.6609 31.9999 69.351 31.9999C73.0085 31.9999 74.8718 30.6591 75.907 29.553C77.2872 28.1451 77.9083 26.2346 78.0118 25.8994H75.6655C75.6655 26.0334 75.5619 26.2346 75.4584 26.4356ZM95.0575 31.9664H97.2659V14.0334H95.0575V31.9664ZM88.2945 14.2346C85.9826 14.5027 84.6369 16.0446 84.2228 16.6479C84.0848 16.8826 83.9122 17.1507 83.9122 17.1507C83.8432 17.2848 83.7742 17.2848 83.7742 17.1172V14.201H81.5659V31.9328H83.7742V23.1507C83.8432 21.1396 83.9122 19.296 85.465 17.7206C86.6727 16.4468 88.605 15.944 91.0204 16.2457V14.2346C90.7788 14.201 89.8472 14.067 88.2945 14.2346ZM136.636 15.6423C134.325 13.8994 131.426 13.8658 130.46 13.8658C125.077 13.9999 122.904 17.1843 122.075 19.0278C121.351 20.6703 121.282 22.2457 121.282 22.8826C121.282 24.2234 121.592 28.2457 125.181 30.5586C126.768 31.6312 128.528 31.9664 130.425 31.9664C136.119 31.9664 138.465 28.6479 139.225 26.6032C139.501 25.9328 139.915 24.6926 139.915 22.8826C139.949 18.8267 137.914 16.6144 136.636 15.6423ZM134.049 29.3519C133.462 29.6535 132.289 30.1228 130.564 30.1228C127.458 30.1228 125.802 28.5474 125.043 27.5753C123.697 25.8323 123.628 23.6535 123.628 22.9496C123.628 18.8267 126.044 17.0502 127.527 16.3798C128.838 15.8099 130.149 15.7429 130.667 15.7429C133.565 15.7429 135.187 17.1172 135.912 17.8882C137.603 19.7652 137.637 22.0111 137.637 22.8826C137.672 26.7708 135.498 28.6144 134.049 29.3519ZM116.451 26.4356C116.313 26.7708 115.968 27.4077 115.312 28.1116C114.519 28.9496 113.173 30.0222 110.447 30.0222C106.134 30.0222 103.373 27.106 103.339 22.9831C103.339 18.7932 106.168 15.7764 110.585 15.7764C113.587 15.7764 115.071 17.2178 115.761 18.2904H118.28C118.176 18.0222 118.038 17.7541 117.935 17.5865C117.003 16.1116 114.933 13.8323 110.585 13.8323C106.651 13.8323 103.097 15.6088 101.648 19.3966C101.407 19.9999 100.992 21.2401 100.992 22.9496C100.992 26.3016 102.476 29.5195 105.754 31.0614C107.686 31.9664 109.653 31.9999 110.343 31.9999C114.001 31.9999 115.864 30.6591 116.899 29.553C118.28 28.1451 118.901 26.2346 119.004 25.8994H116.658C116.658 26.0334 116.554 26.2346 116.451 26.4356Z"/>
<path fill="#CF263A" d="M96.1968 8C95.2996 8 94.5405 8.70391 94.5405 9.60894C94.5405 10.4804 95.2651 11.2179 96.1968 11.2179C97.0939 11.2179 97.853 10.514 97.853 9.60894C97.853 8.73743 97.0939 8 96.1968 8Z"/>
</g>
<defs>
<clipPath id="clip0_985_13407">
<rect transform="translate(60 8)" fill="white" height="24" width="80"/>
</clipPath>
</defs>
</svg>