<?xml version="1.0" encoding="utf-8"?>
<svg xmlns="http://www.w3.org/2000/svg" fill="none" viewBox="0 0 200 40" height="40" width="200">
<path fill="#009E4D" d="M54.4012 8.10238C51.6887 6.89016 50.0939 6.44307 48.4992 6.44307C46.8076 6.44307 45.7567 7.04918 45.7567 7.97332C45.7567 10.7803 55.2632 9.98293 55.2632 16.4589C55.2632 20.031 52.2649 22.1051 48.1166 22.1051C44.8625 22.1051 43.2355 21.2755 41.3849 20.3191V16.2998C44.0651 18.0859 45.6922 18.692 47.764 18.692C49.5501 18.692 50.5065 18.0536 50.5065 16.9705C50.5065 13.9077 41 15.0254 41 8.35819C41 5.13636 43.7747 3 48.1143 3C50.1884 3 52.1012 3.44709 54.4312 4.43577V8.10469"/>
<path fill="#009E4D" d="M67.7031 21.2455C66.1083 21.8193 64.7694 22.1074 63.4281 22.1074C58.994 22.1074 56.1548 19.5239 56.1548 15.5992C56.1548 11.739 59.1208 9.02881 63.2691 9.02881C64.5458 9.02881 66.2028 9.34684 67.5118 9.85847V12.7922C66.4586 12.2506 65.2787 11.9303 64.29 11.9303C61.9301 11.9303 60.3975 13.3661 60.3975 15.567C60.3975 17.8001 61.8978 19.2681 64.161 19.2681C65.1174 19.2681 65.9793 19.0446 67.7008 18.4062L67.7031 21.2455Z"/>
<path fill="#009E4D" d="M102.187 14.1635C102.346 12.4097 103.367 11.3887 104.929 11.3887C106.46 11.3887 107.481 12.4419 107.672 14.1635H102.187ZM104.644 9.02881C100.751 9.02881 98.0088 11.7713 98.0088 15.6315C98.0088 19.5239 100.88 22.1074 105.314 22.1074C106.303 22.1074 108.663 22.1074 110.928 20.4481V17.9914C109.078 19.3004 107.866 19.7775 106.271 19.7775C103.782 19.7775 102.252 18.5007 102.125 16.2676H111.152C111.343 11.6445 108.313 9.02881 104.644 9.02881Z"/>
<path fill="#009E4D" d="M112.682 21.8839H116.637V9.28467H112.682V21.8839Z"/>
<path fill="#009E4D" d="M127.644 18.4384C126.814 19.1713 126.144 19.4916 125.284 19.4916C123.433 19.4916 122.253 17.9614 122.253 15.6637C122.253 13.1448 123.433 11.709 125.411 11.709C126.114 11.709 127.07 12.027 127.644 12.4418V18.4384ZM127.644 3.25342V9.82382C126.591 9.31451 125.508 9.02644 124.358 9.02644C120.753 9.02644 118.264 11.7067 118.264 15.5346C118.264 19.298 120.753 22.0751 124.134 22.0751C125.473 22.0751 126.526 21.7248 127.644 20.8306V21.8515H131.599V3.25342H127.644Z"/>
<path fill="#009E4D" d="M137.436 14.1635C137.595 12.4097 138.616 11.3887 140.179 11.3887C141.709 11.3887 142.762 12.4419 142.921 14.1635H137.436ZM139.893 9.02881C136 9.02881 133.258 11.7713 133.258 15.6315C133.258 19.5239 136.129 22.1074 140.563 22.1074C141.552 22.1074 143.912 22.1074 146.177 20.4481V17.9914C144.327 19.3004 143.082 19.7775 141.52 19.7775C139.031 19.7775 137.501 18.5007 137.374 16.2676H146.401C146.592 11.6445 143.562 9.02881 139.893 9.02881Z"/>
<path fill="#009E4D" d="M152.301 12.889H152.365C153.545 10.2733 154.854 9.02881 156.385 9.02881C157.182 9.02881 157.853 9.31688 159 10.1765L157.915 13.6864C156.862 13.0158 156.193 12.7623 155.555 12.7623C154.119 12.7623 153.163 14.1335 152.301 16.4312V21.8539H148.346V9.25466H152.301V12.889Z"/>
<path fill="#009E4D" d="M116.829 3.95656C117.211 4.94523 116.541 6.31646 115.329 7.01937C114.149 7.72227 112.872 7.49872 112.489 6.51005C112.107 5.52138 112.777 4.15014 113.99 3.44724C115.172 2.7766 116.446 3.00015 116.829 3.95656Z"/>
<path fill="#009E4D" d="M81.9318 13.8455C81.9318 10.4324 79.6042 9.02888 77.3065 9.02888C75.7439 9.02888 74.4672 9.69951 73.3195 11.1353H73.255V3.25586H69.3003V21.8217H73.255V13.8478C74.1791 12.5088 74.9765 11.935 75.903 11.935C77.1474 11.935 77.9448 12.7969 77.9448 14.6774V19.1115C79.2838 18.4409 80.6251 18.026 81.8995 17.867V13.8478"/>
<path fill="#009E4D" d="M91.851 9.02881C90.2239 9.02881 89.0117 9.63492 87.735 11.0707V9.28462H83.7803V17.8347C85.1515 17.9614 86.9053 18.5998 87.735 19.653V13.7509C88.7882 12.1884 89.521 11.6768 90.5097 11.6768C91.6251 11.6768 92.487 12.4097 92.487 14.1957V21.8516H96.4417V13.8777C96.4463 10.1442 93.8306 9.02881 91.851 9.02881Z"/>
<path fill="#009E4D" d="M98.6473 25.4562H94.0542V28.7103H98.4883V30.1138H94.0542V33.4947H98.7763V34.8982H92.4917V24.0527H98.6173V25.4562"/>
<path fill="#009E4D" d="M102.378 34.8982H103.782V24.0527H102.378V34.8982Z"/>
<path fill="#009E4D" d="M110.769 28.8367C111.758 28.8367 112.396 29.5396 112.429 30.5905H108.856C109.045 29.4751 109.684 28.8367 110.769 28.8367ZM108.822 31.5492H113.83C113.83 28.9013 112.617 27.6245 110.735 27.6245C108.757 27.6245 107.416 29.0603 107.416 31.2289C107.416 33.2062 108.661 35.0246 110.861 35.0246C112.074 35.0246 112.839 34.7688 113.701 34.1949V32.8237C112.871 33.3653 112.041 33.6856 111.212 33.6856C109.843 33.6856 109.045 32.9527 108.822 31.5492Z"/>
<path fill="#009E4D" d="M123.019 29.6345C122.221 29.0929 121.68 28.9316 121.042 28.9316C119.765 28.9316 118.873 29.9202 118.873 31.356C118.873 32.824 119.829 33.7159 121.297 33.7159C121.903 33.7159 122.477 33.5569 123.18 33.2366V34.6401C122.701 34.8636 121.809 35.0549 121.044 35.0549C118.907 35.0549 117.439 33.5869 117.439 31.4828C117.439 29.1229 118.778 27.6226 120.949 27.6226C121.779 27.6226 122.321 27.8138 123.023 28.1019V29.6345"/>
<path fill="#009E4D" d="M129.43 27.7536H131.695V29.0303H129.43V32.6993C129.43 33.5289 130.036 33.7847 130.451 33.7847C130.96 33.7847 131.472 33.5934 132.045 33.2431V34.5522C131.566 34.8402 130.801 35.0315 130.324 35.0315C128.794 35.0315 128.026 34.0751 128.026 32.7984V29.035H126.782V28.8759L129.43 26.2925V27.7536Z"/>
<path fill="#009E4D" d="M137.085 27.7537V29.413H137.118C137.85 28.1363 138.521 27.627 139.192 27.627C139.765 27.627 140.307 27.8828 140.883 28.4566L140.15 29.7011C139.736 29.2863 139.162 28.9982 138.841 28.9982C137.885 28.9982 137.12 29.9869 137.12 31.1991V34.9302H135.716V27.7837H137.088"/>
<path fill="#009E4D" d="M155.299 29.6345C154.469 29.0929 153.96 28.9316 153.321 28.9316C152.045 28.9316 151.153 29.9202 151.153 31.356C151.153 32.824 152.109 33.7159 153.577 33.7159C154.183 33.7159 154.757 33.5569 155.46 33.2366V34.6401C154.981 34.8636 154.056 35.0549 153.324 35.0549C151.187 35.0549 149.719 33.5869 149.719 31.4828C149.719 29.1229 151.09 27.6226 153.229 27.6226C154.059 27.6226 154.6 27.8138 155.303 28.1019V29.6345"/>
<path fill="#009E4D" d="M144.612 34.8977H146.016V27.7534H144.612V34.8977Z"/>
<path fill="#009E4D" d="M146.08 25.1704C146.207 25.5207 145.983 26.0001 145.571 26.2559C145.156 26.5117 144.677 26.4149 144.55 26.0646C144.423 25.7143 144.647 25.2349 145.091 24.9791C145.506 24.7556 145.953 24.8501 146.08 25.1704Z"/>
<path fill="#009E4D" d="M83.0472 25.7763C82.7914 25.7763 82.6969 25.8086 82.6001 25.9353C82.5679 25.9676 82.5356 26.0321 82.5356 26.1266L81.2589 30.911C80.9708 32.6025 78.899 34.2596 76.2187 34.2596H72.4876L73.1259 31.8029H75.5181C75.7739 31.8029 75.9652 31.7061 76.1242 31.547C76.1888 31.4825 76.251 31.3558 76.2832 31.259L77.2719 27.0807C77.56 25.3892 79.3461 23.5409 82.024 23.5409H85.8519L85.3726 25.8063H83.0449V25.7763H83.0472ZM83.9092 28.6778L84.324 27.1153H88.2165C88.6958 24.8821 88.3132 22.7781 86.9397 21.4368C84.1972 18.6943 78.4219 19.6184 74.1169 23.7345C73.4463 24.3728 72.8724 25.0734 72.3631 25.7763H74.6908L74.1492 27.3388H71.3422C71.0864 27.8182 70.8329 28.3275 70.6393 28.8069H73.9579L73.4163 30.3694H70.1622C69.6207 32.7293 69.971 34.9625 71.3745 36.366C74.087 39.0785 79.86 38.1198 84.165 34.006C84.9301 33.3031 85.5362 32.5058 86.1101 31.7406H83.1118L83.5589 30.1781H87.0688C87.3246 29.6988 87.5781 29.1894 87.7394 28.7101H83.9115"/>
</svg>