<?xml version="1.0" encoding="utf-8"?>
<svg xmlns="http://www.w3.org/2000/svg" fill="none" viewBox="0 0 200 40" height="40" width="200">
<path fill="#00AEEF" d="M61.9644 28.2795H56C56.7718 27.5833 56.9836 25.079 57.2636 20.5567L57.3319 19.5138L57.612 13.6005C57.612 12.4181 57.4713 11.6528 57.1202 11.3738H63.7868C65.3988 11.3738 68.5586 11.4415 68.5586 14.7138C68.5586 16.9404 66.5094 18.2623 64.6283 18.7499C67.2949 18.9585 69.2731 20.2804 69.2731 22.9932C69.3414 25.9147 66.5367 28.2808 61.9753 28.2808M61.765 20.0731H60.5723L60.362 22.5788L60.2213 25.7102C60.2213 25.8497 60.7131 26.1977 61.8333 26.1977C64.2198 26.1977 65.7635 25.0153 65.7635 23.0664C65.8318 20.9102 63.9384 20.0867 61.7636 20.0867M62.2554 13.4095C61.9043 13.4095 61.4835 13.4095 61.0628 13.4772C60.8524 14.6596 60.7827 15.7729 60.7117 17.0935L60.6434 18.0686H61.0641C63.239 18.0686 65.2034 17.3034 65.2034 15.3558C65.2717 14.2424 64.2909 13.4081 62.2567 13.4081M83.2947 28.4352C81.8193 28.4352 81.6827 28.3675 80.5584 24.3991L80.1377 22.9363C79.4355 23.2844 78.1732 23.4239 76.2074 23.4239H74.1582L73.8072 24.1892C73.4561 24.9544 72.6145 26.5553 72.6145 27.5291C72.6086 27.786 72.632 28.0427 72.6842 28.2944H68.6132C69.7362 27.181 71.2799 24.4682 73.3154 20.1679L74.508 17.6623L76.7538 12.4438C76.7538 12.0957 76.6855 11.8181 76.5435 11.4686H80.262L82.0871 18.1458L82.7893 20.7896C84.0529 25.3133 84.8931 27.4668 85.8767 28.3038L83.2811 28.4433M77.9478 15.3639L75.1405 21.2772H79.6322L77.9478 15.3639ZM99.423 29C98.1593 29 97.8792 28.7914 97.4585 28.2348L92.617 21.693C92.2659 21.1512 91.9148 20.7883 91.3534 20.7883H91.2851L91.2168 22.1102L91.0064 26.2844C91.0064 27.3977 91.1471 28.0939 91.4982 28.3702H86.8534C87.5556 27.8284 87.766 25.8646 88.1867 20.6474L88.2551 19.6045L88.5351 13.6912C88.5351 12.5088 88.3944 11.7436 88.0433 11.4646H94.2891C96.3929 11.4646 99.1306 11.8126 99.1306 15.0808C99.1306 17.7937 97.3055 19.2551 95.0596 19.9512C95.3575 20.2612 95.6384 20.5867 95.9011 20.9264L99.3396 25.4501C101.514 28.3025 101.655 28.4298 102.427 28.7901C101.431 28.9261 100.427 28.9958 99.4216 28.9986M93.2468 13.484C92.826 13.484 92.3342 13.484 91.9135 13.5517C91.7728 14.2479 91.7031 15.4993 91.5624 17.5174L91.4941 18.6998C91.7045 18.7675 92.0405 18.7675 92.2659 18.7675C94.3697 18.7675 95.8451 17.4456 95.8451 15.567C95.7768 14.2451 94.8615 13.4813 93.2495 13.4813M108.49 28.6275C104.069 28.6275 101.543 25.0113 101.543 21.0429C101.543 15.4898 104.631 11.0935 110.456 11.0935C112.281 11.0935 113.122 11.4415 114.666 11.4415L114.245 15.7553C113.404 14.2248 111.999 13.2497 110.174 13.2497C106.527 13.2497 105.051 17.1463 105.051 20.4849C105.051 24.1011 107.155 26.1192 109.823 26.1192C111.298 26.1192 112.63 25.7711 114.805 24.2406C113.893 26.8844 111.859 28.6235 108.49 28.6235M138.524 28.4149C137.048 28.4149 136.98 28.3472 135.787 24.3788L135.366 22.916C134.664 23.2641 133.402 23.4036 131.436 23.4036H129.332L128.981 24.1688C128.435 25.2822 127.789 26.6041 127.789 27.5088C127.789 27.7174 127.857 27.9964 127.857 28.274H115.787C116.49 27.5088 116.7 25.0045 117.051 20.5512L117.119 19.5084L117.399 13.595C117.399 12.4817 117.259 11.7165 116.979 11.3684H121.681C120.979 11.856 120.768 14.5688 120.488 19.0912L120.42 20.1341L120.069 25.1427C120.069 25.9079 120.349 26.1178 121.192 26.1178C124.069 26.1178 124.7 26.0501 126.033 25.2131C126.875 23.7503 127.718 21.9436 128.629 20.0664L129.821 17.5607L132.067 12.3422C132.067 11.9941 131.999 11.7165 131.857 11.367H135.562L137.387 18.0442L138.089 20.688C139.353 25.2117 140.138 27.3652 141.248 28.2023C140.34 28.3208 139.426 28.3904 138.511 28.4108M133.178 15.3314L130.442 21.2447H134.862L133.178 15.3314ZM149.178 19.1576L147.985 21.3842C147.705 22.637 147.634 24.3056 147.634 26.1151C147.634 26.8804 147.775 27.9246 148.126 28.2713H143.481C144.323 27.5061 144.604 22.8442 144.604 21.3138C143.973 19.228 143.129 17.1395 141.868 14.6366C141.026 13.1061 140.114 11.6569 139.481 11.367L142.487 11.2275C143.61 11.2275 143.962 11.367 144.661 12.8975L147.048 18.6023L150.053 13.8023C150.264 13.3851 150.545 12.8271 150.545 12.3395C150.545 11.9914 150.477 11.5052 150.335 11.3643H154.898C153.914 11.5729 149.985 17.7652 149.144 19.1562M164.581 15.33C163.878 14.0772 162.335 13.1034 160.65 13.1034C159.175 13.1034 157.914 13.6451 157.914 15.1892C157.914 16.5111 159.526 17.3454 161.212 18.4587C163.037 19.572 164.93 20.9643 164.93 23.3982C164.93 26.5296 161.843 28.5449 158.195 28.5449C156.72 28.5449 155.19 28.2673 153.424 27.6402L153.704 23.4659C154.545 25.1359 156.09 26.4456 158.406 26.4456C160.16 26.4456 161.564 25.6113 161.564 24.0795C161.564 22.8266 160.512 21.9937 159.178 21.2271C156.37 19.5571 154.615 18.2474 154.615 15.8C154.615 12.1837 157.62 11 160.861 11C162.686 11 163.866 11.3481 165 11.3481L164.581 15.33Z"/>
<path fill="url(#paint0_radial_985_13399)" d="M53.4949 14.8537C53.3276 14.4728 53.0492 14.0383 52.5473 13.7127C52.3244 13.5497 52.0453 13.3866 51.7669 13.2783C51.544 13.2188 51.3212 13.1694 51.0421 13.1694H50.981C50.6464 13.1694 50.0334 13.2289 49.6988 13.7127C49.5314 13.8758 49.4759 14.202 49.5314 14.4733C49.5925 14.6906 49.7543 14.9078 49.9772 14.9626C50.0241 15.0003 50.0838 15.0196 50.1445 15.0167C50.1445 15.0762 50.0834 15.1798 50.0834 15.1798C49.9161 15.3429 49.6377 15.6143 48.8011 15.6143H48.7401C48.2943 15.5548 47.9597 15.4512 47.4578 14.962C47.1787 14.6358 47.012 14.0383 47.012 13.1146C47.012 12.6254 46.951 12.2457 46.8447 11.9243C46.7837 11.707 46.5657 11.4898 46.399 11.3809C46.2323 11.272 46.1199 11.2178 45.8415 11.1089L44.8938 11C44.5592 11 44.3363 11.0595 44.2246 11.2172H43.89C43.7227 11.2172 43.4992 11.2767 43.3325 11.2767C42.9979 11.3363 42.775 11.494 42.5521 11.6577C42.4911 11.7172 42.2731 11.9296 42.2175 12.1469C42.2175 12.3099 42.2786 12.473 42.2786 12.5278L42.3396 12.5873C42.4514 12.4784 42.6742 12.4242 42.9527 12.4242C43.3435 12.4242 43.9004 12.5873 44.0121 12.8587C44.2911 13.2931 44.1794 13.6193 44.1794 13.9996C44.0121 15.0322 43.6219 15.5214 42.7854 15.6303C42.6181 15.6899 42.4508 15.6899 42.3396 15.6899C41.7266 15.6899 41.2802 15.5268 41.0573 15.1465V15.0376C41.0573 15.0376 41.1184 15.0376 41.1691 14.978C41.3919 14.8691 41.5599 14.7061 41.6148 14.4888C41.6759 14.2168 41.6148 13.9454 41.4475 13.7282C41.1129 13.4021 40.6671 13.1848 40.1652 13.1848C39.8306 13.1848 39.6077 13.2443 39.3849 13.2937C38.7156 13.4568 38.1026 14.0002 37.6568 14.8697C37.3222 15.522 37.0993 16.2826 37.0438 17.1522C36.9882 18.0217 36.9827 18.7281 37.0438 19.3798C37.1048 20.4666 37.3228 21.1189 37.6013 21.82C37.8797 22.5211 38.2119 23.1787 38.6027 23.7781C38.7144 23.9411 38.77 24.1042 38.8817 24.2125L38.9428 24.153C39.0038 24.0935 39.0545 24.0441 39.1101 23.9358C39.333 23.7727 39.7231 23.2293 39.8349 23.0669C39.9466 22.9044 40.1139 22.6324 40.2257 22.3604L40.2867 22.2515L40.3985 22.311C40.5102 22.4199 40.5658 22.583 40.5658 22.7455C40.5658 22.9079 40.5047 23.0716 40.3985 23.3978C40.2867 23.7787 40.0639 24.2131 39.841 24.6476C39.902 24.7071 39.902 24.8107 39.841 24.8107C39.6737 25.0827 39.6737 25.1916 39.6737 25.2999H39.7347C39.7958 25.2999 40.0138 25.2404 40.1805 25.0827C40.3478 24.9737 40.7935 24.5934 41.351 23.8328C41.7968 23.2894 42.0758 22.6919 42.4105 22.0396L42.4715 21.9307L42.5833 21.9902C42.6443 22.0497 42.695 22.0497 42.7506 22.0991C42.8116 22.208 42.8116 22.3711 42.8116 22.5336C42.7506 22.9681 42.477 23.5662 42.3097 24.0007C41.9751 24.7613 41.362 25.5766 40.9157 26.1742C40.9033 26.2125 40.8816 26.2473 40.8525 26.2757C40.8233 26.304 40.7876 26.3252 40.7484 26.3373C40.8094 26.3968 40.8601 26.4462 40.9712 26.5003L41.1385 26.6634C41.7253 27.1414 42.3604 27.5602 43.0339 27.9132C43.5914 28.2394 44.707 28.7822 45.4867 29C46.2671 28.8369 47.3821 28.2394 47.9396 27.9132C48.6131 27.5602 49.2481 27.1414 49.8349 26.6634L50.0022 26.5003C50.114 26.4408 50.1695 26.3373 50.2251 26.3373C50.2862 26.2283 50.2862 26.1742 50.2862 26.12L50.2251 26.0605C49.7794 25.5171 49.1657 24.6476 48.8311 23.887C48.6638 23.4525 48.3853 22.8544 48.3291 22.4199C48.2681 22.2568 48.3291 22.0938 48.3902 21.9855L48.5019 21.8765C48.563 21.817 48.6693 21.817 48.6693 21.817L48.7303 21.9259C49.0649 22.5782 49.3996 23.1758 49.7897 23.7192C50.3472 24.4798 50.793 24.8601 50.9603 24.969C51.1276 25.1321 51.2949 25.1862 51.406 25.1862H51.4671C51.5282 25.1267 51.4671 25.0231 51.2998 24.7518C51.2387 24.6922 51.2387 24.6428 51.2387 24.5887C51.0158 24.1542 50.793 23.7197 50.6812 23.3388C50.5695 23.0127 50.5139 22.7955 50.5139 22.6865C50.5139 22.5235 50.575 22.3604 50.6812 22.2521L50.793 22.1926L50.854 22.3015C50.9658 22.5735 51.1887 22.899 51.2998 23.0621C51.4109 23.2252 51.8573 23.7144 51.969 23.8775C52.0808 23.9864 52.1363 24.0405 52.1363 24.0947L52.1974 24.1542C52.2585 24.0947 52.3091 23.9911 52.4203 23.7733L52.4813 23.7138C52.8159 23.1704 53.1506 22.464 53.429 21.7575C53.7081 21.1052 53.8747 20.3988 53.9865 19.3174C54.0476 18.6651 54.0982 17.9586 53.9865 17.0897C54.0476 16.2743 53.8192 15.4589 53.5407 14.862L53.4949 14.8537Z"/>
<defs>
<radialGradient gradientTransform="translate(37.4977 14.1332) scale(18.831 18.3543)" gradientUnits="userSpaceOnUse" r="1" cy="0" cx="0" id="paint0_radial_985_13399">
<stop stop-color="#20C4F4"/>
<stop stop-color="#09B4F0" offset="0.305"/>
<stop stop-color="#00AEEF" offset="0.5"/>
<stop stop-color="#0092C8" offset="0.8"/>
<stop stop-color="#006E98" offset="1"/>
</radialGradient>
</defs>
</svg>