<?xml version="1.0" encoding="utf-8"?>
<svg xmlns="http://www.w3.org/2000/svg" fill="none" viewBox="0 0 200 40" height="40" width="200">
<path fill="#1879BF" d="M77.8714 3L52 11.5325L60.5456 37.5421L83.2931 30.0686L81.3483 23.8899L74.1589 23.831L73.3338 26.7141H69.6208L75.8086 8.29587H79.6391L77.8714 3Z" clip-rule="evenodd" fill-rule="evenodd"/>
<path fill="#1879BF" d="M75.1016 20.771L77.6354 12.6504L80.3462 20.8299L75.1016 20.771Z" clip-rule="evenodd" fill-rule="evenodd"/>
<path fill="black" d="M95.3151 8.4134H82.5854V16.887L85.8269 26.597H95.9042V23.4776H85.8269V18.3585H93.0168V15.3571H85.8269V11.4733H95.3151V8.4134ZM133.68 26.5375V8.4134H137.039L144.7 20.4762V8.4134H148V26.5375H144.759L137.039 14.3564V26.5375H133.68ZM104.685 7.94253L105.922 8.06037L107.101 8.35448L108.22 8.82586L109.282 9.41355L110.225 10.179L110.991 11.0029L111.639 11.9442L112.11 13.0032L109.163 14.4742L109.105 14.298L108.928 13.945L108.633 13.4157L108.162 12.768L107.573 12.1793L106.807 11.5911L105.863 11.2381L104.744 11.1203L103.624 11.1792L102.622 11.5322L101.738 12.1204L100.972 12.8854L100.383 13.8271L99.9707 14.9451L99.7347 16.2399L99.6167 17.7109L99.7347 19.123L100.03 20.4172L100.56 21.4768L101.208 22.3007L101.974 23.0073L102.8 23.4776L103.742 23.7717L104.744 23.8307L105.746 23.7717L106.571 23.4776L107.337 23.1251L107.985 22.5948L108.457 22.0066L108.869 21.3011L109.105 20.5356L109.223 19.7706H104.803V16.6518H112.169V26.597H109.341V24.9487L109.282 25.0665L109.163 25.3017L108.81 25.5958L108.398 26.0082L107.749 26.3618L106.925 26.7138L105.863 26.95L104.627 27.0079L103.212 26.8911L101.738 26.5375L100.324 25.8904L99.0276 24.9487L97.8489 23.6544L96.9648 22.0655L96.3758 20.0647L96.1397 17.652L96.3758 15.2981L96.9058 13.2389L97.7899 11.5911L98.9096 10.2374L100.206 9.23729L101.679 8.53125L103.153 8.1193L104.685 7.94253ZM119.477 22.4186L119.83 22.7132L120.184 22.9484L120.537 23.183L120.95 23.4182L121.362 23.5366L121.775 23.6544L122.246 23.7128L122.778 23.7717L124.014 23.5955L125.134 23.2425L126.019 22.5948L126.784 21.8304L127.314 20.8886L127.727 19.8296L127.963 18.711L128.081 17.5346L127.963 16.2983L127.727 15.063L127.314 14.0034L126.725 13.0032L125.96 12.1793L125.075 11.5322L124.014 11.1203L122.778 10.9435L121.54 11.1203L120.478 11.5322L119.594 12.1793L118.888 13.0621L118.357 14.0623L118.004 15.1803L117.827 16.3577L117.71 17.5931L117.768 18.2996L117.827 19.0057L118.004 19.6528L118.181 20.3004L118.416 20.8886L118.711 21.4179L119.064 21.9472L119.477 22.4186L118.121 25.5369L117.296 24.9487L116.589 24.2431L115.882 23.3603L115.351 22.4186L114.88 21.359L114.527 20.1821L114.35 18.9462L114.291 17.5346L114.467 15.2397L114.939 13.2389L115.764 11.5911L116.825 10.2374L118.121 9.17837L119.594 8.4134L121.186 8.00145L122.836 7.8252L124.309 8.00145L125.841 8.35448L127.314 9.06104L128.611 10.1201L129.79 11.4144L130.674 13.1211L131.263 15.1219L131.499 17.5346L131.322 19.5349L130.909 21.359L130.144 22.9484L129.142 24.302L127.904 25.42L126.431 26.2434L124.722 26.7138L122.836 26.8911H122.187L121.599 26.8321L120.95 26.7138L120.361 26.597L119.772 26.3618L119.183 26.1256L118.652 25.8904L118.121 25.5369L119.477 22.4186ZM87.8306 32.9514L87.1235 31.0689H136.921V32.9514H87.8306Z" clip-rule="evenodd" fill-rule="evenodd"/>
</svg>