<?xml version="1.0" encoding="utf-8"?>
<svg xmlns="http://www.w3.org/2000/svg" fill="none" viewBox="0 0 200 40" height="40" width="200">
<path fill="#E61A27" d="M89.5564 30.7108C86.2166 28.5557 81.6692 28.176 74.3269 30.2133C66.5117 32.0608 63.9049 33.2209 60.4948 30.8532C59.1923 29.693 58.7177 27.821 59.0499 25.121C59.855 20.7388 62.0821 16.5008 65.9897 11.8339C68.1693 9.39404 70.2049 7.3093 72.882 6.45677C74.9421 5.93647 74.7523 7.54661 74.4921 7.78391C74.232 7.78391 73.782 7.83137 73.4497 8.04406C73.165 8.25675 72.4074 8.94405 72.3845 9.8915C72.3371 11.3118 73.8048 11.0288 74.4447 10.2466C75.1319 9.36943 76.1497 7.68899 75.3446 6.1017C75.0124 5.53393 74.4447 5.15425 73.7099 5.01187C71.2472 4.86949 68.9726 6.02963 66.8651 7.33215C62.2473 10.5296 58.5753 14.9821 56.4906 19.8371C55.283 22.7743 54.1931 26.9667 55.8279 30.3768C57.0829 32.7445 59.7126 34.0014 62.838 33.7394C65.0405 33.5021 67.6701 32.792 69.4701 32.3666C71.2472 31.9395 80.3877 28.7895 83.3725 34.2615C83.3725 34.2615 84.3674 32.3192 86.8547 32.2963C88.8919 32.1065 91.8521 32.8887 94.0071 34.476C93.2987 33.4107 91.2614 31.8252 89.5564 30.7108Z"/>
<path fill="#E61A27" d="M75.2747 12.4034C73.5697 11.2907 70.1349 13.4211 67.3875 17.0931C64.8774 20.3855 63.7876 24.2227 64.9723 25.9753C66.7248 28.06 69.9926 25.0278 71.3671 23.4177L71.557 23.2278C72.5044 22.2101 73.2392 21.0007 73.9247 19.8177C73.9247 19.8177 74.5646 18.7525 74.612 18.705C75.0146 18.6347 75.4892 18.5152 76.0323 18.35C76.0323 18.3728 73.9476 21.855 74.162 23.5847C74.2323 24.105 74.1849 26.0473 76.0569 26.6169C78.5671 27.044 80.5569 25.1016 82.334 23.372C82.334 23.372 82.6416 23.0872 82.8069 22.922C82.7594 23.0872 82.7119 23.3245 82.7119 23.3245C81.9772 25.8821 82.9721 26.4042 83.5891 26.6169C85.4594 27.1618 87.6865 24.4372 87.7093 24.4372C87.6619 25.2897 87.472 25.9999 88.372 26.5694C89.2246 26.877 90.0771 26.4042 90.7398 25.977C93.1075 24.3194 95.0024 21.7144 96.5422 19.4644H95.5719C95.5719 19.4644 93.1567 22.9466 91.5923 23.7042C91.5923 23.7042 91.3075 23.8466 91.1423 23.727C90.9296 23.5618 91.0245 23.2067 91.1423 22.9448C91.1423 22.922 97.1821 12.4772 97.1821 12.4772H94.3415C94.3415 12.4772 94.0339 12.9746 94.0093 13.0221C93.9864 12.9992 93.9389 12.9272 93.9143 12.8797C92.1618 10.4399 88.1593 14.1822 85.1518 18.5398C83.9916 20.222 82.5221 22.0923 81.0069 23.4423C81.0069 23.4423 78.7569 25.527 77.7866 24.0347C77.4315 23.4194 77.5493 22.4948 77.7391 21.9025C78.8764 18.705 80.7942 15.7924 83.0213 14.0399C83.6365 13.567 84.3238 13.4246 84.6561 13.6127C84.9883 13.8008 85.0357 14.2754 84.8213 14.583C84.301 14.5602 83.8984 14.7254 83.5662 15.0805C82.9035 15.7678 82.6662 16.4304 82.8789 17.0703C83.8967 18.5152 85.934 15.65 85.839 13.9203C85.8162 13.3051 85.4594 12.7127 84.9619 12.4051C84.2272 11.9551 83.0916 12.0729 82.3569 12.428C81.3866 12.8076 79.8221 14.0856 78.9221 15.1051C77.7848 16.3601 75.8196 17.7576 75.2044 17.6152C75.3468 17.0457 77.0044 13.6584 75.2747 12.4034ZM88.989 17.4008C89.5339 16.6431 91.1441 14.583 91.5466 14.2508C92.8737 13.0906 93.394 13.611 93.4415 13.966C92.2093 16.1685 90.7644 18.7033 89.3915 20.9761L88.9644 21.6159C88.372 22.5388 87.7568 23.321 86.7619 23.8888C86.6195 23.9362 86.3822 23.9362 86.2416 23.8413C86.0517 23.7235 85.9814 23.5091 86.0043 23.2964C86.0271 22.5634 86.7619 20.4083 88.989 17.4008ZM73.4994 18.7261C73.4994 18.7261 73.4765 18.7964 73.4519 18.821L72.2197 20.8337C71.4621 21.8286 70.5375 23.0837 69.3773 23.6761C69.0223 23.7938 68.5477 23.8659 68.3121 23.5583C67.7918 22.9431 68.052 22.0905 68.2893 21.4032L68.3596 21.1659C68.9748 19.4837 69.9697 18.016 70.9172 16.6185C70.94 16.6185 70.9646 16.5957 70.9646 16.5957C70.9646 16.5957 70.9646 16.5957 70.9646 16.6185C71.557 17.7787 72.6943 18.3007 73.5222 18.5609C73.5222 18.5609 73.5222 18.5609 73.5222 18.5837C73.5468 18.633 73.5468 18.6558 73.4994 18.7261ZM74.6823 16.3584C74.6823 16.3812 74.1374 17.6381 74.1374 17.6381C74.0671 17.7084 73.9247 17.6609 73.7824 17.6381L73.5451 17.5906C72.7874 17.3533 72.1951 16.833 72.0298 16.2406C71.7925 15.0559 72.7874 14.133 73.2374 13.7779C73.6646 13.4703 74.3273 13.3279 74.7298 13.6356C74.9671 13.9203 75.062 14.2754 75.062 14.6779C75.0374 15.1982 74.8722 15.7906 74.6823 16.3584Z"/>
<path fill="#E61A27" d="M110.637 20.171C110.352 19.5787 109.714 19.2007 109.027 19.2482C106.777 19.4609 104.574 21.3083 103.414 23.9608C102.799 25.3337 102.467 26.4481 102.254 28.2481C102.964 27.443 104.386 26.1159 105.996 25.3829C105.996 25.3829 106.209 23.6532 107.346 22.138C107.774 21.4982 108.626 20.4804 109.574 20.7652C110.403 21.0499 110.119 23.3702 109.006 25.5973C108.176 27.2549 106.921 28.8897 105.643 30.027C104.506 30.9744 102.848 32.1346 101.403 31.2346C100.481 30.6897 100.031 29.5524 100.124 28.0846C100.574 23.9169 102.444 20.3873 105.169 16.3602C107.963 12.6178 111.043 8.75771 115.186 6.72043C116.039 6.29329 116.821 6.20012 117.484 6.46028C117.484 6.46028 113.599 8.59248 111.729 12.5704C111.256 13.5653 110.591 14.9381 111.256 16.1475C111.611 16.7627 112.203 16.8348 112.701 16.7873C114.974 16.267 116.443 14.1348 117.651 12.1924C118.338 10.7247 118.978 9.25516 118.978 7.62218C118.978 7.43234 118.978 7.17218 118.955 6.95949C120.045 6.39172 122.27 7.40949 122.27 7.40949C124.023 7.97725 127.718 10.8196 128.973 11.3645C129.588 10.6544 130.583 9.58739 131.152 9.04423L130.323 8.54678C129.02 7.74171 127.623 6.9841 126.273 6.24934C123.17 4.56714 120.66 5.15951 119.38 5.60951C118.883 5.79935 118.41 5.94173 118.41 5.94173C117.463 4.89936 115.9 4.99428 114.763 5.27904C110.642 6.46379 106.805 9.3536 102.683 14.3739C99.6509 18.306 97.7806 21.6915 96.7857 25.056C96.0034 27.3059 95.7907 30.6211 97.6628 32.5881C99.2501 34.2703 101.381 33.8906 102.873 33.2982C106.118 31.7109 109.03 28.2534 110.475 24.2983C110.85 23.1083 111.229 21.4507 110.637 20.171ZM118.097 7.76104C117.67 12.6881 113.834 15.5762 112.887 15.8135C112.319 15.9313 111.324 15.6711 112.2 13.611C113.479 10.8161 115.682 8.47119 118.05 7.26359C118.097 7.45343 118.097 7.5712 118.097 7.76104Z"/>
<path fill="#E61A27" d="M140.785 8.40094C138.725 9.56108 136.593 10.3187 134.01 10.0585C133.3 10.8636 132.59 11.6933 131.95 12.5458C135.575 13.4686 139.41 11.4085 141.565 9.46616C143.84 7.50095 145 5.01367 145 5.01367C145 5.01367 143.295 6.95603 140.785 8.40094Z"/>
<path fill="#E61A27" d="M101.872 12.4984H99.172L97.6567 14.9611H100.357L101.872 12.4984Z"/>
<path fill="#E61A27" d="M134.011 30.9482C133.726 31.138 133.324 30.9957 133.466 30.5457C133.846 29.3855 135.361 27.0406 135.361 27.0406L139.576 19.5806H136.686C136.544 19.7932 136.259 20.3153 136.259 20.3153C136.117 20.1026 135.739 19.6052 135.572 19.4856C134.862 19.0356 133.842 19.2483 133.132 19.6509C130.03 21.4508 127.78 25.0508 125.98 27.8211C125.98 27.8211 124.109 30.9236 123.067 31.1609C122.262 31.2312 122.332 30.1431 122.38 29.8812C122.687 28.0338 123.422 26.2813 124.157 24.694C125.649 23.6516 127.354 22.3016 128.917 20.8093C132.28 17.589 135.122 13.9416 135.549 13.1347C135.549 13.1347 135.099 13.2297 134.579 13.2525C131.997 16.8771 126.691 22.11 125.081 22.8922C125.792 21.1872 130.386 12.9924 134.319 9.08478L134.934 8.49241C135.881 7.56957 136.876 6.59751 137.634 6.45513C137.704 6.45513 137.824 6.45513 137.919 6.64497C137.941 7.37973 137.681 7.90003 137.374 8.51526L136.946 9.41525C136.946 9.41525 137.562 9.29748 137.964 9.17795C138.437 8.30081 138.959 7.30766 138.769 6.1229C138.699 5.74322 138.437 5.46022 138.082 5.38815C136.922 5.17546 135.642 6.02798 134.624 6.73813L134.577 6.76098C129.319 10.8812 124.867 16.8261 120.982 24.9506C120.697 25.1633 119.609 25.4235 119.42 25.3057C119.799 24.5235 120.297 23.4582 120.532 22.2981C120.58 21.9659 120.603 21.6354 120.603 21.3032C120.603 20.593 120.437 19.9304 119.797 19.4558C119.063 19.0761 118.14 19.2659 117.525 19.5261C114.754 20.6862 112.67 23.5286 111.177 25.8734C110.372 27.3658 109.567 28.9531 109.354 30.8005C109.189 32.2208 109.52 33.1454 110.325 33.6183C111.154 34.0454 112.22 33.5954 112.622 33.381C115.44 31.8886 117.407 28.9285 118.947 26.2039C119.017 26.2039 119.847 26.1811 120.486 26.0141H120.509C120.462 26.1318 120.13 27.1268 120.13 27.1268C119.159 30.0166 118.685 31.9589 119.632 33.1191C120.959 34.7538 123.162 33.0716 124.937 30.8216C124.558 33.4987 125.955 33.9241 126.997 33.7114C128.205 33.3792 129.58 32.0767 130.195 31.414C129.982 32.1962 130.052 33.5937 131.165 33.7343C131.923 33.8767 132.492 33.4495 133.155 33.1191C135.523 31.8394 138.342 27.5539 139.075 26.3217H138.105C136.996 27.8932 135.67 29.9779 134.011 30.9482ZM112.838 30.6634C112.696 30.4507 112.648 30.1906 112.626 29.9287C112.603 28.3185 114.331 25.4287 115.563 23.8414C116.083 24.9787 117.245 25.6889 117.931 25.9965C117.078 27.9406 114.069 32.1083 112.838 30.6634ZM118.428 25.1457C118.333 25.1932 116.888 24.7186 116.605 23.3457C116.368 22.1856 117.173 21.261 117.955 20.811C118.287 20.5509 118.785 20.4559 119.163 20.5983C119.495 20.8356 119.59 21.2382 119.59 21.6881C119.59 21.9483 119.543 22.2331 119.52 22.4932V22.5407C119.256 23.4407 118.901 24.3407 118.428 25.1457ZM130.198 30.1431L129.914 30.3804C129.511 30.7355 129.108 31.1152 128.611 30.9253C128.469 30.8779 128.374 30.688 128.351 30.5457C128.328 29.5279 128.778 28.6033 129.228 27.6805L129.346 27.4432C130.625 25.311 132.093 22.8254 134.273 21.0729C134.628 20.8128 135.03 20.5755 135.458 20.7653C135.553 20.8602 135.67 21.0026 135.67 21.1678C135.67 21.2153 135.623 21.3577 135.6 21.3805C134.985 22.3508 134.415 23.3932 133.847 24.3881C132.756 26.3533 131.62 28.366 130.198 30.1431Z"/>
</svg>