<?xml version="1.0" encoding="utf-8"?>
<svg xmlns="http://www.w3.org/2000/svg" fill="none" viewBox="0 0 200 40" height="40" width="200">
<path fill="#152A72" d="M63.0479 10.144H79.2381V14.9125H74.0154V28.7488H68.2705V14.9125H63.0479V10.144Z"/>
<path fill="#152A72" d="M84.4912 14.8877C89.6094 14.8877 92.1685 17.6411 92.1685 23.1478H82.2455C82.3151 23.999 82.5849 24.6504 83.055 25.1021C83.525 25.5537 84.1343 25.7796 84.8829 25.7796C85.91 25.7796 86.6325 25.4582 87.0503 24.8154H91.8813C91.3938 26.1704 90.5234 27.2214 89.27 27.9684C88.0339 28.7153 86.5803 29.0888 84.909 29.0888C82.6981 29.0888 80.8789 28.4721 79.4514 27.2387C78.0238 25.988 77.3101 24.2509 77.3101 22.0273C77.3101 20.0296 77.9716 18.3446 79.2947 16.9723C80.6352 15.5826 82.3673 14.8877 84.4912 14.8877ZM82.2716 20.4639H87.207C87.207 19.8212 86.9807 19.2827 86.5281 18.8484C86.0928 18.4141 85.5532 18.1969 84.909 18.1969C83.3945 18.1969 82.5153 18.9526 82.2716 20.4639Z"/>
<path fill="#152A72" d="M94.7012 10.144H99.8716V28.7488H94.7012V10.144Z"/>
<path fill="#152A72" d="M109.56 14.8877C114.678 14.8877 117.237 17.6411 117.237 23.1478H107.314C107.384 23.999 107.654 24.6504 108.124 25.1021C108.594 25.5537 109.203 25.7796 109.952 25.7796C110.979 25.7796 111.701 25.4582 112.119 24.8154H116.95C116.463 26.1704 115.592 27.2214 114.339 27.9684C113.103 28.7153 111.649 29.0888 109.978 29.0888C107.767 29.0888 105.948 28.4721 104.52 27.2387C103.093 25.988 102.379 24.2509 102.379 22.0273C102.379 20.0296 103.04 18.3446 104.364 16.9723C105.704 15.5826 107.436 14.8877 109.56 14.8877ZM107.34 20.4639H112.276C112.276 19.8212 112.05 19.2827 111.597 18.8484C111.162 18.4141 110.622 18.1969 109.978 18.1969C108.463 18.1969 107.584 18.9526 107.34 20.4639Z"/>
<path fill="#152A72" d="M118.128 15.2251H123.586L125.701 23.4591H125.753L127.894 15.2251H133.169L128.678 28.7487H122.567L118.128 15.2251Z"/>
<path fill="#152A72" d="M135.072 10.144H140.243V13.766H135.072V10.144ZM135.072 15.2252H140.243V28.7488H135.072V15.2252Z"/>
<path fill="#152A72" d="M149.282 14.8853C151.337 14.8853 152.93 15.2501 154.061 15.9797C155.21 16.7093 155.811 17.7689 155.863 19.1586H151.163C151.145 18.7764 150.954 18.4464 150.588 18.1685C150.24 17.8905 149.848 17.7515 149.413 17.7515C148.368 17.7515 147.846 18.099 147.846 18.7938C147.846 19.2281 148.238 19.5234 149.021 19.6798C149.561 19.8014 150.318 19.949 151.293 20.1227C152.999 20.4354 154.244 20.9305 155.027 21.608C155.828 22.2681 156.229 23.1714 156.229 24.3179C156.229 25.8987 155.619 27.0886 154.401 27.8877C153.182 28.6868 151.502 29.0864 149.361 29.0864C147.446 29.0864 145.853 28.6868 144.582 27.8877C143.294 27.0713 142.624 25.8813 142.571 24.3179H147.507C147.681 25.3776 148.351 25.9074 149.517 25.9074C149.987 25.9074 150.397 25.8205 150.745 25.6468C151.093 25.4557 151.267 25.1952 151.267 24.8651C151.267 24.4482 151.067 24.1529 150.666 23.9792C150.283 23.8055 149.5 23.6144 148.316 23.4059C146.453 23.0759 145.078 22.5895 144.19 21.9467C143.32 21.304 142.885 20.3833 142.885 19.1847C142.885 18.4203 143.067 17.7515 143.433 17.1783C143.816 16.5877 144.321 16.136 144.948 15.8233C145.592 15.4933 146.271 15.2587 146.984 15.1198C147.716 14.9634 148.482 14.8853 149.282 14.8853Z"/>
<path fill="#152A72" d="M165.95 14.8838C168.892 14.8838 170.815 15.4918 171.721 16.7078C172.156 17.2984 172.373 18.3581 172.373 19.8867V25.8799C172.373 27.2175 172.582 28.1729 173 28.7462H167.725C167.603 28.4335 167.542 28.06 167.542 27.6257V27.4693H167.49C166.481 28.5464 165.027 29.0849 163.129 29.0849C161.667 29.0849 160.501 28.7288 159.63 28.0165C158.777 27.287 158.351 26.2794 158.351 24.9939C158.351 23.7258 158.803 22.7443 159.708 22.0495C160.614 21.3373 162.181 20.8595 164.409 20.6163C165.802 20.46 166.655 20.2776 166.968 20.0692C167.264 19.8781 167.412 19.5827 167.412 19.1832C167.412 18.801 167.255 18.497 166.942 18.2712C166.629 18.0454 166.219 17.9325 165.715 17.9325C164.461 17.9325 163.817 18.3928 163.782 19.3135H158.977C159.03 17.8022 159.621 16.6904 160.753 15.9782C161.885 15.2486 163.617 14.8838 165.95 14.8838ZM163.625 24.7855C163.625 25.1329 163.782 25.4282 164.096 25.6714C164.426 25.9146 164.809 26.0362 165.245 26.0362C165.906 26.0362 166.428 25.8365 166.811 25.4369C167.212 25.02 167.412 24.4641 167.412 23.7692V22.6748C167.064 22.8659 166.359 23.0918 165.297 23.3523C164.653 23.526 164.209 23.7171 163.965 23.9256C163.739 24.1167 163.625 24.4033 163.625 24.7855Z"/>
<path fill="#003380" d="M33.0327 12.8277C33.524 12.5321 34.0383 12.2496 34.5766 11.9854H39.4736C38.981 12.2211 38.5153 12.5038 38.0824 12.8277H33.0327Z"/>
<path fill="#003380" d="M29.9263 15.2198C30.3679 14.7594 30.8723 14.3209 31.4264 13.9038H36.899C36.5321 14.3082 36.2048 14.749 35.9227 15.2198H29.9263Z"/>
<path fill="#003380" d="M28.208 18.024C28.4028 17.3558 28.7287 16.725 29.1615 16.1289H35.4526C35.1885 16.727 34.9927 17.3619 34.8759 18.024H28.208Z"/>
<path fill="#003380" d="M28.1875 20.8469C28.0654 20.4053 28 19.9476 28 19.4725C28 19.2603 28.0141 19.0519 28.0392 18.8467H34.7728C34.7574 19.0532 34.7493 19.2617 34.7493 19.4721C34.7493 19.9405 34.7889 20.3997 34.8637 20.8469L28.1875 20.8469Z"/>
<path fill="#003380" d="M29.8388 23.6295C29.2256 22.974 28.741 22.2737 28.4233 21.5239H35.0054C35.1959 22.2715 35.4882 22.9785 35.8666 23.6295H29.8388Z"/>
<path fill="#003380" d="M34.1376 26.7329C33.6319 26.469 33.1473 26.1899 32.6855 25.8996C31.847 25.3726 31.0818 24.8093 30.4233 24.2061H36.2348C36.9607 25.2472 37.9193 26.1144 39.0357 26.7329H34.1376Z"/>
<path fill="#003380" d="M51.369 27.0503C49.0184 28.1743 46.2366 28.9454 43.0701 28.9454C39.9035 28.9454 37.1232 28.174 34.7729 27.0503H39.6705C40.7079 27.514 41.8576 27.7722 43.068 27.7722C44.2784 27.7722 45.4284 27.514 46.4659 27.0503H51.369Z"/>
<path fill="#003380" d="M55.7172 24.2061C55.0589 24.8097 54.2933 25.3733 53.4545 25.9005C52.993 26.1904 52.5092 26.4694 52.0037 26.7329H47.1001C48.2166 26.1144 49.1753 25.2472 49.9012 24.2061H55.7172Z"/>
<path fill="#003380" d="M57.7159 21.5239C57.3985 22.2737 56.9141 22.9741 56.3011 23.6295H50.269C50.6474 22.9785 50.9397 22.2715 51.1302 21.5239H57.7159Z"/>
<path fill="#003380" d="M58.0997 18.8467C58.1252 19.0519 58.1394 19.2602 58.1394 19.4725C58.1394 19.9475 58.0741 20.4053 57.952 20.8469H51.2725C51.3472 20.3997 51.3867 19.9405 51.3867 19.4721C51.3867 19.2617 51.3786 19.0532 51.3632 18.8467L58.0997 18.8467Z"/>
<path fill="#003380" d="M56.968 16.1289C57.4044 16.7245 57.733 17.3554 57.9297 18.024H51.2599C51.1431 17.3619 50.9473 16.727 50.6831 16.1289H56.968Z"/>
<path fill="#003380" d="M54.6854 13.9038C55.2426 14.3211 55.7505 14.7594 56.1958 15.2198H50.2121C49.93 14.749 49.6028 14.3082 49.2358 13.9038H54.6854Z"/>
<path fill="#003380" d="M51.5291 11.9854C52.0671 12.2497 52.5819 12.5323 53.0734 12.8277H48.0529C47.6199 12.5038 47.1542 12.2211 46.6616 11.9854H51.5291Z"/>
<path fill="#003380" d="M48.3045 10.7369H37.8115C39.4204 10.2755 41.1764 10 43.07 10C44.9561 10 46.7033 10.276 48.3045 10.7369Z"/>
</svg>