<?xml version="1.0" encoding="utf-8"?>
<svg xmlns="http://www.w3.org/2000/svg" fill="none" viewBox="0 0 200 40" height="40" width="200">
<path fill="#1E306E" d="M143 14.5601C141.574 14.4297 140.179 15.0277 139.29 16.1501V14.7201H136.13V28.4601H139.29V20.8801C139.243 19.9605 139.589 19.0642 140.241 18.414C140.893 17.7638 141.79 17.4208 142.71 17.4701H143V14.5601ZM123.37 19.94C124.004 18.3846 125.516 17.3677 127.195 17.3677C128.874 17.3677 130.387 18.3846 131.02 19.94H123.37ZM127.19 14.56C124.678 14.5761 122.366 15.9308 121.124 18.114C119.882 20.2971 119.9 22.9769 121.169 25.144C122.439 27.311 124.768 28.6361 127.28 28.62C130.7 28.62 133.48 26.78 134.35 24.29H130.61C130.14 25.17 128.96 25.76 127.28 25.76C125.373 25.8066 123.699 24.5006 123.28 22.64H134.41C134.471 22.2933 134.501 21.942 134.5 21.59C134.466 19.69 133.675 17.8823 132.302 16.568C130.93 15.2538 129.09 14.5417 127.19 14.59V14.56ZM111.52 25.7099C110.414 25.7491 109.341 25.3284 108.557 24.5477C107.772 23.767 107.346 22.6961 107.38 21.5899C107.489 19.3743 109.317 17.6338 111.535 17.6338C113.753 17.6338 115.581 19.3743 115.69 21.5899C115.724 22.7015 115.294 23.7773 114.503 24.559C113.712 25.3407 112.631 25.7577 111.52 25.7099ZM111.66 14.56C115.95 14.56 118.79 17.3 118.79 21.56C118.79 25.82 115.95 28.56 111.66 28.56C110.101 28.6097 108.584 28.0501 107.43 27V35.3L104.27 35.62V14.72H107.43V16.15C108.587 15.1015 110.099 14.533 111.66 14.56ZM97.92 14.56C99.6104 14.613 101.154 15.5358 102 17L99.43 18.18C99.104 17.6416 98.529 17.3034 97.9 17.28C97.25 17.28 96.59 17.59 96.59 18.35C96.59 19.11 97.52 19.51 99.21 20.11C101.56 20.95 102.68 22.11 102.68 24.17C102.68 26.23 100.78 28.63 97.6 28.63C95.0235 28.7818 92.7882 26.869 92.54 24.3H95.61C95.7806 25.257 96.6395 25.9356 97.61 25.88C98.0889 25.9222 98.5634 25.7608 98.9173 25.4354C99.2712 25.1101 99.4719 24.6507 99.47 24.17C99.47 23.54 99.25 22.85 97.26 22.33C95.12 21.77 93.59 20.62 93.59 18.33C93.6484 17.2499 94.1417 16.2394 94.9576 15.5291C95.7734 14.8188 96.8421 14.4692 97.92 14.56ZM83.9999 25.7102C81.7245 25.7102 79.8799 23.8656 79.8799 21.5902C79.8799 19.3148 81.7245 17.4702 83.9999 17.4702C86.2753 17.4702 88.1199 19.3148 88.1199 21.5902C88.1199 23.8656 86.2753 25.7102 83.9999 25.7102ZM83.8901 14.5602C81.9886 14.4746 80.1361 15.1772 78.7695 16.5021C77.4029 17.8271 76.6434 19.657 76.6701 21.5602C76.6434 23.4634 77.4029 25.2934 78.7695 26.6183C80.1361 27.9432 81.9886 28.6458 83.8901 28.5602C85.4153 28.621 86.8994 28.0577 88.0001 27.0002V28.4302H91.2001V14.7202H88.0001V16.1502C86.9005 15.0877 85.4185 14.5144 83.8901 14.5602ZM67.16 9C63.5715 8.88556 60.2055 10.7347 58.3774 13.8247C56.5493 16.9148 56.5493 20.7552 58.3774 23.8453C60.2055 26.9353 63.5715 28.7844 67.16 28.67C70.6465 28.716 73.9053 26.9427 75.76 23.99L72.76 22.39C71.6231 24.4046 69.4621 25.6218 67.15 25.55C65.3724 25.5723 63.6619 24.8722 62.41 23.61C59.8252 20.9514 59.8252 16.7186 62.41 14.06C63.6592 12.7939 65.3715 12.0931 67.15 12.12C68.5507 12.0842 69.9233 12.5171 71.05 13.35C71.9794 14.1199 73.1433 14.5502 74.35 14.57C76.3929 14.5905 78.1762 13.1897 78.64 11.2L75.54 10.57C75.4382 11.1477 74.9366 11.5692 74.35 11.57C73.93 11.57 73.67 11.41 73 10.92C71.3461 9.60114 69.2738 8.91982 67.16 9Z" clip-rule="evenodd" fill-rule="evenodd"/>
</svg>