<?xml version="1.0" encoding="utf-8"?>
<svg xmlns="http://www.w3.org/2000/svg" fill="none" viewBox="0 0 200 40" height="40" width="200">
<path fill="#0067CD" d="M56 8V31.9599H69.8446C70.515 29.8059 71.2165 27.625 71.8751 25.4472C71.9228 25.3993 71.9228 25.2734 71.8751 25.2373H64.2709V23.2565H72.532C73.2382 21.0548 73.8677 18.8839 74.5625 16.7537H64.3704V14.8829L75.1197 14.8529L76.314 10.9812C76.3259 10.9812 76.324 11.0091 76.324 11.0212C76.5752 9.99839 76.9124 8.99888 77.1999 8H56ZM88.825 8.03001L88.815 14.9129L95.7921 14.9329V32H106.94C105.036 30.7123 103.359 28.3938 102.461 26.1076C101.228 23.1595 101.182 19.0038 102.391 16.0434C102.439 15.9833 102.399 15.8553 102.471 15.8434C102.531 15.5685 102.679 15.2528 102.809 15.0031C103.384 13.7394 104.175 12.5425 105.048 11.5917C105.192 11.3992 105.323 11.2555 105.526 11.1714L105.476 11.1615C105.728 10.8845 105.952 10.6732 106.203 10.4811C106.275 10.4207 106.314 10.355 106.422 10.331V10.2909C106.733 10.0385 106.998 9.82758 107.357 9.61055C107.512 9.50331 107.675 9.40959 107.845 9.33044C108.707 8.7654 109.739 8.34879 110.841 8.05979L88.825 8.03001ZM121.829 8.05005V32H128.986L129.025 17.0839C129.528 18.7565 130.068 20.4773 130.558 22.1259C130.57 22.2218 130.59 22.3501 130.638 22.3862C131.128 24.0588 131.584 25.7575 132.111 27.4181C132.266 28.0196 132.475 28.6075 132.618 29.2089H132.638C132.89 30.1478 133.18 31.0633 133.445 31.9902H145L144.98 8.05013H137.784L137.754 22.9864C137.371 21.7946 137.006 20.5241 136.659 19.2848L136.639 19.2948C135.514 15.4924 134.389 11.8285 133.275 8.05013L121.829 8.05005ZM84.7941 12.642C84.6389 13.0869 84.4979 13.5936 84.366 14.0626C84.3545 14.0626 84.356 14.0546 84.356 14.0426C83.7807 16.1004 83.0892 18.189 82.5147 20.2953H86.9637C86.7364 19.4768 86.5002 18.6145 86.2968 17.8443H86.2769C85.7742 16.1234 85.3088 14.3867 84.7941 12.642ZM114.783 15.9933C114.163 15.9988 113.527 16.1454 113.011 16.3635C111.861 16.9529 111.028 17.7092 110.513 18.9246L110.503 18.8945C110.466 19.063 110.401 19.1662 110.353 19.3347C110.306 19.4551 110.248 19.5824 110.224 19.7148C109.937 20.7496 110.006 22.0738 110.413 23.0361H110.433C110.457 23.0962 110.489 23.1902 110.513 23.2262C111.076 24.4415 112.008 25.2808 113.29 25.6771C115.145 26.2431 117.085 25.5563 118.127 24.3166C118.269 24.1504 118.422 23.9406 118.565 23.7963H118.574V23.7363H118.565C119.642 22.2562 119.51 19.7282 118.565 18.224C118.481 18.1755 118.453 18.0723 118.405 17.9639H118.385C117.751 17.1095 116.949 16.4324 115.847 16.1432C115.524 16.0397 115.154 15.99 114.783 15.9933ZM80.8826 25.6374C80.7031 26.2509 80.5366 26.824 80.3451 27.4383L80.3251 27.4082C79.882 28.9364 79.4301 30.4737 78.9516 31.9901H90.3676C89.7662 29.8699 89.1557 27.7524 88.5363 25.6374H80.8826Z"/>
</svg>