<?xml version="1.0" encoding="utf-8"?>
<svg xmlns="http://www.w3.org/2000/svg" fill="none" viewBox="0 0 150 46" height="46" width="150">
<path fill="#DE2939" d="M73.86 1.1405L52.9108 22.0897C52.4078 22.5927 52.4078 23.4083 52.9108 23.9113L62.133 33.1335C62.6361 33.6365 63.4516 33.6365 63.9547 33.1335L84.9038 12.1844C85.4069 11.6813 85.4069 10.8657 84.9038 10.3627L75.6817 1.1405C75.1786 0.637464 74.363 0.637464 73.86 1.1405Z"/>
<path fill="white" d="M60.8805 24.8222C61.8866 23.8161 61.8866 22.1849 60.8805 21.1788C59.8744 20.1727 58.2433 20.1727 57.2372 21.1788C56.2311 22.1849 56.2311 23.8161 57.2372 24.8222C58.2433 25.8282 59.8744 25.8282 60.8805 24.8222Z"/>
<path fill="white" d="M68.9074 24.879C69.9135 23.873 69.9135 22.2418 68.9074 21.2357C67.9013 20.2296 66.2701 20.2296 65.264 21.2357C64.258 22.2418 64.258 23.873 65.264 24.879C66.2701 25.8851 67.9013 25.8851 68.9074 24.879Z"/>
<path fill="white" d="M76.6496 13.0385C77.6556 12.0324 77.6556 10.4012 76.6496 9.39513C75.6435 8.38905 74.0123 8.38905 73.0062 9.39513C72.0002 10.4012 72.0002 12.0324 73.0062 13.0385C74.0123 14.0445 75.6435 14.0445 76.6496 13.0385Z"/>
<path fill="white" d="M64.0684 10.9316L63.3853 11.6147L74.4291 22.6586L75.1122 21.9755L64.0684 10.9316Z"/>
<path fill="#007BAD" d="M85.4728 12.7535L64.5236 33.7027C64.0206 34.2057 64.0206 35.0213 64.5236 35.5244L73.7458 44.7465C74.2488 45.2496 75.0644 45.2496 75.5675 44.7465L96.5166 23.7974C97.0197 23.2943 97.0197 22.4788 96.5166 21.9757L87.2944 12.7535C86.7914 12.2505 85.9758 12.2505 85.4728 12.7535Z"/>
<path fill="white" d="M69.7615 38.4847L65.7766 34.4998L67.1429 33.1335C69.0784 31.6534 72.494 35.069 71.1278 37.1184L69.7615 38.4847ZM67.7121 34.3859L69.7615 36.4353C70.4446 35.5245 68.623 33.7028 67.7121 34.3859ZM71.0139 31.4257C72.6079 29.8317 75.5111 32.735 73.9172 34.329C72.3232 35.9229 69.42 33.0197 71.0139 31.4257ZM71.754 32.1658C72.1525 31.7673 73.5756 33.1904 73.1771 33.5889C72.7786 33.9874 71.3555 32.5642 71.754 32.1658ZM72.7217 30.0595L73.7464 29.0348L74.088 29.3763C74.0409 29.1876 74.0435 28.9899 74.0955 28.8025C74.1475 28.6151 74.2471 28.4443 74.3846 28.3067C74.5222 28.1692 74.6929 28.0696 74.8804 28.0176C75.0678 27.9656 75.2655 27.963 75.4542 28.0101C75.4072 27.8214 75.4098 27.6237 75.4618 27.4362C75.5137 27.2488 75.6133 27.078 75.7509 26.9405C75.8884 26.803 76.0592 26.7033 76.2466 26.6514C76.434 26.5994 76.6317 26.5968 76.8205 26.6438L79.2114 29.0348L78.2436 30.0025L76.5358 28.2947C76.4628 28.261 76.3894 28.2454 76.3234 28.2494C76.2573 28.2535 76.2011 28.2771 76.1604 28.3178C76.1197 28.3584 76.0961 28.4147 76.0921 28.4807C76.088 28.5468 76.1036 28.6201 76.1373 28.6932L77.8452 30.401L76.8205 31.4257L75.1127 29.7179C75.0396 29.6842 74.9662 29.6686 74.9002 29.6726C74.8342 29.6767 74.7779 29.7003 74.7372 29.7409C74.6965 29.7816 74.6729 29.8379 74.6689 29.9039C74.6648 29.9699 74.6805 30.0433 74.7142 30.1164L76.422 31.8242L75.4542 32.792L72.7217 30.0595ZM76.9343 25.8469L77.959 24.8222L80.6915 27.5547L79.6668 28.5794L76.9343 25.8469ZM75.8527 23.7406C75.6961 23.8978 75.6083 24.1107 75.6086 24.3327C75.6089 24.5546 75.6973 24.7673 75.8544 24.9241C76.0115 25.0808 76.2244 25.1688 76.4463 25.1687C76.6682 25.1686 76.881 25.0804 77.0379 24.9235C77.1948 24.7666 77.2831 24.5538 77.2832 24.3319C77.2833 24.1099 77.1953 23.8971 77.0385 23.74C76.8817 23.5829 76.669 23.4945 76.4471 23.4942C76.2252 23.4939 76.0122 23.5817 75.855 23.7383M78.4144 24.3668L79.3822 23.399L79.8376 23.8544C79.7597 23.6454 79.7528 23.4166 79.818 23.2033C79.8833 22.9901 80.017 22.8042 80.1985 22.6746C80.38 22.545 80.5991 22.4787 80.822 22.4862C81.0449 22.4937 81.2591 22.5744 81.4316 22.7159L83.4809 24.7652L82.5132 25.733L80.8054 24.0252C80.7323 23.9915 80.6589 23.9759 80.5929 23.9799C80.5269 23.984 80.4706 24.0076 80.4299 24.0482C80.3892 24.0889 80.3656 24.1452 80.3616 24.2112C80.3575 24.2772 80.3732 24.3506 80.4069 24.4237L82.1147 26.1315L81.1469 27.0992L78.4144 24.3668ZM82.1716 20.268C83.7656 18.674 86.6688 21.5773 85.0749 23.1713C83.4809 24.7652 80.5777 21.862 82.1716 20.268ZM82.9117 21.0081C83.3102 20.6096 84.7333 22.0327 84.3348 22.4312C83.9363 22.8297 82.5132 21.4065 82.9117 21.0081ZM82.9686 17.3078L83.9933 16.2831L85.0749 18.731L84.3348 19.471L82.9686 17.3078ZM87.1812 16.9662C85.7011 17.5355 86.4981 18.1048 87.295 17.5355C88.4336 17.0801 89.7998 18.4463 88.5474 19.6987C88.13 20.0403 87.6935 20.249 87.2381 20.3249L87.0104 19.4141C88.4336 18.9018 87.7505 18.2186 86.6119 18.9018C85.2457 19.3572 84.1071 16.8524 86.8396 15.9415L87.1812 16.9662ZM75.9096 42.3557L74.7711 43.4942L70.6723 39.3955L71.8109 38.257C72.1732 37.8946 72.6647 37.691 73.1771 37.691C73.6896 37.691 74.181 37.8946 74.5434 38.257C74.9057 38.6193 75.1093 39.1108 75.1093 39.6232C75.1093 40.1356 74.9057 40.6271 74.5434 40.9894L75.9096 42.3557ZM72.6079 39.0539C72.7656 38.8962 72.9739 38.8018 73.1869 38.7917C73.3999 38.7815 73.6001 38.8564 73.7436 38.9998C73.887 39.1433 73.9619 39.3435 73.9517 39.5565C73.9416 39.7695 73.8473 39.9778 73.6895 40.1355L72.6079 39.0539ZM74.828 37.7446L75.8527 36.7199L78.6991 39.5663L77.6744 40.591L74.828 37.7446ZM73.9058 35.7977C73.7492 35.9549 73.6614 36.1679 73.6617 36.3898C73.662 36.6117 73.7504 36.8244 73.9075 36.9812C74.0646 37.138 74.2775 37.226 74.4994 37.2259C74.7213 37.2258 74.9341 37.1376 75.091 36.9806C75.2479 36.8237 75.3361 36.6109 75.3363 36.389C75.3364 36.1671 75.2484 35.9542 75.0916 35.7971C74.9348 35.6401 74.7221 35.5517 74.5002 35.5513C74.2783 35.551 74.0653 35.6388 73.9081 35.7954M76.2512 36.3214L78.4144 34.1582L79.496 37.0615L80.3499 36.2076L81.2039 37.0615L78.9837 39.2816L77.8452 36.3214L77.0482 37.1184L76.2512 36.3214ZM78.8129 33.7597L80.9761 31.5965L82.0578 34.4998L82.9117 33.6459L83.7656 34.4998L81.4885 36.7768L80.4069 33.7597L79.553 34.6136L78.8129 33.7597ZM85.0749 32.2796C85.1445 32.6054 85.1159 32.9015 84.9927 33.1306C84.8695 33.3598 84.6572 33.5119 84.3824 33.5678C84.1077 33.6237 83.7826 33.581 83.4481 33.4449C83.1135 33.3089 82.7844 33.0857 82.5019 32.8032C82.2194 32.5207 81.9962 32.1916 81.8602 31.857C81.7242 31.5225 81.6814 31.1975 81.7374 30.9227C81.7933 30.6479 81.9453 30.4356 82.1745 30.3124C82.4037 30.1892 82.6997 30.1607 83.0255 30.2302L82.684 29.8887L83.7656 28.8071L86.6119 31.6534L85.5303 32.735L85.0749 32.2796ZM84.3918 31.5965C84.4587 31.7207 84.4893 31.8313 84.4793 31.9126C84.4693 31.9938 84.4192 32.0416 84.3361 32.0492C84.253 32.0567 84.141 32.0237 84.0162 31.9547C83.8913 31.8857 83.7598 31.7843 83.6403 31.6648C83.5208 31.5453 83.4194 31.4138 83.3505 31.289C83.2815 31.1641 83.2484 31.0522 83.256 30.969C83.2635 30.8859 83.3113 30.8358 83.3926 30.8258C83.4738 30.8158 83.5844 30.8465 83.7086 30.9134L84.3918 31.5965Z" clip-rule="evenodd" fill-rule="evenodd"/>
</svg>