<?xml version="1.0" encoding="utf-8"?>
<svg xmlns="http://www.w3.org/2000/svg" fill="none" viewBox="0 0 200 40" height="40" width="200">
<path fill="black" d="M57 3H144V36.4168H57V22.9743H82.5749V18.993H57V3Z"/>
<path fill="white" d="M133.322 26.3113V22.974C133.322 22.974 134.014 18.4932 127.888 18.8024C121.882 18.6121 122.072 21.8287 122 25.1184C122 28.7174 122.621 31.2441 127.435 31.0538C132.488 31.0538 133.322 31.0538 133.322 31.0538V27.0725H127.435V22.663H128.269V26.3096L133.322 26.3113Z"/>
<path fill="white" d="M110.702 13.749V31.1014H115.634V26.8109L117.781 31.0301H123.286L119.616 24.7855L123.024 18.9214H117.781L115.563 23.093V13.749H110.702Z"/>
<path fill="white" d="M142.117 18.9214V23.0216H139.281V31.03H134.299V22.2587C134.299 22.2587 134.371 18.9214 138.017 18.9214H142.117Z"/>
<path fill="white" d="M110.01 18.9214V23.0216H107.174V31.03H102.168V22.2587C102.168 22.2587 102.239 18.9214 105.886 18.9214H110.01Z"/>
<path fill="white" d="M90.9896 18.9217H97.3056C97.3056 18.9217 101.287 18.66 101.287 22.259C101.287 25.9769 101.287 31.0303 101.287 31.0303H93.8256C93.8256 31.0303 89.3447 31.603 89.3447 27.3124C89.3447 23.4756 92.9437 23.9038 93.8256 23.9038H95.399V27.5028H96.3523V23.0219H90.9896V18.9217Z"/>
<path fill="white" d="M75.3767 23.8323V31.0302H82.194V27.8832H83.8388C83.8388 27.8832 90.3451 28.1925 90.3451 20.8756C90.3451 13.4144 85.2203 13.5588 83.7182 13.5588C82.1923 13.5588 75.375 13.5588 75.375 13.5588V18.111H83.4548V23.8561H75.375V23.8323H75.3767Z"/>
</svg>