<?xml version="1.0" encoding="utf-8"?>
<svg xmlns="http://www.w3.org/2000/svg" fill="none" viewBox="0 0 150 47" height="47" width="150">
<path fill="#1B3E90" d="M63.4818 5.76083e-05C63.4818 5.76083e-05 83.8963 7.54872 89.087 26.8742C89.0582 26.7196 74.6163 43.9112 63.943 32.2185C63.943 32.2185 56.1285 25.3946 63.4818 5.76083e-05Z"/>
<path fill="white" d="M63.7684 25.1626C63.5596 25.1626 63.3434 25.1344 63.1559 25.0401C63.0543 24.9899 62.9612 24.9182 62.8455 24.9244C62.8455 25.0119 62.8669 25.105 62.7444 25.105H62.1466C62.0952 25.105 62.0518 25.0621 62.0518 25.0119V20.1503C62.0518 20.1001 62.0952 20.0566 62.1466 20.0566H62.8234C62.8743 20.0566 62.9177 20.1001 62.9177 20.1503V21.6654C63.0543 21.6654 63.091 21.6434 63.2135 21.5926C63.4444 21.4921 63.6606 21.4419 63.9124 21.4419C64.9517 21.4419 65.5139 22.3141 65.5139 23.2805C65.5139 24.326 64.8647 25.1626 63.7684 25.1626ZM63.6318 22.0403C63.4585 22.0403 63.2852 22.0764 63.1339 22.1628C62.9674 22.2565 62.9177 22.3654 62.9177 22.5517V24.0234C62.9177 24.4491 63.2852 24.5637 63.6459 24.5637C63.9124 24.5637 64.1726 24.4632 64.36 24.2757C64.6124 24.0234 64.6485 23.6339 64.6485 23.2952C64.6485 22.624 64.3894 22.0403 63.6318 22.0403Z"/>
<path fill="white" d="M68.647 25.105H68.0486C67.9329 25.105 67.9475 25.0045 67.9537 24.9249H67.89C67.7601 24.9249 67.6585 24.9836 67.5433 25.0333C67.3051 25.1411 67.1392 25.1772 66.8795 25.1772C66.2167 25.1772 65.7109 24.8244 65.7109 24.125C65.7109 23.3827 66.2303 23.1512 66.8586 22.9418L67.6009 22.6968C67.7528 22.6465 67.8821 22.6313 67.8821 22.4371C67.8821 22.1125 67.5213 22.0403 67.2617 22.0403C66.8507 22.0403 66.4832 22.1633 66.1225 22.3361C66.0869 22.3507 66.0502 22.3722 66.0067 22.3722C65.9424 22.3722 65.9277 22.3073 65.9277 22.2565V21.8596C65.9277 21.7444 65.9706 21.7157 66.0722 21.6728C66.4685 21.5068 66.9591 21.4419 67.3847 21.4419C68.0627 21.4419 68.7407 21.6366 68.7407 22.4371V25.0118C68.7407 25.0621 68.6978 25.105 68.647 25.105ZM67.8753 23.2235L67.3271 23.4035C67.0093 23.5052 66.5769 23.6559 66.5769 24.0527C66.5769 24.4276 66.9088 24.5642 67.2334 24.5642C67.4062 24.5642 67.5862 24.5354 67.724 24.4276C67.8606 24.3198 67.8753 24.1973 67.8753 24.0307V23.2235Z"/>
<path fill="white" d="M70.7968 25.1626C70.5873 25.1626 70.3711 25.1344 70.1831 25.0401C70.0827 24.9899 69.9884 24.9182 69.8732 24.9244C69.8732 25.0119 69.8952 25.105 69.7727 25.105H69.1738C69.1235 25.105 69.0801 25.0621 69.0801 25.0119V20.1503C69.0801 20.1001 69.1235 20.0566 69.1738 20.0566H69.8512C69.902 20.0566 69.9455 20.1001 69.9455 20.1503V21.6654C70.0827 21.6654 70.1188 21.6434 70.2413 21.5926C70.4722 21.4921 70.6884 21.4419 70.9407 21.4419C71.9794 21.4419 72.5422 22.3141 72.5422 23.2805C72.5422 24.326 71.8925 25.1626 70.7968 25.1626ZM70.6596 22.0403C70.4863 22.0403 70.313 22.0764 70.1617 22.1628C69.9957 22.2565 69.9455 22.3654 69.9455 22.5517V24.0234C69.9455 24.4491 70.313 24.5637 70.6743 24.5637C70.9407 24.5637 71.2004 24.4632 71.3872 24.2757C71.6401 24.0234 71.6763 23.6339 71.6763 23.2952C71.6763 22.624 71.4166 22.0403 70.6596 22.0403Z"/>
<path fill="white" d="M75.7046 24.9611C75.4229 25.0909 74.9617 25.1626 74.6518 25.1626C73.5047 25.1626 72.8696 24.4564 72.8696 23.3319C72.8696 22.235 73.5555 21.4272 74.6806 21.4272C74.947 21.4272 75.2214 21.4628 75.4737 21.535C75.6109 21.5717 75.8271 21.6073 75.8271 21.7874V22.1775C75.8271 22.2204 75.8051 22.2633 75.7554 22.2633C75.7114 22.2633 75.6538 22.2418 75.6171 22.2204C75.3732 22.0973 75.0983 22.0262 74.8245 22.0262C74.0241 22.0262 73.7356 22.5517 73.7356 23.2952C73.7356 24.002 73.9947 24.5501 74.7816 24.5501C75.0769 24.5501 75.38 24.4705 75.6391 24.3333C75.6758 24.3119 75.7187 24.2904 75.7622 24.2904C75.8632 24.2904 75.8271 24.6946 75.8271 24.7663C75.8271 24.8956 75.8124 24.9103 75.7046 24.9611Z"/>
<path fill="white" d="M78.9579 24.8233C78.6045 25.1411 78.2071 25.2134 77.7453 25.2134C77.2847 25.2134 76.902 25.1411 76.5486 24.8233C76.1167 24.4349 75.9863 23.8789 75.9863 23.3166C75.9863 22.7465 76.1167 22.1983 76.5565 21.8088C76.9308 21.4848 77.3135 21.4272 77.7967 21.4272C78.9867 21.4272 79.5207 22.2051 79.5207 23.3302C79.5207 23.8941 79.3982 24.4349 78.9579 24.8233ZM77.76 22.0256C77.0538 22.0256 76.8517 22.7177 76.8517 23.3019C76.8517 23.8862 77.0459 24.6077 77.76 24.6077C78.46 24.6077 78.6553 23.9077 78.6553 23.3302C78.6553 22.7606 78.46 22.0256 77.76 22.0256Z"/>
<path fill="white" d="M82.6499 24.9611C82.3682 25.0909 81.9053 25.1626 81.5931 25.1626C80.4455 25.1626 79.8115 24.4564 79.8115 23.3319C79.8115 22.235 80.4963 21.4272 81.6225 21.4272C81.8906 21.4272 82.1661 21.4628 82.419 21.535C82.5562 21.5717 82.7724 21.6073 82.7724 21.7874V22.1775C82.7724 22.2204 82.7515 22.2633 82.7001 22.2633C82.6567 22.2633 82.5991 22.2418 82.5635 22.2204C82.318 22.0973 82.0425 22.0262 81.7676 22.0262C80.9648 22.0262 80.6769 22.5517 80.6769 23.2952C80.6769 24.002 80.9355 24.5501 81.7241 24.5501C82.0205 24.5501 82.3253 24.4705 82.5844 24.3333C82.6205 24.3119 82.664 24.2904 82.7075 24.2904C82.8085 24.2904 82.7724 24.6946 82.7724 24.7663C82.7724 24.8956 82.7583 24.9103 82.6499 24.9611Z"/>
<path fill="white" d="M86.1835 25.105H85.4118C85.2881 25.105 85.2752 25.0762 85.2097 24.983L84.1636 23.4617C84.1207 23.3962 84.0558 23.4109 83.983 23.4109V25.0118C83.983 25.0621 83.9401 25.105 83.8893 25.105H83.2113C83.1616 25.105 83.1182 25.0621 83.1182 25.0118V20.1508C83.1182 20.1006 83.1616 20.0565 83.2113 20.0565H83.8893C83.9401 20.0565 83.983 20.1006 83.983 20.1508V22.8842H84.0699C84.1207 22.8842 84.1422 22.8701 84.1778 22.8334L85.2667 21.6073C85.3243 21.5423 85.3542 21.4989 85.44 21.4989H86.1039C86.1468 21.4989 86.2049 21.5282 86.2049 21.5785C86.2049 21.6287 86.1535 21.6795 86.1259 21.7151L84.8704 23.0569L86.2258 24.882C86.2625 24.9249 86.2986 24.9757 86.2986 25.0333C86.2986 25.0909 86.2258 25.105 86.1835 25.105Z"/>
<path fill="#1B3E90" d="M52.1356 46.2371C52.1356 46.267 52.1152 46.2918 52.0757 46.3172C52.0356 46.3466 51.9854 46.3686 51.9227 46.39C51.8606 46.4087 51.7918 46.4267 51.7167 46.4369C51.641 46.4516 51.5677 46.4595 51.4965 46.4595C51.164 46.4595 50.9275 46.3833 50.7881 46.2303C50.6481 46.0773 50.5786 45.8549 50.5786 45.5642V43.4856C50.5786 43.4275 50.5589 43.3981 50.5194 43.3981H50.1135C50.0378 43.3981 50 43.362 50 43.2897V43.1328C50 43.0634 50.0378 43.0272 50.1135 43.0272H50.5194C50.5589 43.0272 50.5786 42.9979 50.5786 42.9471V42.2149C50.5786 42.1393 50.6153 42.1026 50.687 42.1026H50.9162C50.993 42.1026 51.0314 42.1393 51.0314 42.2149V42.9471C51.0314 42.9979 51.0534 43.0272 51.098 43.0272H52.0294C52.1006 43.0272 52.1356 43.0634 52.1356 43.1328V43.2897C52.1356 43.362 52.1006 43.3981 52.0294 43.3981H51.098C51.0534 43.3981 51.0314 43.4275 51.0314 43.4856V45.5563C51.0314 45.742 51.0703 45.8808 51.1477 45.9678C51.2256 46.0592 51.3481 46.1061 51.5168 46.1061C51.606 46.1061 51.6822 46.0987 51.7466 46.0807C51.8104 46.0666 51.864 46.0519 51.9058 46.0338C51.9481 46.0158 51.9837 45.9971 52.0125 45.9825C52.0413 45.9678 52.0644 45.9604 52.0825 45.9604C52.1181 45.9604 52.1356 45.9785 52.1356 46.0192"/>
<path fill="#1B3E90" d="M54.4909 43.3729C54.4909 43.4237 54.4666 43.4525 54.4181 43.4525C54.3961 43.4525 54.3724 43.4451 54.3481 43.4383C54.3233 43.4316 54.2939 43.4203 54.2578 43.4124C54.2228 43.4017 54.1759 43.3949 54.1183 43.3836C54.0608 43.3757 53.9896 43.3729 53.9061 43.3729C53.8259 43.3729 53.752 43.3802 53.6831 43.3949C53.6142 43.4096 53.5533 43.4383 53.4996 43.4784C53.4466 43.5185 53.4042 43.5733 53.3732 43.6388C53.3421 43.7037 53.3269 43.7878 53.3269 43.8821V46.2993C53.3269 46.3682 53.2913 46.4043 53.2208 46.4043H52.9944C52.9233 46.4043 52.8877 46.3682 52.8877 46.2993V43.1324C52.8877 43.0596 52.9216 43.0268 52.987 43.0268H53.2208C53.2783 43.0268 53.3071 43.0567 53.3071 43.1183V43.1905C53.3071 43.2272 53.3224 43.2453 53.3534 43.2453C53.398 43.2453 53.4505 43.2306 53.5098 43.2018C53.5702 43.1725 53.6374 43.1397 53.713 43.107C53.7881 43.0709 53.8699 43.0375 53.9586 43.0088C54.0478 42.9794 54.1403 42.9653 54.238 42.9653C54.3408 42.9653 54.4079 42.976 54.4418 42.9946C54.4745 43.0088 54.4909 43.0375 54.4909 43.0709"/>
<path fill="#1B3E90" d="M57.6769 46.2992C57.6769 46.3686 57.6481 46.4047 57.5888 46.4047H57.3664C57.3077 46.4047 57.2789 46.3714 57.2789 46.3065C57.2789 46.2664 57.2586 46.245 57.2179 46.245C57.1688 46.245 57.118 46.2557 57.0655 46.2771C57.0124 46.3025 56.9492 46.3251 56.877 46.3533C56.8036 46.3793 56.7183 46.4047 56.6212 46.4267C56.5236 46.4482 56.4084 46.4595 56.2758 46.4595C56.0816 46.4595 55.9004 46.4341 55.7327 46.3833C55.5645 46.3319 55.429 46.245 55.3279 46.1242C55.2749 46.0626 55.2314 45.9971 55.1981 45.9317C55.1654 45.8628 55.14 45.7826 55.1219 45.6991C55.1038 45.611 55.0925 45.5133 55.0858 45.4038C55.079 45.2949 55.0762 45.1713 55.0762 45.029V43.1328C55.0762 43.0594 55.1095 43.0272 55.1772 43.0272H55.4273C55.495 43.0272 55.5278 43.0594 55.5278 43.1328V45.2695C55.5278 45.4151 55.5425 45.5421 55.5712 45.6477C55.5995 45.7533 55.6492 45.8402 55.7197 45.9096C55.7903 45.9785 55.8829 46.0299 55.9969 46.0666C56.1109 46.1027 56.2526 46.1208 56.4197 46.1208C56.4942 46.1208 56.5789 46.11 56.6732 46.0925C56.768 46.0733 56.8527 46.0519 56.9278 46.0192C57.0288 45.9785 57.1033 45.9356 57.1519 45.891C57.2004 45.8442 57.2241 45.764 57.2241 45.6545V43.1328C57.2241 43.0594 57.2558 43.0272 57.3195 43.0272H57.5758C57.643 43.0272 57.6769 43.0594 57.6769 43.1328"/>
<path fill="#1B3E90" d="M60.4638 45.4874C60.4638 45.808 60.3667 46.0474 60.1742 46.2111C59.9817 46.3754 59.7051 46.4595 59.3461 46.4595C59.2038 46.4595 59.0858 46.4521 58.9904 46.4335C58.895 46.4194 58.803 46.3979 58.7144 46.3641C58.6207 46.3358 58.5625 46.3065 58.5377 46.2771C58.5134 46.2517 58.501 46.2156 58.501 46.1642V45.891C58.501 45.8442 58.5258 45.8182 58.5738 45.8182C58.6009 45.8182 58.6331 45.8334 58.6709 45.8628C58.7087 45.891 58.7561 45.9243 58.8137 45.9571C58.8719 45.9892 58.9402 46.0192 59.0203 46.0446C59.0994 46.0728 59.1976 46.0841 59.3133 46.0841C59.5481 46.0841 59.7198 46.0446 59.8287 45.9571C59.9371 45.8701 59.9913 45.7352 59.9913 45.5455C59.9913 45.436 59.967 45.3417 59.9179 45.2616C59.8688 45.182 59.7672 45.0877 59.6119 44.9816L59.0469 44.596C58.8561 44.469 58.7285 44.3437 58.6641 44.2246C58.5998 44.1043 58.5676 43.9694 58.5676 43.8238C58.5676 43.5658 58.6528 43.362 58.8244 43.209C58.9944 43.056 59.2529 42.9793 59.599 42.9793C59.7406 42.9793 59.8575 42.9866 59.9478 43.0047C60.0393 43.0233 60.1352 43.0526 60.238 43.0927C60.3035 43.1176 60.3469 43.1475 60.3667 43.1723C60.3876 43.1983 60.3972 43.231 60.3972 43.2711V43.5251C60.3972 43.5765 60.3752 43.6053 60.3306 43.6053C60.3035 43.6053 60.2707 43.5912 60.2306 43.5658C60.1911 43.537 60.1426 43.511 60.0844 43.4783C60.0269 43.445 59.958 43.4207 59.8784 43.3908C59.7982 43.3654 59.7051 43.3507 59.599 43.3507C59.3906 43.3507 59.2382 43.3947 59.1428 43.4783C59.048 43.5618 59 43.664 59 43.7769C59 43.8751 59.0265 43.9587 59.0802 44.0355C59.1332 44.1077 59.2309 44.1913 59.3731 44.2901L59.9648 44.6835C60.1465 44.8038 60.2752 44.9268 60.3503 45.0544C60.426 45.182 60.4638 45.3271 60.4638 45.4874Z"/>
<path fill="#1B3E90" d="M62.9192 46.2371C62.9192 46.267 62.8989 46.2918 62.8594 46.3172C62.8199 46.3466 62.7685 46.3686 62.7064 46.39C62.6443 46.4087 62.5755 46.4267 62.5004 46.4369C62.4242 46.4516 62.3513 46.4595 62.2802 46.4595C61.9472 46.4595 61.7112 46.3833 61.5718 46.2303C61.4318 46.0773 61.3623 45.8549 61.3623 45.5642V43.4856C61.3623 43.4275 61.3426 43.3981 61.3025 43.3981H60.8972C60.8215 43.3981 60.7837 43.362 60.7837 43.2897V43.1328C60.7837 43.0634 60.8215 43.0272 60.8972 43.0272H61.3025C61.3426 43.0272 61.3623 42.9979 61.3623 42.9471V42.2149C61.3623 42.1393 61.3984 42.1026 61.4707 42.1026H61.6999C61.7761 42.1026 61.8145 42.1393 61.8145 42.2149V42.9471C61.8145 42.9979 61.8371 43.0272 61.8817 43.0272H62.8131C62.8837 43.0272 62.9192 43.0634 62.9192 43.1328V43.2897C62.9192 43.362 62.8837 43.3981 62.8131 43.3981H61.8817C61.8371 43.3981 61.8145 43.4275 61.8145 43.4856V45.5563C61.8145 45.742 61.8534 45.8808 61.9313 45.9678C62.0092 46.0592 62.1317 46.1061 62.3 46.1061C62.3897 46.1061 62.4659 46.0987 62.5297 46.0807C62.5941 46.0666 62.6471 46.0519 62.6895 46.0338C62.7318 46.0158 62.7674 45.9971 62.7962 45.9825C62.825 45.9678 62.8481 45.9604 62.8656 45.9604C62.9012 45.9604 62.9192 45.9785 62.9192 46.0192"/>
<path fill="#1B3E90" d="M66.3174 44.6214C66.3174 44.701 66.2778 44.7417 66.1977 44.7417H64.0424C63.9758 44.7417 63.9425 44.7744 63.9425 44.8365C63.9425 45.226 64.0401 45.5269 64.2349 45.7533C64.4308 45.9757 64.7147 46.0846 65.0873 46.0846C65.2595 46.0846 65.4034 46.0733 65.5191 46.0479C65.6343 46.0265 65.7297 45.9971 65.8053 45.9683C65.8804 45.935 65.9391 45.9063 65.9815 45.8848C66.0232 45.8594 66.0605 45.8481 66.0915 45.8481C66.1401 45.8481 66.1644 45.878 66.1644 45.9317V46.1247C66.1644 46.1687 66.1582 46.2009 66.144 46.219C66.1311 46.2416 66.1045 46.2591 66.065 46.2743C65.772 46.3979 65.4322 46.4595 65.0472 46.4595C64.4968 46.4595 64.0937 46.3071 63.8363 46.0084C63.5789 45.7064 63.4502 45.2802 63.4502 44.7343C63.4502 44.4357 63.4858 44.1743 63.5563 43.9553C63.6275 43.7334 63.7296 43.5517 63.8629 43.4094C63.9961 43.2638 64.1558 43.1576 64.3416 43.0854C64.5278 43.0165 64.7339 42.9798 64.9608 42.9798C65.1466 42.9798 65.3221 43.0086 65.4858 43.0707C65.6495 43.1362 65.7941 43.2271 65.9182 43.3513C66.043 43.4749 66.1401 43.6352 66.2112 43.8243C66.2818 44.0134 66.3174 44.2359 66.3174 44.4905M65.8319 44.2906C65.8319 43.9954 65.7449 43.7662 65.5722 43.5985C65.3995 43.4348 65.1737 43.3513 64.8942 43.3513C64.7384 43.3513 64.6024 43.3801 64.4849 43.4348C64.3675 43.493 64.2687 43.5658 64.1886 43.6567C64.109 43.7476 64.0491 43.8497 64.0091 43.9621C63.969 44.0716 63.9492 44.1845 63.9492 44.2974C63.9492 44.32 63.9537 44.3375 63.9622 44.3482C63.9712 44.3634 63.9933 44.3702 64.0294 44.3702H65.7523C65.7788 44.3702 65.7986 44.3668 65.8116 44.355C65.8251 44.3482 65.8319 44.3267 65.8319 44.2906Z"/>
<path fill="#1B3E90" d="M69.9043 46.2992C69.9043 46.3686 69.8727 46.4047 69.8095 46.4047H69.5865C69.5272 46.4047 69.4984 46.3754 69.4984 46.3178C69.4984 46.2884 69.4781 46.2737 69.438 46.2737C69.403 46.2737 69.3635 46.2811 69.3183 46.3025C69.2749 46.3217 69.2196 46.3426 69.1529 46.3646C69.0863 46.3861 69.0039 46.4087 68.9046 46.4301C68.8052 46.4482 68.6816 46.4595 68.5359 46.4595C68.0499 46.4595 67.6717 46.3099 67.4013 46.0118C67.132 45.7171 66.9971 45.2983 66.9971 44.7631C66.9971 44.4684 67.036 44.2099 67.1134 43.9886C67.1907 43.7622 67.2991 43.5765 67.438 43.4275C67.5774 43.2813 67.7445 43.1695 67.9392 43.0933C68.1334 43.0165 68.3479 42.9798 68.5828 42.9798C68.7154 42.9798 68.8289 42.9905 68.9243 43.0086C69.0192 43.0312 69.1004 43.0487 69.1659 43.0707C69.2325 43.0961 69.285 43.1147 69.3223 43.1356C69.3596 43.1543 69.3878 43.1655 69.4053 43.1655C69.4358 43.1655 69.4521 43.1356 69.4521 43.078V41.7283C69.4521 41.6549 69.4871 41.6148 69.56 41.6148H69.8027C69.8704 41.6148 69.9043 41.6549 69.9043 41.7283M69.4521 43.7848C69.4521 43.6493 69.3776 43.5443 69.2297 43.4563C69.0812 43.3727 68.8921 43.3332 68.6624 43.3332C68.274 43.3332 67.9782 43.4489 67.7738 43.686C67.5712 43.9192 67.4696 44.2754 67.4696 44.749C67.4696 44.9528 67.491 45.1385 67.5351 45.305C67.5796 45.4699 67.6502 45.6144 67.7479 45.7352C67.845 45.8521 67.9686 45.9463 68.1188 46.0079C68.2689 46.0733 68.4507 46.1061 68.6624 46.1061C68.9017 46.1061 69.0925 46.0626 69.2359 45.9712C69.3804 45.8848 69.4521 45.7758 69.4521 45.6477V43.7848Z"/>
<path fill="#1B3E90" d="M74.3812 46.2371C74.3812 46.267 74.3614 46.2918 74.3213 46.3172C74.2818 46.3466 74.231 46.3686 74.1683 46.39C74.1068 46.4087 74.0374 46.4267 73.9623 46.4369C73.8866 46.4516 73.8127 46.4595 73.7421 46.4595C73.4091 46.4595 73.1737 46.3833 73.0337 46.2303C72.8942 46.0773 72.8248 45.8549 72.8248 45.5642V43.4856C72.8248 43.4275 72.8045 43.3981 72.765 43.3981H72.3591C72.284 43.3981 72.2456 43.362 72.2456 43.2897V43.1328C72.2456 43.0634 72.284 43.0272 72.3591 43.0272H72.765C72.8045 43.0272 72.8248 42.9979 72.8248 42.9471V42.2149C72.8248 42.1393 72.8604 42.1026 72.9326 42.1026H73.1618C73.2391 42.1026 73.277 42.1393 73.277 42.2149V42.9471C73.277 42.9979 73.2996 43.0272 73.343 43.0272H74.275C74.3456 43.0272 74.3812 43.0634 74.3812 43.1328V43.2897C74.3812 43.362 74.3456 43.3981 74.275 43.3981H73.343C73.2996 43.3981 73.277 43.4275 73.277 43.4856V45.5563C73.277 45.742 73.3159 45.8808 73.3933 45.9678C73.4706 46.0592 73.5937 46.1061 73.7625 46.1061C73.8511 46.1061 73.9273 46.0987 73.9916 46.0807C74.056 46.0666 74.1096 46.0519 74.1514 46.0338C74.1937 46.0158 74.2293 45.9971 74.2575 45.9825C74.2869 45.9678 74.3106 45.9604 74.3281 45.9604C74.3631 45.9604 74.3812 45.9785 74.3812 46.0192"/>
<path fill="#1B3E90" d="M78.0254 44.7084C78.0254 44.9709 77.9932 45.2069 77.9283 45.4225C77.8645 45.6331 77.7685 45.8194 77.6393 45.9718C77.5111 46.1282 77.3491 46.2484 77.1532 46.3325C76.9585 46.4161 76.7281 46.459 76.4628 46.459C75.9519 46.459 75.5664 46.3026 75.3044 45.9972C75.0431 45.6879 74.9121 45.2617 74.9121 44.7231C74.9121 44.4646 74.9437 44.228 75.0053 44.0135C75.0674 43.7984 75.1628 43.6133 75.292 43.4603C75.4202 43.3073 75.5816 43.1905 75.7769 43.1069C75.9717 43.02 76.2026 42.9799 76.469 42.9799C76.9833 42.9799 77.3711 43.1329 77.6331 43.4388C77.8944 43.7442 78.0254 44.1665 78.0254 44.7084ZM77.5535 44.6943C77.5535 44.4578 77.5252 44.2574 77.4699 44.0858C77.4146 43.9153 77.3389 43.773 77.2435 43.6646C77.1487 43.5551 77.0335 43.471 76.9015 43.4168C76.7682 43.366 76.6215 43.3401 76.4628 43.3401C76.3025 43.3401 76.1569 43.366 76.0259 43.4168C75.8955 43.4671 75.7826 43.5478 75.6866 43.6601C75.5918 43.773 75.5178 43.9192 75.4642 44.0937C75.4111 44.2726 75.3846 44.4832 75.3846 44.7344C75.3846 45.2069 75.4857 45.5501 75.6866 45.7646C75.8893 45.9791 76.149 46.0841 76.469 46.0841C76.6282 46.0841 76.7733 46.0593 76.9043 46.0079C77.0352 45.9532 77.1493 45.8696 77.2469 45.7573C77.3446 45.6438 77.4197 45.5021 77.4739 45.3277C77.5258 45.1533 77.5535 44.9416 77.5535 44.6943Z"/>
<path fill="#1B3E90" d="M83.3803 46.2992C83.3803 46.3686 83.3493 46.4047 83.286 46.4047H83.0625C83.0049 46.4047 82.9756 46.3754 82.9756 46.3178C82.9756 46.2884 82.9552 46.2737 82.9151 46.2737C82.8796 46.2737 82.8395 46.2811 82.7955 46.3025C82.7514 46.3217 82.6961 46.3426 82.6289 46.3646C82.5629 46.3861 82.4799 46.4087 82.3806 46.4301C82.2812 46.4482 82.1587 46.4595 82.0131 46.4595C81.5259 46.4595 81.1482 46.3099 80.8778 46.0118C80.6086 45.7171 80.4736 45.2983 80.4736 44.7631C80.4736 44.4684 80.5115 44.2099 80.5888 43.9886C80.6661 43.7622 80.7756 43.5765 80.9145 43.4275C81.054 43.2813 81.221 43.1695 81.4152 43.0933C81.6106 43.0165 81.8245 42.9798 82.0593 42.9798C82.192 42.9798 82.306 42.9905 82.4003 43.0086C82.4963 43.0312 82.5764 43.0487 82.6431 43.0707C82.7091 43.0961 82.7622 43.1147 82.7983 43.1356C82.8367 43.1543 82.8643 43.1655 82.8813 43.1655C82.9123 43.1655 82.9276 43.1356 82.9276 43.078V41.7283C82.9276 41.6549 82.9637 41.6148 83.036 41.6148H83.2793C83.347 41.6148 83.3803 41.6549 83.3803 41.7283M82.9276 43.7848C82.9276 43.6493 82.8542 43.5443 82.7068 43.4563C82.5572 43.3727 82.3698 43.3332 82.1395 43.3332C81.7506 43.3332 81.4542 43.4489 81.2504 43.686C81.0477 43.9192 80.9461 44.2754 80.9461 44.749C80.9461 44.9528 80.9681 45.1385 81.0116 45.305C81.0562 45.4699 81.1262 45.6144 81.2239 45.7352C81.3227 45.8521 81.4446 45.9463 81.5948 46.0079C81.746 46.0733 81.9273 46.1061 82.1395 46.1061C82.3777 46.1061 82.5691 46.0626 82.7125 45.9712C82.857 45.8848 82.9276 45.7758 82.9276 45.6477V43.7848Z"/>
<path fill="#1B3E90" d="M87.1469 44.6214C87.1469 44.701 87.1074 44.7417 87.0267 44.7417H84.8714C84.8048 44.7417 84.7715 44.7744 84.7715 44.8365C84.7715 45.226 84.8691 45.5269 85.0645 45.7533C85.2603 45.9757 85.5432 46.0846 85.9169 46.0846C86.089 46.0846 86.233 46.0733 86.3487 46.0479C86.4639 46.0265 86.5593 45.9971 86.6344 45.9683C86.71 45.935 86.7687 45.9063 86.8111 45.8848C86.8528 45.8594 86.8895 45.8481 86.9211 45.8481C86.9686 45.8481 86.9934 45.878 86.9934 45.9317V46.1247C86.9934 46.1687 86.9872 46.2009 86.9736 46.219C86.9612 46.2416 86.9336 46.2591 86.894 46.2743C86.6011 46.3979 86.2618 46.4595 85.8762 46.4595C85.3258 46.4595 84.9222 46.3071 84.6653 46.0084C84.4079 45.7064 84.2798 45.2802 84.2798 44.7343C84.2798 44.4357 84.3148 44.1743 84.3859 43.9553C84.457 43.7334 84.5592 43.5517 84.6919 43.4094C84.8251 43.2638 84.9849 43.1576 85.1706 43.0854C85.3574 43.0165 85.5635 42.9798 85.7893 42.9798C85.9756 42.9798 86.1511 43.0086 86.3149 43.0707C86.4786 43.1362 86.6236 43.2271 86.7473 43.3513C86.872 43.4749 86.9686 43.6352 87.0403 43.8243C87.1108 44.0134 87.1469 44.2359 87.1469 44.4905M86.6609 44.2906C86.6609 43.9954 86.5745 43.7662 86.4012 43.5985C86.2285 43.4348 86.0021 43.3513 85.7227 43.3513C85.5674 43.3513 85.4308 43.3801 85.3134 43.4348C85.1966 43.493 85.0978 43.5658 85.0182 43.6567C84.9374 43.7476 84.8787 43.8497 84.8381 43.9621C84.7986 44.0716 84.7788 44.1845 84.7788 44.2974C84.7788 44.32 84.7828 44.3375 84.7912 44.3482C84.8003 44.3634 84.8228 44.3702 84.8578 44.3702H86.5813C86.6078 44.3702 86.6282 44.3668 86.6411 44.355C86.6541 44.3482 86.6609 44.3267 86.6609 44.2906Z"/>
<path fill="#1B3E90" d="M88.4967 46.2992C88.4967 46.3687 88.4595 46.4048 88.3838 46.4048H88.171C88.0959 46.4048 88.0581 46.3687 88.0581 46.2992V41.7284C88.0581 41.655 88.0914 41.6149 88.158 41.6149H88.3974C88.464 41.6149 88.4967 41.655 88.4967 41.7284"/>
<path fill="#1B3E90" d="M90.1733 41.9502C90.1733 42.0733 90.1445 42.1608 90.0892 42.2082C90.0339 42.2556 89.9571 42.281 89.8606 42.281C89.7629 42.281 89.6862 42.2522 89.6308 42.1975C89.5749 42.1422 89.5479 42.0592 89.5479 41.9423C89.5479 41.8294 89.5749 41.7498 89.6308 41.6951C89.6862 41.6437 89.7629 41.6149 89.8606 41.6149C89.9571 41.6149 90.0339 41.6437 90.0892 41.6951C90.1445 41.7498 90.1733 41.8334 90.1733 41.9502ZM90.0802 46.2992C90.0802 46.3687 90.0446 46.4048 89.9735 46.4048H89.7539C89.6783 46.4048 89.6404 46.3687 89.6404 46.2992V43.1329C89.6404 43.06 89.676 43.0267 89.7466 43.0267H89.9735C90.0446 43.0267 90.0802 43.06 90.0802 43.1329V46.2992Z"/>
<path fill="#1B3E90" d="M93.7254 43.078C93.7254 43.0961 93.7102 43.1475 93.6791 43.2271L92.5608 46.2664C92.5309 46.346 92.5021 46.3968 92.4778 46.4228C92.4541 46.4448 92.4146 46.4595 92.3616 46.4595H92.0624C92.0087 46.4595 91.9698 46.4487 91.9461 46.4267C91.9218 46.4042 91.8924 46.346 91.8563 46.2591L90.7521 43.2203C90.7296 43.1582 90.7183 43.1176 90.7183 43.1001C90.7183 43.0481 90.7476 43.0267 90.8058 43.0267H91.1117C91.1687 43.0267 91.2071 43.0521 91.2246 43.1074L92.1747 45.8876C92.1928 45.9424 92.2137 45.9712 92.2351 45.9712C92.2577 45.9712 92.2774 45.9424 92.2955 45.8876L93.2597 43.0848C93.2732 43.0453 93.3043 43.0267 93.3528 43.0267H93.6526C93.7011 43.0267 93.7254 43.0453 93.7254 43.078Z"/>
<path fill="#1B3E90" d="M96.9984 44.6214C96.9984 44.701 96.9595 44.7417 96.8793 44.7417H94.724C94.6574 44.7417 94.6235 44.7744 94.6235 44.8365C94.6235 45.226 94.7212 45.5269 94.9165 45.7533C95.1118 45.9757 95.3958 46.0846 95.7689 46.0846C95.9411 46.0846 96.0856 46.0733 96.2008 46.0479C96.3154 46.0265 96.4108 45.9971 96.4875 45.9683C96.5626 45.935 96.6202 45.9063 96.6631 45.8848C96.7049 45.8594 96.7416 45.8481 96.7732 45.8481C96.8212 45.8481 96.846 45.878 96.846 45.9317V46.1247C96.846 46.1687 96.8392 46.2009 96.8257 46.219C96.8121 46.2416 96.7856 46.2591 96.7461 46.2743C96.4531 46.3979 96.1138 46.4595 95.7288 46.4595C95.1779 46.4595 94.7743 46.3071 94.5174 46.0084C94.2605 45.7064 94.1318 45.2802 94.1318 44.7343C94.1318 44.4357 94.1668 44.1743 94.238 43.9553C94.3091 43.7334 94.4113 43.5517 94.5434 43.4094C94.6777 43.2638 94.8363 43.1576 95.0226 43.0854C95.2089 43.0165 95.4161 42.9798 95.6419 42.9798C95.8276 42.9798 96.0026 43.0086 96.1669 43.0707C96.3312 43.1362 96.4757 43.2271 96.5999 43.3513C96.7235 43.4749 96.8212 43.6352 96.8923 43.8243C96.9629 44.0134 96.9984 44.2359 96.9984 44.4905M96.5129 44.2906C96.5129 43.9954 96.4266 43.7662 96.2538 43.5985C96.0811 43.4348 95.8542 43.3513 95.5753 43.3513C95.4201 43.3513 95.2834 43.3801 95.166 43.4348C95.0492 43.493 94.9498 43.5658 94.8697 43.6567C94.7901 43.7476 94.7302 43.8497 94.6907 43.9621C94.6501 44.0716 94.6303 44.1845 94.6303 44.2974C94.6303 44.32 94.6343 44.3375 94.6438 44.3482C94.6529 44.3634 94.6743 44.3702 94.7099 44.3702H96.4334C96.4599 44.3702 96.4802 44.3668 96.4932 44.355C96.5062 44.3482 96.5129 44.3267 96.5129 44.2906Z"/>
<path fill="#1B3E90" d="M99.4998 43.3729C99.4998 43.4237 99.4761 43.4525 99.4264 43.4525C99.4044 43.4525 99.3807 43.4451 99.357 43.4383C99.3327 43.4316 99.3016 43.4203 99.2672 43.4124C99.2316 43.4017 99.1848 43.3949 99.1266 43.3836C99.0696 43.3757 98.9985 43.3729 98.9144 43.3729C98.8348 43.3729 98.7603 43.3802 98.6908 43.3949C98.6231 43.4096 98.5621 43.4383 98.5085 43.4784C98.456 43.5185 98.4137 43.5733 98.3826 43.6388C98.351 43.7037 98.3346 43.7878 98.3346 43.8821V46.2993C98.3346 46.3682 98.2996 46.4043 98.2291 46.4043H98.0027C97.9321 46.4043 97.896 46.3682 97.896 46.2993V43.1324C97.896 43.0596 97.9304 43.0268 97.9965 43.0268H98.2291C98.2866 43.0268 98.3154 43.0567 98.3154 43.1183V43.1905C98.3154 43.2272 98.3312 43.2453 98.3617 43.2453C98.4063 43.2453 98.4588 43.2306 98.5187 43.2018C98.5785 43.1725 98.6457 43.1397 98.7207 43.107C98.797 43.0709 98.8788 43.0375 98.9669 43.0088C99.0566 42.9794 99.1486 42.9653 99.2474 42.9653C99.3491 42.9653 99.4168 42.976 99.4495 42.9946C99.4828 43.0088 99.4998 43.0375 99.4998 43.0709"/>
</svg>