<?xml version="1.0" encoding="utf-8"?>
<svg xmlns="http://www.w3.org/2000/svg" fill="none" viewBox="0 0 200 40" height="40" width="200">
<g clip-path="url(#clip0_1072_13369)">
<path fill="#778AC5" d="M65 10H70.998L73.5272 23.8241L76.0204 10H81.4041L83.8249 23.86L86.3903 10.0718H92.4244L86.8962 29.8923H80.8621L78.658 17.1813L76.5985 29.9641H70.456L65 10Z"/>
<path fill="#778AC5" d="M95.2788 10.1436H112.189V14.8833H101.313V17.3609H110.816V21.921H101.385V24.8294H112.189V30H95.3149L95.2788 10.1436Z"/>
<path fill="#778AC5" d="M115.152 10.0718H122.451L125.377 15.6014L128.449 10.0359H135.241L128.846 19.3716L136 29.8564H128.485L125.269 23.8959L121.728 29.8923H114.501L121.836 19.4434L115.152 10.0718Z"/>
</g>
<defs>
<clipPath id="clip0_1072_13369">
<rect transform="translate(65 10)" fill="white" height="20" width="71"/>
</clipPath>
</defs>
</svg>