<?xml version="1.0" encoding="utf-8"?>
<svg xmlns="http://www.w3.org/2000/svg" fill="none" viewBox="0 0 200 40" height="40" width="200">
<path fill="#FFF200" d="M135.93 0H64.0699C64.0313 0 64 0.239934 64 0.535908V39.0641C64 39.3601 64.0313 39.6 64.0699 39.6H135.93C135.969 39.6 136 39.3601 136 39.0641V0.535908C136 0.239934 135.969 0 135.93 0Z"/>
<path fill="#231F20" d="M89.4336 1.63697H97.943V18.7285C97.943 19.2082 97.8363 20.4331 97.2308 21.1935C96.6254 21.9532 96.0262 22.1977 95.4488 22.1977H80.0345C79.0194 22.1977 78.2099 21.6327 77.7468 21.2053C77.3086 20.8008 76.7172 20.0855 76.7172 18.6633V12.3556H85.5161V16.5388C85.5161 16.9116 85.6542 17.2395 85.8563 17.4176C86.0828 17.6177 86.2245 17.7378 86.7089 17.7506C87.1936 17.763 88.0654 17.7506 88.3258 17.7506C88.5861 17.7506 88.935 17.6025 89.1096 17.4413C89.2637 17.2989 89.4383 17.0692 89.4383 16.6421L89.4336 1.63697ZM113.798 9.65253H110.171L110.171 5.38931C110.171 5.38931 113.524 5.38179 113.739 5.38179C113.953 5.38179 114.812 6.15906 114.812 7.58007C114.812 9.00142 113.946 9.65253 113.798 9.65253ZM113.798 18.0104H110.171L110.171 13.747C110.171 13.747 113.524 13.7397 113.739 13.7397C113.953 13.7397 114.812 14.517 114.812 15.9381C114.812 17.3592 113.946 18.0104 113.798 18.0104ZM121.188 11.3622C121.188 11.3622 121.953 11.319 122.512 10.6828C123.028 10.096 123.062 9.26357 123.062 8.97115C123.062 8.67873 123.071 4.37722 123.071 4.37722C123.071 3.36038 122.317 2.53582 122.317 2.53582C121.582 1.79439 120.818 1.64237 120.315 1.64237L101.632 1.63599L101.631 22.1815L120.508 22.1897C120.801 22.181 121.73 22.0868 122.375 21.2439C123.02 20.4012 123.054 19.1456 123.054 18.8185C123.054 18.4918 123.063 13.974 123.063 13.8017C123.063 13.6299 123.06 12.9176 122.504 12.2049C121.953 11.4997 121.188 11.3622 121.188 11.3622ZM98.4953 29.5134V33.2612H102.157V29.5132L98.4953 29.5134ZM91.3481 24.9008V37.9634H97.1886V24.9008H91.3481ZM117.616 24.9008V37.9634H123.457V24.9008H117.616ZM115.65 24.9008V28.1287L109.461 28.1225L109.463 29.6957L114.786 29.6973V33.0763L109.46 33.0795V37.9636H103.632V24.9008H115.65ZM89.5156 37.9636H83.6885V33.0766H82.3805V37.9636H76.5294V24.9008H82.3805V29.4095H83.6886V24.9008H89.5154V37.9636M75.7676 10.6795H69.7033C68.7861 10.6795 68.2715 10.9529 67.9016 11.301C67.5431 11.6381 67.272 12.2426 67.272 12.8778L67.2723 30.0465C67.2723 30.4609 67.4489 31.0647 67.8799 31.5382C68.3114 32.0123 69.1571 32.218 69.5578 32.218H75.7676V31.0812H69.5401C68.9836 31.0812 68.8426 30.9678 68.7174 30.8425C68.5107 30.6361 68.4574 30.4139 68.4408 30.1226V12.8326C68.4408 12.4645 68.4997 12.2578 68.6411 12.0951C68.7825 11.9318 68.9762 11.848 69.2791 11.848H75.7676V10.6795Z"/>
<mask height="37" width="66" y="1" x="67" maskUnits="userSpaceOnUse" style="mask-type:luminance" id="mask0_1072_13331">
<path fill="white" d="M67.2729 1.63647V37.9646H132.728V1.63647H67.2729Z"/>
</mask>
<g mask="url(#mask0_1072_13331)">
<path fill="#231F20" d="M124.232 10.6797H130.297C131.214 10.6797 131.729 10.9532 132.098 11.3011C132.457 11.6383 132.728 12.3796 132.728 12.8779C132.728 13.3762 132.728 29.7232 132.728 30.0471C132.728 30.3714 132.551 31.0651 132.12 31.5387C131.689 32.0128 131.002 32.2184 130.602 32.2184H124.232V31.0817H130.46C131.017 31.0817 131.157 30.9682 131.283 30.8429C131.489 30.6365 131.543 30.4143 131.56 30.123V12.8328C131.56 12.4646 131.5 12.258 131.359 12.0953C131.217 11.932 131.024 11.8483 130.721 11.8483H124.232V10.6797Z"/>
</g>
</svg>