<?xml version="1.0" encoding="utf-8"?>
<!-- Generator: Adobe Illustrator 27.0.0, SVG Export Plug-In . SVG Version: 6.00 Build 0)  -->
<svg version="1.1" id="Layer_1" xmlns="http://www.w3.org/2000/svg" xmlns:xlink="http://www.w3.org/1999/xlink" x="0px" y="0px"
	 viewBox="0 0 2000 1250" style="enable-background:new 0 0 2000 1250;" xml:space="preserve">
<style type="text/css">
	.st0{fill:#C80815;}
</style>
<g>
	<g>
		<path d="M808.4,546.7l-31.3,84.9h21.8l5.3-15.6h32.1l5.3,15.6h22l-31.3-84.9H808.4z M809.5,600.3l10.8-31.5l10.6,31.5H809.5z"/>
		<path d="M934.5,564.4c4.6,0,8.6,1.1,11.9,3.4c3.3,2.3,5.8,5.4,7.4,9.3h21.9c-2.1-9.8-6.7-17.5-13.9-23.2c-7.1-5.7-16.2-8.6-27-8.6
			c-8.3,0-15.6,1.8-21.9,5.5c-6.3,3.7-11.2,8.8-14.6,15.4c-3.4,6.6-5.1,14.2-5.1,22.6c0,8.5,1.7,16,5.1,22.6
			c3.4,6.6,8.3,11.8,14.6,15.4c6.3,3.7,13.6,5.5,21.9,5.5c10.9,0,19.9-2.9,27-8.7c7.1-5.8,11.8-13.5,13.9-23.2h-21.9
			c-1.6,3.9-4.1,6.9-7.4,9.2c-3.3,2.3-7.3,3.4-11.9,3.4c-6,0-10.9-2.2-14.6-6.6c-3.7-4.4-5.6-10.3-5.6-17.7c0-7.4,1.9-13.3,5.6-17.8
			C923.6,566.6,928.5,564.4,934.5,564.4z"/>
		<polygon points="1011.6,631.6 1064.8,631.6 1064.8,615.1 1032.3,615.1 1032.3,596.1 1061.2,596.1 1061.2,580.5 1032.3,580.5 
			1032.3,562.5 1064.8,562.5 1064.8,546.1 1011.6,546.1 		"/>
		<polygon points="1156.1,599.1 1121.4,546.1 1100.8,546.1 1100.8,631.6 1121.4,631.6 1121.4,579.1 1156.1,631.6 1176.7,631.6 
			1176.7,546.1 1156.1,546.1 		"/>
		<polygon points="1209.7,562.5 1232.6,562.5 1232.6,631.6 1253.5,631.6 1253.5,562.5 1276.7,562.5 1276.7,546.1 1209.7,546.1 		"/>
		<path d="M1371,589c3.4-4.4,5.1-9.6,5.1-15.9c0-5.2-1.2-9.9-3.5-14c-2.3-4.1-5.8-7.3-10.5-9.6c-4.7-2.3-10.4-3.5-17.2-3.5h-35.3
			v85.5h20.7v-32.3h4.7l18.5,32.3h22.9l-20.3-33.6C1362.6,596.4,1367.6,593.4,1371,589z M1352.2,582.4c-1.9,1.8-5,2.7-9.1,2.7h-12.8
			v-21.7h12.8c4,0,7,1,9,2.9c2,1.9,3,4.6,3,8C1355.1,578,1354.1,580.6,1352.2,582.4z"/>
		<rect x="1410.7" y="546.1" width="20.7" height="85.5"/>
		<path d="M1518.9,546.7h-23.8l-31.3,84.9h21.8l5.3-15.6h32.1l5.3,15.6h22L1518.9,546.7z M1496.2,600.3l10.8-31.5l10.6,31.5H1496.2z
			"/>
	</g>
	<g>
		<path d="M1033.1,684.3h15.7c-0.9,3-2.5,5.3-4.7,7c-2.2,1.6-4.8,2.4-7.8,2.4c-4.6,0-8.2-1.3-10.7-3.9c-2.5-2.6-3.8-6.4-3.8-11.3
			c0-4.5,1.2-8.1,3.6-10.8c2.4-2.6,5.5-4,9.5-4c2.5,0,4.7,0.5,6.5,1.6c1.8,1.1,3.1,2.6,4,4.4h13.2c-1-5.4-3.6-9.7-7.8-12.8
			c-4.2-3.2-9.5-4.7-16-4.7c-5.1,0-9.7,1.1-13.5,3.3c-3.9,2.2-6.9,5.3-9,9.3c-2.1,4-3.2,8.5-3.2,13.6c0,5.1,1.1,9.6,3.2,13.6
			c2.1,4,5.1,7.1,9,9.3c3.9,2.2,8.4,3.3,13.6,3.3c4.3,0,8.1-0.8,11.4-2.4c3.3-1.6,6.1-3.7,8.2-6.3c2.1-2.6,3.7-5.4,4.7-8.4v-12.3
			h-26.2V684.3z"/>
		<path d="M1117.8,678.6c2.1-2.6,3.1-5.8,3.1-9.5c0-3.2-0.7-6-2.1-8.4c-1.4-2.5-3.5-4.4-6.3-5.8c-2.8-1.4-6.3-2.1-10.3-2.1h-21.3
			v51.5h12.5v-19.5h2.8l11.2,19.5h13.8l-12.2-20.3C1112.7,683,1115.7,681.2,1117.8,678.6z M1106.5,674.6c-1.2,1.1-3,1.6-5.5,1.6
			h-7.7v-13h7.7c2.4,0,4.2,0.6,5.4,1.7c1.2,1.2,1.8,2.8,1.8,4.8C1108.2,671.9,1107.6,673.5,1106.5,674.6z"/>
		<path d="M1179.5,655.3c-4-2.3-8.4-3.4-13.2-3.4c-4.8,0-9.2,1.1-13.2,3.4c-4,2.3-7.1,5.4-9.4,9.4c-2.3,4-3.5,8.5-3.5,13.6
			c0,5.1,1.2,9.6,3.5,13.6c2.3,4,5.4,7.2,9.4,9.4c4,2.3,8.3,3.4,13.2,3.4s9.2-1.1,13.2-3.4c4-2.3,7.1-5.4,9.4-9.4
			c2.3-4,3.5-8.6,3.5-13.6c0-5.1-1.1-9.6-3.4-13.6C1186.5,660.7,1183.4,657.6,1179.5,655.3z M1175.9,689.1c-2.4,2.7-5.7,4-9.7,4
			c-4.1,0-7.3-1.3-9.7-4c-2.4-2.7-3.6-6.3-3.6-10.8c0-4.6,1.2-8.2,3.6-10.8c2.4-2.6,5.6-4,9.7-4s7.3,1.3,9.7,4
			c2.4,2.7,3.6,6.3,3.6,10.8C1179.6,682.8,1178.3,686.4,1175.9,689.1z"/>
		<path d="M1243.8,682.5c0,3.4-0.8,6-2.3,7.8c-1.5,1.8-3.8,2.7-6.7,2.7c-2.9,0-5.1-0.9-6.7-2.7c-1.5-1.8-2.3-4.4-2.3-7.8v-29.7
			h-12.4v29.7c0,4.9,0.9,9,2.7,12.3c1.8,3.4,4.3,5.9,7.4,7.5c3.2,1.7,6.8,2.5,10.9,2.5c4.1,0,7.8-0.8,11.1-2.5
			c3.3-1.7,5.9-4.2,7.8-7.5c1.9-3.3,2.8-7.4,2.8-12.3v-29.7h-12.5V682.5z"/>
		<path d="M1313.4,657.3c-3.2-3-7.9-4.6-14-4.6h-20.2v51.5h12.5v-18.1h7.7c4,0,7.5-0.7,10.3-2.1c2.8-1.4,4.9-3.4,6.4-5.9
			c1.4-2.5,2.2-5.4,2.2-8.6C1318.2,664.4,1316.6,660.3,1313.4,657.3z M1298,676.2h-6.3v-13.4h6.3c5,0,7.5,2.3,7.5,6.8
			C1305.5,674,1303,676.2,1298,676.2z"/>
	</g>
</g>
<path class="st0" d="M485.6,724.8l-6.9,6.9c-10.6,10.8-29,3.3-29-11.9v0v-14.8v-34.8l20.8-21.2l17.4-17.7v34.8l58.4-59.5h55.1
	L485.6,724.8z M667.5,676.7l-3.2-6.2l-62.7-119.9v56.1l36.6,70H667.5z M449.7,488.9v146.5l38.2-38.9v-69.3h195.9v149.6h38.2V488.9
	H449.7z M531.3,713.1h190.8v-12h-179L531.3,713.1z M507.7,737.1h214.4v-12H519.5L507.7,737.1z M484.1,761.1h238v-12H495.9
	L484.1,761.1z"/>
</svg>
