<?xml version="1.0" encoding="utf-8"?>
<svg xmlns="http://www.w3.org/2000/svg" fill="none" viewBox="0 0 150 46" height="46" width="150">
<path fill="#004B87" d="M52.0767 5.08179V32.215H65.6673H66.6449L67.5758 32.122L68.5067 31.9357L69.4376 31.7031L70.2753 31.4238L71.1595 31.0982L71.9508 30.6793L72.7419 30.2137L73.4865 29.7484L74.1384 29.2365L74.7899 28.678L75.395 28.1194L76.0001 27.4679L76.5121 26.8163L77.0241 26.1181L77.443 25.3736L77.8619 24.6291L78.234 23.8379L78.5134 23.0467L78.7927 22.2089L78.9786 21.3247L79.1185 20.4869L79.2116 19.556L79.258 18.6719L79.2116 18.0203L79.1649 17.4151L79.0254 16.205L78.746 15.0416L78.3735 13.9248L77.9083 12.8077L77.3499 11.7839L76.698 10.8064L76.0001 9.87555L75.5345 9.36365L75.0225 8.85174L74.4641 8.33984L73.9057 7.92092L73.347 7.502L72.7419 7.08308L72.0904 6.71081L71.4388 6.38487L70.7873 6.10593L70.0891 5.82665L69.3908 5.64035L68.6929 5.45405L67.948 5.26809L67.2033 5.17511L66.4587 5.12845L65.6673 5.08179H52.0767ZM58.5928 11.5509H65.6673L66.412 11.5976L67.1102 11.7372L67.7617 11.8768L68.4136 12.1095L69.0651 12.4354L69.6235 12.8077L70.1822 13.1799L70.6942 13.6455L71.1595 14.1574L71.532 14.7156L71.9041 15.2742L72.1835 15.9257L72.4628 16.5773L72.6024 17.2288L72.7419 17.927V18.6715V18.6719V19.3698L72.6024 20.1146L72.4628 20.7662L72.1835 21.4177L71.9041 22.0692L71.532 22.6278L71.1595 23.186L70.6942 23.6979L70.1822 24.1169L69.6235 24.5358L69.0651 24.908L68.4136 25.1873L67.7617 25.4199L67.1102 25.6062L66.412 25.7459H65.6673H58.5928V11.5509Z"/>
<path fill="#A6192E" d="M86.1929 5.08179L85.4482 5.12845L84.7036 5.17511L83.9586 5.31475L83.2607 5.45439L82.5161 5.64035L81.8178 5.87297L81.166 6.10593L80.5145 6.43153L79.863 6.75747L79.2578 7.12974L78.6527 7.502L78.0476 7.92092L77.4892 8.38616L76.9772 8.85174L76.4652 9.36365L75.9999 9.87555C77.5044 11.9058 77.1908 11.535 75.9999 9.87555L75.3017 10.8064L74.6502 11.7839L74.0915 12.8077L73.6262 13.9248L73.2537 15.0416L72.9747 16.205L72.8348 17.4151L72.7884 18.0203L72.7417 18.6719V30.2137V32.215H79.2578V18.6719V17.927L79.3974 17.2288L79.5836 16.531L79.8166 15.8794L80.1423 15.2279L80.5145 14.6226L80.9334 14.1107L81.399 13.5988L81.911 13.1333L82.4694 12.7147L83.0745 12.3887L83.726 12.0631L84.3775 11.8302L85.0757 11.6905L85.8204 11.5976H86.565L87.2633 11.6442L87.9615 11.7839L88.613 11.9698L89.2645 12.2024L89.8696 12.5284L90.4284 12.9006L90.9404 13.3196L91.4524 13.7851L91.8712 14.297L92.2434 14.8553L92.6159 15.4605L92.8949 16.0654L93.1279 16.7169L93.2674 17.4151L93.4069 18.1133V18.8115V32.215H99.923V18.9045L99.8767 18.2063L99.8299 17.5081L99.7368 16.8102L99.6437 16.112L99.4578 15.4605L99.2715 14.8089L99.0853 14.1574L98.8059 13.5522L98.5269 12.9473L98.2475 12.3421L97.9218 11.7839L97.5493 11.1786L97.1771 10.6667L96.7583 10.1548L96.3394 9.64293L95.8738 9.13102L95.4082 8.66544L94.8965 8.24652L94.3845 7.82794L93.8725 7.45534L93.3138 7.08308L92.709 6.75747L92.1503 6.43153L91.5452 6.15225L90.8936 5.91963L90.2885 5.68701L89.637 5.50071L88.9855 5.36107L88.2872 5.26809L87.589 5.17511L86.9375 5.12845L86.1929 5.08179Z"/>
<path fill="#004B87" d="M99.2251 35.6589L98.9925 35.7056L98.7599 35.7523L98.5736 35.8452L98.4341 35.9382L98.2942 36.1245L98.2011 36.3571L98.108 36.6364V36.9157V37.195H97.596V37.7536H98.108V40.825H98.7599V37.7536H99.8766V37.195H98.7131V36.9624V36.962L98.7599 36.6364L98.853 36.4038L98.9458 36.3105L99.0389 36.2642L99.3182 36.2175L99.5509 36.2642L99.7839 36.3105L99.8766 36.3571V35.7523H99.8302L99.5509 35.7056L99.2251 35.6589ZM62.0371 35.7056V40.825H62.6889V40.2667L62.968 40.5457L63.2473 40.732L63.6195 40.8716L63.992 40.9183L64.3177 40.8716L64.6435 40.7786L64.9228 40.639L65.2022 40.4064V40.406L65.4348 40.1734L65.5744 39.8478L65.7142 39.4289L65.7606 39.01L65.7142 38.5447L65.5744 38.1721L65.4348 37.8465L65.2022 37.5672L64.9228 37.3809L64.6435 37.195L64.3177 37.1483L63.992 37.1017L63.6195 37.1483L63.2473 37.288L62.968 37.4743L62.6889 37.7999V35.7056L62.0371 35.7056ZM70.2287 35.7056V40.825H70.8803V35.7056H70.2287ZM74.3711 35.7056V37.7536L74.0918 37.4743L73.766 37.2413L73.4403 37.1483L73.0214 37.1017L72.6956 37.1483L72.4163 37.2413L72.0905 37.381L71.8579 37.5673L71.6252 37.8465L71.439 38.1721L71.2991 38.5447V39.01V39.4752V39.4756L71.439 39.8478L71.6252 40.1734L71.8579 40.4527L72.0905 40.639L72.4163 40.7787L72.6956 40.8716L73.0214 40.9183L73.3939 40.8716L73.766 40.732L74.0918 40.5457L74.3711 40.2201V40.825H74.9763V35.7056L74.3711 35.7056ZM89.7768 35.7056V37.7536L89.4978 37.4743L89.2184 37.2413L88.846 37.1483L88.4738 37.1017L88.1481 37.1483L87.8687 37.2413L87.5429 37.381L87.2636 37.5673L87.0309 37.8465L86.8911 38.1721L86.7516 38.5447L86.7052 39.01L86.7516 39.4752V39.4756L86.8911 39.8478L87.0309 40.1734L87.2636 40.4527L87.5429 40.639L87.8687 40.7787L88.1481 40.8716L88.4738 40.9183L88.846 40.8716L89.2184 40.732L89.4978 40.5457L89.7768 40.2201V40.825H90.4287V35.7056L89.7768 35.7056ZM52.1235 35.8919V40.825H53.8454L54.3574 40.7786L54.8694 40.639L55.335 40.4527L55.7072 40.1271L56.0329 39.8012L56.2659 39.3822L56.4054 38.8703L56.4522 38.3584L56.4054 37.8465L56.2659 37.381L56.0329 36.9624V36.962L55.7072 36.5898L55.335 36.3105L54.8694 36.0779L54.3574 35.9382L53.8454 35.8919L52.1235 35.8919ZM77.117 35.8919V40.825H77.7689V36.9624L80.7942 40.825H81.3062V35.8919H80.701V39.7082L77.7222 35.8919H77.117ZM57.2899 35.9382L57.1037 35.9849L57.0106 36.0779L56.9174 36.2175L56.871 36.3571L56.9174 36.4968L57.0106 36.6364L57.1037 36.7294H57.2899H57.4294L57.5689 36.6364L57.6157 36.4968L57.6621 36.3571L57.6157 36.2175L57.5689 36.0779L57.4294 35.9849L57.2899 35.9382ZM82.5161 35.9382L82.3765 35.9849L82.2834 36.0779L82.1903 36.2175L82.1439 36.3571L82.1903 36.4968L82.2834 36.6364L82.3765 36.7294H82.5161H82.7023L82.7954 36.6364L82.8885 36.4968L82.9349 36.3571L82.8885 36.2175L82.7954 36.0779L82.7023 35.9849L82.5161 35.9382ZM52.7287 36.4968H53.8454L54.2643 36.5434L54.6368 36.6364L54.9626 36.8227L55.2419 37.0087L55.4746 37.288L55.6608 37.6139L55.7539 37.9862L55.8003 38.3584V38.4051L55.7539 38.7774L55.6608 39.1496L55.4746 39.4289L55.2419 39.7082L54.9626 39.9408L54.6368 40.0804L54.2643 40.2201H53.8454H52.7287V36.4968ZM59.8963 37.1017L59.5238 37.1483L59.1981 37.2413L58.8723 37.4276L58.6397 37.6602L58.4067 37.9395L58.2672 38.2655L58.1741 38.5911L58.1277 39.01L58.1741 39.3822L58.2672 39.7545L58.4067 40.0804L58.6397 40.3597L58.9187 40.5923L59.2445 40.7786L59.5706 40.8716L59.9427 40.9183L60.4083 40.8716L60.7805 40.7786L61.1529 40.5457L61.4787 40.2201L61.1062 39.8478L61.0598 39.8941L60.8272 40.0804L60.5478 40.2201L60.2685 40.3131L59.9894 40.3597H59.7565L59.5238 40.2667L59.3376 40.1734L59.1517 40.0804L59.0118 39.8941L58.9187 39.7082L58.8256 39.5219L58.7792 39.2893H61.5718V39.2426L61.6182 39.0566L61.5718 38.6377L61.4787 38.2655L61.3392 37.8932V37.8928L61.1062 37.6139L60.8736 37.3809L60.5942 37.2413L60.2685 37.1483L59.8963 37.1017ZM67.9948 37.1017L67.6224 37.1483L67.2499 37.2413L66.9241 37.4276L66.6451 37.6602L66.4121 37.9395L66.2262 38.2655L66.1331 38.6377L66.0864 39.01L66.1331 39.4289L66.2262 39.7545L66.4121 40.0804L66.6451 40.3597L66.9241 40.5923L67.2499 40.7786L67.6224 40.8716L67.9948 40.9183L68.367 40.8716L68.7395 40.7786L69.0652 40.5923L69.3446 40.3597L69.5772 40.0804L69.7635 39.7545L69.8566 39.3822L69.903 39.01L69.8566 38.5911L69.7635 38.2655L69.5772 37.9395L69.3446 37.6602L69.0652 37.4276L68.7395 37.2413L68.4137 37.1483L67.9948 37.1017ZM92.709 37.1017L92.3368 37.1483L91.9643 37.2413L91.6386 37.4276L91.3592 37.6602L91.1266 37.9395L90.9403 38.2655L90.8476 38.6377L90.8008 39.01L90.8476 39.4289L90.9403 39.7545L91.1266 40.0804L91.3592 40.3597L91.6386 40.5923L91.9643 40.7786L92.3368 40.8716L92.709 40.9183L93.0815 40.8716L93.454 40.7786L93.7797 40.5923L94.0587 40.3597L94.2917 40.0804L94.4776 39.7545L94.5707 39.3822L94.6175 39.01L94.5707 38.5911L94.4776 38.2655L94.2917 37.9395L94.0587 37.6602L93.7797 37.4276L93.454 37.2413L93.1279 37.1483L92.709 37.1017ZM96.8514 37.1017L96.6655 37.1483L96.4325 37.195L96.2466 37.288L96.1067 37.4276L95.9205 37.5673L95.781 37.7536L95.6415 37.9395V37.1483H95.0363V40.825H95.6415V39.3822L95.6879 39.01L95.7346 38.7307L95.8741 38.4514L96.0136 38.2188L96.2466 38.0325L96.4792 37.8932L96.7119 37.7999H97.0376H97.1307V37.1017H97.0843H96.8514ZM82.1903 37.1483V40.825H82.8418H82.8422V37.1483H82.8418H82.1903ZM83.3074 37.1483L84.7036 38.9633L83.261 40.825H84.0057L85.0761 39.4289L86.1464 40.825H86.8911L85.4485 38.9633L86.8447 37.1483H86.1001L85.0761 38.4981L84.0521 37.1483H83.3074ZM56.9638 37.288V40.825H57.5689V37.288H56.9638ZM59.6633 37.6602H59.8496H60.1289L60.3152 37.7536L60.5011 37.8465L60.6409 37.9862L60.7805 38.1721L60.8736 38.3584L60.9667 38.7307H58.7792L58.8256 38.4981L58.9187 38.3118L59.0118 38.1258L59.1517 37.9395L59.2912 37.7999L59.4774 37.7069L59.6633 37.6602ZM63.8988 37.6602L64.1315 37.7069L64.3645 37.7536L64.5971 37.8932L64.7833 38.0325L64.9228 38.2655L65.016 38.4514L65.0624 38.7307L65.1091 39.01L65.0624 39.2893L65.016 39.5685L64.9228 39.7545L64.7833 39.9875L64.5971 40.1271L64.3645 40.2201L64.1315 40.3131L63.8988 40.3597L63.6662 40.3131L63.4336 40.2667L63.2473 40.1271L63.0611 39.9875L62.8748 39.8012L62.7817 39.5685L62.6889 39.2893L62.6422 39.01L62.6889 38.7774L62.7353 38.4981L62.8285 38.3118L62.968 38.0792L63.1542 37.9395L63.3868 37.7999L63.6195 37.7069L63.8988 37.6602ZM67.9948 37.6602L68.2275 37.7069L68.5068 37.7536L68.6927 37.8932L68.879 38.0325L69.0652 38.2655L69.1584 38.4981L69.2515 38.7307V39.01V39.2893L69.1584 39.5685L69.0652 39.7545L68.879 39.9875L68.7395 40.1271L68.5068 40.2667L68.2739 40.3131L67.9948 40.3597L67.7619 40.3131L67.4828 40.2667L67.2966 40.1271L67.1104 39.9408L66.9241 39.7545L66.831 39.5219L66.7382 39.2893V39.01V38.7307L66.831 38.4514L66.9241 38.2188L67.1104 38.0325L67.2966 37.8932L67.4828 37.7536L67.7155 37.7069L67.9948 37.6602ZM73.1145 37.6602L73.3471 37.7069L73.5798 37.7536L73.8127 37.8932L73.9986 38.0325L74.1385 38.2188L74.278 38.4514L74.3247 38.684V38.6844L74.3711 39.01V39.2426L74.278 39.4752V39.4756L74.1849 39.7082L74.0454 39.8942L73.8591 40.0805L73.6729 40.2201L73.3939 40.3131L73.1145 40.3597L72.8819 40.3131L72.6489 40.2201L72.463 40.1271L72.2767 39.9875L72.1369 39.7545L71.9974 39.5219L71.951 39.2893L71.9043 39.01L71.951 38.7307L71.9974 38.4514L72.1369 38.2188L72.2767 38.0325L72.463 37.8932L72.6489 37.7536L72.8819 37.7069L73.1145 37.6602ZM88.5669 37.6602L88.7996 37.7069L89.0322 37.7536L89.2184 37.8932L89.4047 38.0325L89.5906 38.2188L89.7304 38.4514L89.7768 38.684V38.6844L89.8236 39.01L89.7768 39.2426L89.7304 39.4752V39.4756L89.6373 39.7082L89.4978 39.8942L89.3116 40.0805L89.0789 40.2201L88.846 40.3131L88.5669 40.3597L88.334 40.3131L88.1013 40.2201L87.8687 40.1271L87.7292 39.9875L87.5893 39.7545L87.4498 39.5219L87.4031 39.2893L87.3567 39.01L87.4031 38.7307L87.4498 38.4514L87.5429 38.2188L87.7292 38.0325L87.8687 37.8932L88.1013 37.7536L88.334 37.7069L88.5669 37.6602ZM92.709 37.6602L92.9883 37.7069L93.221 37.7536L93.4072 37.8932L93.5935 38.0325L93.7797 38.2655L93.8728 38.4981L93.966 38.7307V39.01V39.2893L93.8728 39.5685L93.7797 39.7545L93.6399 39.9875L93.454 40.1271L93.221 40.2667L92.9883 40.3131L92.709 40.3597L92.4763 40.3131L92.2437 40.2667L92.0111 40.1271L91.8248 39.9408L91.6853 39.7545L91.5455 39.5219L91.4991 39.2893L91.4523 39.01V38.7307L91.5455 38.4514L91.6386 38.2188L91.8248 38.0325L92.0111 37.8932L92.1973 37.7536L92.43 37.7069L92.709 37.6602Z"/>
<path fill="#470A68" d="M72.7422 18.6716L72.7887 18.0201L72.8353 17.4151L72.9749 16.205L73.2542 15.0415L73.6265 13.9245L74.0919 12.8075L74.6505 11.7837L75.3021 10.8063L76.0002 9.87549L76.6984 10.8063L77.35 11.7837L77.9085 12.8075L78.3739 13.9245L78.7463 15.0415L79.0255 16.205L79.1652 17.4151L79.2117 18.0201L79.2582 18.6716L79.2117 19.5559L79.1186 20.4867L78.979 21.3245L78.7928 22.2087L78.5135 23.0465L78.2343 23.8376L77.8619 24.6288L77.443 25.3735L77.0242 26.1181L76.5122 26.8162L76.0002 27.4678L75.3952 28.1194L74.7901 28.6779L74.1385 29.2364L73.4869 29.7483L72.7422 30.2137V18.6716Z"/>
</svg>