<?xml version="1.0" encoding="utf-8"?>
<svg xmlns="http://www.w3.org/2000/svg" fill="none" viewBox="0 0 200 40" height="40" width="200">
<path fill="#007CC5" d="M46.6503 21.2045C46.6503 21.2045 42.2979 16.7621 42.2964 16.7621C42.0376 16.4905 41.6869 16.3424 41.3059 16.3424H34V19.1798H41.999C42.2989 19.1789 42.596 19.2388 42.873 19.3559C43.1501 19.4731 43.4017 19.6451 43.6132 19.8621C43.8259 20.0779 43.9945 20.3347 44.1092 20.6175C44.2239 20.9003 44.2825 21.2035 44.2816 21.5096V29.6727H47.06V22.2154C47.06 21.828 46.9148 21.4687 46.6503 21.2045ZM54.4005 16.3424C54.0211 16.3424 53.669 16.4905 53.4101 16.7621L49.0577 21.2045C48.7933 21.4686 48.6482 21.828 48.6482 22.2154V29.6727H51.4266V21.5096C51.4266 20.2245 52.4501 19.1799 53.709 19.1799H61.7067V16.3423L54.4005 16.3424ZM80.8152 16.0182C79.4698 16.0182 78.0828 16.988 77.4417 18.3788L77.4202 18.4242H77.239V16.3426H75.1303V29.673H77.3927V23.6136C77.3927 20.2188 78.8389 18.0253 81.0739 18.0253C81.557 18.0253 81.978 18.1015 82.3432 18.2381V16.1884C81.8587 16.0886 81.5023 16.0182 80.8152 16.0182ZM150.521 17.3049C149.671 16.4363 148.391 16.0152 146.604 16.0152C145.134 16.0152 143.699 16.4305 142.339 17.2418L142.456 19.1725C143.453 18.3553 144.876 17.8492 146.216 17.8492C147.361 17.8492 148.179 18.1162 148.718 18.6664C149.289 19.2473 149.555 20.1379 149.555 21.4671V21.5536L149.472 21.5477C148.508 21.4949 147.829 21.4949 146.889 21.4964C145.283 21.4949 143.124 21.9483 141.875 23.2233C141.184 23.9289 140.833 24.8166 140.833 25.8582C140.833 27.0818 141.178 28.053 141.858 28.7484C142.661 29.567 143.953 29.9999 145.595 29.9999C147.957 29.9999 149.194 28.5915 149.617 27.9855L149.64 27.9518H149.812V29.6697H151.817V21.5096C151.817 19.5701 151.395 18.1953 150.521 17.3049ZM149.555 23.2336V24.5055C149.555 25.5634 149.223 26.4656 148.598 27.1155C147.933 27.8037 146.968 28.166 145.802 28.1675C145.092 28.1675 144.355 27.8637 143.876 27.3767C143.478 26.9688 143.265 26.4495 143.265 25.8728C143.265 23.4434 146.522 23.1807 147.923 23.1807C148.184 23.1807 148.448 23.1938 148.702 23.207C148.957 23.2202 149.219 23.2334 149.476 23.2334L149.555 23.2336ZM91.7264 17.3049C90.8754 16.4363 89.5947 16.0152 87.8081 16.0152C86.3376 16.0152 84.9031 16.4305 83.5432 17.2418L83.6598 19.1725C84.6573 18.3553 86.0803 17.8492 87.4199 17.8492C88.5655 17.8492 89.3848 18.1162 89.9224 18.6664C90.493 19.2473 90.759 20.1379 90.759 21.4671V21.5536L90.6756 21.5477C89.714 21.4949 89.0341 21.4949 88.0926 21.4964C86.4886 21.4949 84.3282 21.9483 83.0804 23.2233C82.3877 23.9289 82.0368 24.8166 82.0368 25.8582C82.0368 27.0818 82.3819 28.053 83.0632 28.7484C83.8654 29.567 85.1576 29.9999 86.7989 29.9999C89.1606 29.9999 90.3981 28.5915 90.8208 27.9855L90.8452 27.9518H91.0163V29.6697H93.0228V21.5096C93.0228 19.5701 92.5973 18.1953 91.7264 17.3049ZM90.7589 23.2336V24.5055C90.7589 25.5634 90.427 26.4656 89.8017 27.1155C89.1391 27.8037 88.1717 28.166 87.0059 28.1675C86.2959 28.1675 85.5585 27.8637 85.0814 27.3767C84.6817 26.9688 84.4704 26.4495 84.4704 25.8728C84.4704 23.4434 87.7276 23.1807 89.1276 23.1807C89.3877 23.1807 89.6523 23.1938 89.9081 23.207C90.161 23.2202 90.4227 23.2334 90.6799 23.2334L90.7589 23.2336ZM105.274 17.2549C104.467 16.4319 103.304 16.0152 101.817 16.0152C99.9496 16.0152 98.2348 16.9792 97.5519 18.4155L97.5304 18.4624H97.3494V16.3453H95.1646V29.6728H97.4283V23.5122C97.4283 21.7826 97.7591 20.4107 98.4116 19.4366C99.1173 18.3832 100.168 17.8492 101.535 17.8492C103.606 17.9796 104.414 19.3544 104.414 22.7552V29.6727H106.678V21.721C106.678 19.708 106.205 18.2056 105.274 17.2549ZM127.327 21.9895C126.078 21.4069 124.898 20.8583 124.898 19.5789C124.898 18.5269 125.842 17.8492 127.304 17.8492C127.838 17.8492 129.173 18.1543 129.801 18.4947L129.989 16.5273C128.989 16.2192 128.098 16.0152 127.046 16.0152C125.536 16.0152 124.31 16.4525 123.501 17.2784C122.814 17.9798 122.466 18.9231 122.466 20.0837C122.466 22.1376 124.204 23.0047 125.737 23.7706C126.997 24.3969 128.184 24.9911 128.184 26.1456C128.184 26.668 128.016 27.1053 127.684 27.4441C127.046 28.0955 126.029 28.166 125.624 28.166C124.977 28.166 123.66 27.8828 122.664 27.2652L122.547 29.2971C123.722 29.9178 125.055 29.9999 126.088 29.9999C127.308 29.9999 128.424 29.6463 129.226 29.0007C130.136 28.2687 130.617 27.1903 130.617 25.8787C130.617 23.5212 128.87 22.7083 127.327 21.9895ZM138.509 28.1675C137.948 28.1675 137.434 27.9547 137.058 27.5733C136.616 27.1215 136.383 26.4627 136.383 25.669V18.1763H139.88V16.3426H136.383V12.4589L134.118 13.2013V16.3424H131.138V18.1763H134.117V26.1736C134.117 27.3883 134.437 28.3289 135.066 28.97C135.735 29.6536 136.754 30 138.093 30C138.858 30 139.611 29.79 140.087 29.6522V27.7434C139.621 28.0208 139.092 28.1675 138.509 28.1675ZM163.736 10V18.1704H163.561L163.538 18.1323C162.685 16.7267 161.236 16.0152 159.231 16.0152C157.701 16.0152 156.428 16.52 155.452 17.5162C154.267 18.7264 153.614 20.5883 153.614 22.7566C153.614 25.1643 154.328 27.2738 155.575 28.5445C156.52 29.5114 157.742 29.9999 159.205 29.9999C161.442 29.9999 162.964 28.879 163.643 27.8284L163.666 27.7918H163.838V29.6697H166V10H163.736ZM163.736 23.034C163.736 24.6655 163.19 26.1956 162.274 27.1303C161.602 27.8183 160.761 28.1675 159.775 28.1675C158.888 28.1675 158.117 27.833 157.488 27.1742C156.377 26.0108 156.017 24.1739 156.046 22.9562C156.01 21.2382 156.486 19.7358 157.35 18.8336C157.976 18.1807 158.784 17.8492 159.749 17.8492C160.745 17.8492 161.597 18.2028 162.28 18.8996C163.206 19.8444 163.736 21.3512 163.736 23.034ZM118.612 10V18.1704H118.437L118.414 18.1323C117.56 16.7267 116.111 16.0152 114.108 16.0152C112.575 16.0152 111.303 16.52 110.329 17.5162C109.143 18.7264 108.489 20.5883 108.489 22.7566C108.489 25.1643 109.205 27.2738 110.45 28.5445C111.395 29.5114 112.617 29.9999 114.082 29.9999C116.317 29.9999 117.839 28.879 118.518 27.8284L118.541 27.7918H118.714V29.6697H120.875V10H118.612ZM118.612 23.034C118.612 24.6655 118.065 26.1956 117.151 27.1303C116.477 27.8183 115.636 28.1675 114.651 28.1675C113.763 28.1675 112.994 27.833 112.364 27.1742C111.253 26.0108 110.892 24.1739 110.923 22.9562C110.887 21.2382 111.361 19.7358 112.226 18.8336C112.853 18.1807 113.659 17.8492 114.625 17.8492C115.621 17.8492 116.472 18.2028 117.155 18.8996C118.081 19.8444 118.612 21.3512 118.612 23.034Z"/>
</svg>