<?xml version="1.0" encoding="utf-8"?>
<svg xmlns="http://www.w3.org/2000/svg" fill="none" viewBox="0 0 200 40" height="40" width="200">
<mask height="22" width="121" y="9" x="40" maskUnits="userSpaceOnUse" style="mask-type:luminance" id="mask0_985_13371">
<path fill="white" d="M40 30.5063H161V9.00024H40V30.5063Z"/>
</mask>
<g mask="url(#mask0_985_13371)">
<path fill="#00527D" d="M40.2715 10.6639H44.1232V30.396H40.2715V10.6639ZM81.9731 30.396H94.973V26.963H85.8274V22.1677H93.6147V18.7295H85.8274V14.1009H94.973V10.6639H81.9731V30.396ZM108.166 21.8895L112.573 30.396H108.109L104.258 22.5273H101.486V30.396H97.6331V10.6639H105.365C109.388 10.6639 111.769 13.4093 111.769 16.7059C111.769 19.4775 110.076 21.1979 108.166 21.8895ZM107.918 16.7059C107.918 15.1809 106.806 14.1009 105.116 14.1009H101.486V19.3121H105.116C106.806 19.3121 107.918 18.2308 107.918 16.7059ZM120.693 22.4683H124.323V23.2176C124.323 24.2452 124.074 25.131 123.436 25.8527C122.801 26.5456 121.859 26.9617 120.693 26.9617C119.639 26.9617 118.781 26.5745 118.226 25.9354C117.478 25.1034 117.282 24.1612 117.282 20.3646C117.282 16.5668 117.478 15.6547 118.226 14.8214C118.781 14.1836 119.639 13.7689 120.693 13.7689C122.659 13.7689 123.797 14.7951 124.239 16.6507H128.12C127.595 13.324 125.264 10.3306 120.693 10.3306C118.475 10.3306 116.756 11.1062 115.372 12.4933C113.376 14.488 113.429 16.9565 113.429 20.3646C113.429 23.774 113.376 26.2412 115.372 28.2359C116.756 29.623 118.53 30.396 120.693 30.396C122.801 30.396 124.684 29.7871 126.265 28.1532C127.651 26.711 128.148 24.9919 128.148 22.1362V19.2557H120.693V22.4683ZM130.415 30.396H143.413V26.963H134.267V22.1677H142.054V18.7295H134.267V14.1009H143.413V10.6639H130.415V30.396ZM154.751 20.2819L160.484 10.6639H156.132L152.669 17.0392L149.234 10.6639H144.854L150.589 20.2819L144.466 30.396H148.873L152.669 23.5247L156.493 30.396H160.901L154.751 20.2819ZM58.2135 22.7491L50.3974 10.6639H46.9617V30.396H50.8121V18.2846L58.6282 30.396H62.0678V10.6639H58.2135V22.7491ZM75.796 22.7491L67.9838 10.6639H64.5442V30.396H68.3959V18.2846L76.2133 30.396H79.6503V10.6639H75.796V22.7491Z"/>
</g>
<mask height="21" width="121" y="10" x="40" maskUnits="userSpaceOnUse" style="mask-type:luminance" id="mask1_985_13371">
<path fill="white" d="M115.371 12.4928C113.375 14.4875 113.429 16.956 113.429 20.3654C113.429 23.7735 113.375 26.2407 115.371 28.2341C116.755 29.6239 118.53 30.3955 120.692 30.3955C122.8 30.3955 124.683 29.7866 126.263 28.1528C127.65 26.7092 128.148 24.9914 128.148 22.1371V19.2552H120.692V22.4678H124.322V23.2171C124.322 24.2434 124.073 25.1305 123.436 25.8523C122.8 26.5438 121.858 26.9599 120.692 26.9599C119.638 26.9599 118.78 26.574 118.225 25.9349C117.477 25.1029 117.283 24.1607 117.283 20.3654C117.283 16.5663 117.477 15.6529 118.225 14.8209C118.78 14.1831 119.638 13.7684 120.692 13.7684C122.658 13.7684 123.795 14.7933 124.238 16.6489H128.119C127.594 13.3248 125.264 10.3288 120.692 10.3288C118.474 10.3288 116.755 11.1057 115.371 12.4928ZM156.131 10.6634L152.668 17.0374L149.233 10.6634H144.852L150.59 20.2815L144.465 30.3955H148.872L152.668 23.5242L156.492 30.3955H160.9L154.748 20.2815L160.483 10.6634H156.131ZM130.414 10.6634V30.3955H143.412V26.9625H134.267V22.1673H142.053V18.7277H134.267V14.0991H143.412V10.6634H130.414ZM97.6321 10.6634V30.3955H101.485V22.5268H104.257L108.107 30.3955H112.572L108.166 21.889C110.076 21.1975 111.768 19.477 111.768 16.7041C111.768 13.4088 109.387 10.6634 105.364 10.6634H97.6321ZM101.485 14.0991H105.115C106.807 14.0991 107.917 15.1805 107.917 16.7041C107.917 18.229 106.807 19.3116 105.115 19.3116H101.485V14.0991ZM81.9722 10.6634V30.3955H94.972V26.9625H85.8264V22.1673H93.6138V18.7277H85.8264V14.0991H94.972V10.6634H81.9722ZM75.7951 10.6634V22.7486L67.9828 10.6634H64.5432V30.3955H68.3962V18.2841L76.2124 30.3955H79.6493V10.6634H75.7951ZM58.2126 10.6634V22.7486L50.3964 10.6634H46.962V30.3955H50.8111V18.2841L58.6273 30.3955H62.0682V10.6634H58.2126ZM40.2705 30.3955H44.1222V10.6634H40.2705V30.3955Z"/>
</mask>
<g mask="url(#mask1_985_13371)">
<path fill="#99D7EE" d="M100.669 41.2459C105.846 45.1776 122.833 57.2011 136.73 57.2024H136.734C136.947 57.2024 137.162 57.1998 137.373 57.1946C143.616 57.0279 149.431 55.3009 153.744 52.3298C158.096 49.3324 160.492 45.3404 160.492 41.0884C160.492 36.8168 158.097 32.8024 153.747 29.7828C149.403 26.7671 143.59 25.0624 137.376 24.9823C128.224 24.8616 119.218 28.9153 113.317 32.309C107.007 35.9363 102.78 39.6108 102.74 39.6475C102.047 40.1934 101.352 40.7289 100.669 41.2459ZM64.1284 24.9679C63.8043 24.9679 63.6363 24.981 63.635 24.981C50.8766 24.9823 40.508 32.208 40.508 41.0884C40.508 49.9689 50.8766 57.1946 63.6206 57.1946C63.7006 57.1972 67.9998 57.5279 75.711 54.8639C83.3868 52.2104 91.5861 47.629 100.086 41.2446C99.17 40.5412 98.653 40.116 98.6477 40.1108C78.7044 25.6975 66.3935 24.9679 64.1284 24.9679ZM64.1954 57.562C63.8122 57.562 63.614 57.5463 63.6061 57.545C50.6824 57.5463 40.1562 50.1631 40.1562 41.0884C40.1562 32.0137 50.6824 24.6306 63.6206 24.6306C63.6127 24.6306 63.7872 24.6162 64.1284 24.6162C65.4513 24.6162 69.1586 24.8327 75.0181 26.8353C82.3999 29.3602 90.4221 33.7329 98.863 39.8325C98.8761 39.843 99.4181 40.2892 100.379 41.0241C101.086 40.49 101.804 39.9362 102.514 39.3772C102.549 39.3457 106.797 35.6515 113.136 32.0072C119.077 28.5912 128.146 24.5151 137.381 24.6306C143.663 24.712 149.546 26.439 153.948 29.4928C158.395 32.5807 160.845 36.6987 160.845 41.0884C160.845 45.4598 158.394 49.5555 153.944 52.6198C149.575 55.629 143.693 57.3783 137.384 57.5463C137.168 57.5515 136.949 57.5541 136.734 57.5541H136.73C122.65 57.5541 105.482 45.3522 100.376 41.4664C91.8197 47.9046 83.56 52.524 75.8265 55.1959C69.6467 57.3324 65.6337 57.562 64.1954 57.562Z"/>
<path fill="#99D7EE" d="M100.686 39.3134C105.877 43.2543 122.848 55.2607 136.735 55.2607C136.948 55.2607 137.162 55.2581 137.373 55.2515C143.613 55.0848 149.424 53.3578 153.738 50.388C158.087 47.3933 160.482 43.4052 160.482 39.1572C160.482 34.8895 158.087 30.8778 153.74 27.8594C149.398 24.8463 143.587 23.1416 137.376 23.0616C128.226 22.9435 119.217 26.9959 113.316 30.3896C107.009 34.0155 102.788 37.6861 102.746 37.7228C102.057 38.2648 101.367 38.7976 100.686 39.3134ZM64.1298 23.0471C63.807 23.0471 63.639 23.0603 63.6377 23.0603C50.8833 23.0616 40.5185 30.282 40.5185 39.1572C40.5185 48.0311 50.8833 55.2515 63.622 55.2515C63.639 55.2528 63.8306 55.2686 64.1955 55.2686C65.6154 55.2686 69.5773 55.0389 75.7032 52.9221C83.375 50.2712 91.5705 45.6926 100.066 39.312C99.157 38.6126 98.6452 38.1913 98.64 38.1874C78.6992 23.7768 66.3936 23.0471 64.1298 23.0471ZM64.1955 55.6426C63.8123 55.6426 63.6141 55.6255 63.6062 55.6255C50.6772 55.6255 40.1445 48.2385 40.1445 39.1572C40.1445 30.0759 50.6772 22.6876 63.622 22.6876C63.6141 22.6876 63.7886 22.6731 64.1298 22.6731C65.4527 22.6731 69.1613 22.8883 75.0221 24.8936C82.4039 27.4185 90.4275 31.7911 98.8683 37.8908C98.8827 37.9026 99.4221 38.3462 100.377 39.0785C101.084 38.5443 101.799 37.9919 102.507 37.4354C102.541 37.4052 106.791 33.7097 113.129 30.0654C119.071 26.6481 128.142 22.5681 137.381 22.6876C143.666 22.7689 149.551 24.4959 153.953 27.5523C158.404 30.6429 160.856 34.7635 160.856 39.1572C160.856 43.5312 158.403 47.6295 153.949 50.6964C149.578 53.7069 143.695 55.4575 137.384 55.6255C137.168 55.6321 136.952 55.6347 136.735 55.6347C122.655 55.6347 105.49 43.4393 100.376 39.547C91.8185 45.9852 83.5588 50.6033 75.8252 53.2765C69.6455 55.4116 65.6338 55.6426 64.1955 55.6426Z"/>
<path fill="#99D7EE" d="M100.721 37.3812C105.936 41.3379 122.874 53.3063 136.734 53.3076C136.938 53.3128 137.16 53.3049 137.371 53.2997C143.607 53.133 149.415 51.4073 153.724 48.4389C158.068 45.4481 160.459 41.4652 160.459 37.2251C160.459 32.9653 158.068 28.9587 153.727 25.9443C149.39 22.9326 143.581 21.2305 137.374 21.1504C128.23 21.0336 119.225 25.0835 113.326 28.4758C107.02 32.1018 102.801 35.771 102.759 35.8078C102.076 36.3445 101.394 36.872 100.721 37.3812ZM64.1307 21.136C63.8078 21.136 63.6399 21.1491 63.6385 21.1491C50.8933 21.1504 40.539 28.3616 40.539 37.2251C40.539 46.0885 50.8933 53.2997 63.6215 53.2997C63.6399 53.2997 63.8301 53.3154 64.1937 53.3154C65.6123 53.3154 69.5715 53.0871 75.6948 50.9703C83.3575 48.3234 91.5451 43.7499 100.033 37.3786C99.1355 36.6896 98.6316 36.2749 98.6264 36.271C78.6935 21.8656 66.3931 21.136 64.1307 21.136ZM64.1937 53.7314C63.8105 53.7314 63.6123 53.7157 63.6031 53.7144C50.6649 53.7157 40.123 46.3181 40.123 37.2251C40.123 28.132 50.6649 20.7344 63.6215 20.7344C63.6123 20.7344 63.7895 20.72 64.1307 20.72C65.4535 20.72 69.1674 20.9365 75.0308 22.9418C82.4139 25.4667 90.4388 29.8406 98.8796 35.9416C98.8954 35.9534 99.4295 36.393 100.377 37.1201C101.079 36.5899 101.79 36.0413 102.494 35.4875C102.527 35.4574 106.777 31.7606 113.118 28.1149C118.975 24.7475 127.869 20.7318 136.975 20.7318C137.11 20.7318 137.244 20.7331 137.381 20.7344C143.669 20.8158 149.559 22.5441 153.964 25.6031C158.421 28.6963 160.875 32.8248 160.875 37.2251C160.875 41.6056 158.42 45.7105 153.96 48.7814C149.585 51.7945 143.698 53.5464 137.383 53.7157C137.169 53.7209 136.951 53.7236 136.736 53.7236H136.734C122.66 53.7236 105.507 41.5452 100.376 37.6411C91.8206 44.0754 83.5635 48.6921 75.8313 51.364C69.6477 53.5005 65.6333 53.7314 64.1937 53.7314Z"/>
<path fill="#99D7EE" d="M100.754 35.448C105.993 39.4204 122.899 51.3533 136.735 51.3533C136.946 51.3533 137.16 51.3507 137.371 51.3454C143.604 51.1788 149.408 49.4544 153.714 46.4885C158.051 43.5017 160.439 39.5254 160.439 35.2931C160.439 31.0386 158.051 27.0373 153.715 24.0281C149.381 21.019 143.577 19.3169 137.374 19.2369C137.24 19.2355 137.108 19.2342 136.974 19.2342C127.965 19.2342 119.146 23.2184 113.335 26.5596C107.032 30.1842 102.814 33.8522 102.772 33.8889C102.096 34.4217 101.42 34.9427 100.754 35.448ZM64.1282 19.2224C63.8067 19.2224 63.64 19.2355 63.6387 19.2369H63.619C50.9039 19.2369 40.5602 26.4402 40.5602 35.2931C40.5602 44.1447 50.9039 51.3454 63.619 51.3454L63.6387 51.3467C63.64 51.3467 63.829 51.3612 64.1925 51.3612C65.6098 51.3612 69.5664 51.1328 75.6884 49.0174C83.3432 46.373 91.5203 41.8075 99.9979 35.4453C99.116 34.7669 98.6186 34.3574 98.6134 34.3535C78.6858 19.9534 66.3893 19.2224 64.1282 19.2224ZM64.1925 51.8179C63.8513 51.8179 63.6558 51.8061 63.6098 51.8021C50.648 51.7982 40.1035 44.3941 40.1035 35.2931C40.1035 26.1909 50.648 18.7841 63.6098 18.7802C63.6531 18.7775 63.8264 18.767 64.1282 18.767C65.4523 18.767 69.1675 18.9823 75.0336 20.9888C82.4206 23.515 90.4481 27.8903 98.8916 33.9926C98.9086 34.0057 99.4375 34.4414 100.377 35.1606C101.074 34.633 101.781 34.0884 102.481 33.5385C102.514 33.5084 106.766 29.8102 113.108 26.1633C119.054 22.7447 128.129 18.6621 137.379 18.7802C143.673 18.8615 149.567 20.5925 153.975 23.6528C158.438 26.7512 160.896 30.885 160.896 35.2931C160.896 39.6802 158.437 43.7904 153.972 46.8652C149.594 49.8796 143.703 51.6328 137.383 51.8021C123.196 52.1853 105.601 39.7078 100.376 35.7341C91.8221 42.1631 83.5676 46.7772 75.8367 49.4491C69.6504 51.5869 65.6321 51.8179 64.1925 51.8179Z"/>
<path fill="#99D7EE" d="M100.79 33.515C106.133 37.5635 123.444 49.7668 137.371 49.3928C143.599 49.2261 149.398 47.5031 153.701 44.5398C158.033 41.5556 160.419 37.5858 160.419 33.3602C160.419 29.1122 158.034 25.1188 153.704 22.1123C149.372 19.1057 143.573 17.4063 137.375 17.3262C137.239 17.3249 137.107 17.3236 136.973 17.3236C127.968 17.3236 119.154 21.3052 113.345 24.6463C107.044 28.2697 102.829 31.9363 102.786 31.973C102.116 32.4993 101.448 33.015 100.79 33.515ZM64.13 17.3118C63.8098 17.3118 63.6431 17.3249 63.6418 17.3262H63.6208C50.9162 17.3262 40.5804 24.519 40.5804 33.3602C40.5804 42.2 50.9162 49.3928 63.6208 49.3928H63.6418C63.6444 49.3928 63.8321 49.4085 64.1943 49.4085C65.609 49.4085 69.563 49.1802 75.6824 47.0661C83.3279 44.423 91.4971 39.864 99.9656 33.5124C99.0955 32.8431 98.606 32.4402 98.6007 32.4363C78.6784 18.0414 66.3911 17.3118 64.13 17.3118ZM64.1943 49.9072C63.8557 49.9072 63.6602 49.8941 63.6116 49.8902C50.6367 49.8875 40.083 42.4729 40.083 33.3602C40.083 24.2461 50.6367 16.8315 63.6116 16.8275C63.6562 16.8249 63.8295 16.8131 64.13 16.8131C65.4554 16.8131 69.1719 17.0309 75.0419 19.0375C82.4303 21.5637 90.4591 25.939 98.9039 32.0413C98.9223 32.0557 99.4472 32.4875 100.379 33.2014C101.071 32.6778 101.773 32.1358 102.468 31.5885C102.501 31.561 106.753 27.8615 113.097 24.2133C118.957 20.8432 127.858 16.8249 136.973 16.8249C137.11 16.8249 137.243 16.8262 137.381 16.8275C143.678 16.9089 149.575 18.6398 153.989 21.7028C158.457 24.8051 160.918 28.9442 160.918 33.3602C160.918 37.7551 158.456 41.8706 153.985 44.9493C149.603 47.9676 143.708 49.7222 137.384 49.8902C137.169 49.8967 136.952 49.8994 136.735 49.8994C122.67 49.8994 105.54 37.7525 100.376 33.8273C91.8265 40.2538 83.5733 44.8653 75.8451 47.5372C69.6549 49.6763 65.6352 49.9072 64.1943 49.9072Z"/>
<path fill="#99D7EE" d="M100.825 31.5829C106.109 35.5855 122.95 47.4489 136.735 47.4475C136.948 47.4475 137.16 47.4449 137.37 47.4397C143.595 47.2743 149.391 45.5512 153.692 42.5893C158.016 39.6104 160.399 35.6458 160.399 31.4267C160.399 27.1879 158.017 23.1998 153.693 20.1972C149.363 17.1933 143.568 15.4938 137.374 15.4151C137.24 15.4138 137.108 15.4125 136.974 15.4125C127.974 15.4125 119.163 19.3927 113.356 22.7313C107.057 26.3546 102.843 30.0199 102.801 30.0567C102.138 30.5776 101.477 31.0881 100.825 31.5829ZM64.1295 15.4006C63.8093 15.4006 63.6439 15.4138 63.6426 15.4138L63.6203 15.4151C50.9275 15.4151 40.6022 22.5987 40.6022 31.4267C40.6022 40.256 50.9275 47.4397 63.6203 47.4397H63.6426C63.6439 47.4397 63.8329 47.4554 64.1938 47.4554C65.6085 47.4554 69.5599 47.2271 75.6753 45.1142C83.313 42.4738 91.4717 37.9214 99.931 31.5803C99.074 30.9202 98.5924 30.5238 98.5871 30.5199C78.6726 16.1303 66.3893 15.4006 64.1295 15.4006ZM64.1938 47.9961C63.8552 47.9961 63.6597 47.983 63.6098 47.979C50.6244 47.9751 40.0615 40.5513 40.0615 31.4267C40.0615 22.3021 50.6244 14.8783 63.6098 14.8757C63.6558 14.8718 63.8303 14.8613 64.1295 14.8613C65.4563 14.8613 69.1767 15.0778 75.0493 17.0857C82.4403 19.6119 90.4704 23.9885 98.9178 30.0921C98.9349 30.1065 99.4559 30.5343 100.378 31.243C101.067 30.722 101.766 30.184 102.456 29.6407C102.487 29.6131 106.742 25.9123 113.087 22.2641C119.038 18.8416 128.125 14.7537 137.382 14.8757C143.682 14.9558 149.584 16.688 154 19.7536C158.475 22.8599 160.938 27.0055 160.938 31.4267C160.938 35.8296 158.474 39.9516 153.997 43.0342C149.613 46.0552 143.713 47.8111 137.385 47.979C137.169 47.9856 136.952 47.9882 136.735 47.9882C122.676 47.9882 105.557 35.8571 100.377 31.9215C91.83 38.344 83.5794 42.9542 75.8525 45.6247C69.6583 47.7638 65.636 47.9961 64.1938 47.9961Z"/>
<path fill="#99D7EE" d="M100.858 29.6505C106.168 33.6688 122.973 45.4928 136.732 45.4928C136.949 45.4941 137.158 45.4902 137.369 45.4849C143.59 45.3183 149.381 43.5978 153.678 40.6398C157.998 37.6648 160.377 33.7055 160.377 29.493C160.377 25.2607 157.999 21.2792 153.68 18.2818C149.356 15.2805 143.565 13.5824 137.373 13.5036C137.239 13.501 137.107 13.501 136.974 13.501C127.978 13.501 119.17 17.4787 113.366 20.8172C107.068 24.4379 102.855 28.1019 102.815 28.1387C102.157 28.6557 101.504 29.161 100.858 29.6505ZM64.1287 13.4892C63.8111 13.4892 63.6471 13.5023 63.6457 13.5023L63.6208 13.5036C50.9398 13.5036 40.6224 20.6768 40.6224 29.493C40.6224 38.3105 50.9398 45.4849 63.6208 45.4849H63.6457C63.6471 45.4849 63.8347 45.5007 64.1943 45.5007C65.609 45.5007 69.5578 45.2723 75.6705 43.1608C83.2978 40.5243 91.446 35.9785 99.8947 29.6478C99.1086 29.0415 98.6441 28.6623 98.5811 28.6098C78.6613 14.2175 66.3872 13.4892 64.1287 13.4892ZM64.1943 46.082C63.857 46.082 63.6602 46.0702 63.6103 46.0663C50.6131 46.0623 40.041 38.6294 40.041 29.493C40.041 20.3579 50.6131 12.9262 63.6103 12.921C63.6576 12.917 63.8321 12.9065 64.1287 12.9065C65.4567 12.9065 69.1798 13.1231 75.0551 15.1322C82.4474 17.6611 90.4801 22.0377 98.9288 28.1439L98.9433 28.1557C98.9485 28.1597 99.4629 28.5835 100.378 29.2843C101.063 28.7659 101.756 28.2305 102.442 27.6912C102.473 27.6636 106.729 23.9615 113.076 20.312C119.03 16.8894 128.115 12.8055 137.381 12.921C143.687 13.0023 149.592 14.7359 154.012 17.8028C158.491 20.913 160.958 25.0652 160.958 29.493C160.958 33.9037 158.49 38.0323 154.008 41.1188C149.62 44.1411 143.717 45.897 137.385 46.0663C137.17 46.0715 136.951 46.0755 136.734 46.0755C122.679 46.0755 105.572 33.9614 100.375 30.0153C91.8318 36.4338 83.5852 41.0414 75.8608 43.7107C69.664 45.8511 65.6378 46.082 64.1943 46.082Z"/>
<path fill="#99D7EE" d="M100.893 27.7188C106.225 31.7516 123.002 43.5402 136.735 43.5402C136.948 43.5402 137.159 43.5375 137.369 43.531C143.585 43.3656 149.373 41.6465 153.667 38.6898C157.98 35.7187 160.356 31.766 160.356 27.5613C160.356 23.3357 157.982 19.3606 153.668 16.3659C149.346 13.3673 143.56 11.6704 137.374 11.5917C128.248 11.4749 119.267 15.5168 113.377 18.9026C107.08 22.5233 102.869 26.186 102.829 26.2228C102.178 26.7346 101.532 27.2346 100.893 27.7188ZM64.1295 11.5772C63.8132 11.5772 63.6492 11.5904 63.6479 11.5904L63.6216 11.5917C50.9512 11.5917 40.6442 18.7556 40.6442 27.5613C40.6442 36.367 50.9512 43.531 63.6216 43.531L63.6479 43.5323C63.6492 43.5323 63.8369 43.548 64.1951 43.548H64.1964C66.6321 43.548 79.7461 42.7816 99.8614 27.7162C99.0898 27.1217 98.6318 26.7477 98.5688 26.6952C78.6543 12.3056 66.3867 11.5772 64.1295 11.5772ZM64.1964 44.1714H64.1951C63.8592 44.1714 63.6623 44.1583 63.6098 44.1556C50.6008 44.1504 40.0195 36.7082 40.0195 27.5613C40.0195 18.4144 50.6008 10.9723 63.6098 10.9683C63.6597 10.9644 63.8342 10.9539 64.1295 10.9539C65.4589 10.9539 69.1833 11.1704 75.0625 13.1809C82.4561 15.7097 90.4901 20.0877 98.9415 26.1952L98.9572 26.207C98.9625 26.2123 99.4716 26.6309 100.378 27.3264C101.058 26.812 101.747 26.2792 102.43 25.7425C102.46 25.7162 106.717 22.0128 113.066 18.362C118.935 14.988 127.847 10.9657 136.975 10.9657C137.112 10.9657 137.246 10.9657 137.382 10.9683C143.692 11.0484 149.601 12.7846 154.024 15.8541C158.509 18.9682 160.98 23.1257 160.98 27.5613C160.98 31.9786 158.508 36.1124 154.02 39.2042C149.629 42.2278 143.722 43.9863 137.386 44.1556C137.171 44.1609 136.953 44.1635 136.735 44.1635C122.684 44.1635 105.588 32.0678 100.376 28.1099C91.8352 34.5245 83.5899 39.1294 75.8682 41.7987C69.6701 43.9404 65.6413 44.1714 64.1964 44.1714Z"/>
<path fill="#99D7EE" d="M100.928 25.7868C106.28 29.834 123.027 41.5885 136.734 41.5898C136.943 41.5937 137.158 41.5872 137.369 41.5819C143.582 41.4153 149.365 39.6961 153.655 36.7421C157.964 33.7749 160.336 29.8288 160.336 25.6307C160.336 21.4116 157.964 17.4418 153.657 14.4523C149.338 11.4537 143.556 9.75945 137.373 9.6794C128.258 9.55997 119.283 13.6006 113.4 16.9812C107.102 20.6019 102.883 24.2711 102.841 24.3065C102.199 24.8131 101.56 25.3065 100.928 25.7868ZM64.1287 9.66496C63.8124 9.66496 63.6484 9.67809 63.6471 9.67809L63.6195 9.6794C50.9622 9.6794 40.6644 16.8355 40.6644 25.6307C40.6644 34.4258 50.9622 41.5806 63.6195 41.5806L63.6471 41.5819C63.6497 41.5819 63.836 41.5977 64.193 41.5977C65.605 41.5977 69.5486 41.3693 75.6535 39.2604C83.265 36.6305 91.3974 32.0965 99.8278 25.7829C99.0706 25.1989 98.6218 24.8328 98.5561 24.779C78.6482 10.3933 66.3859 9.66496 64.1287 9.66496ZM64.193 42.2617C63.8583 42.2617 63.6615 42.2499 63.6077 42.246C50.5882 42.2407 39.999 34.7894 39.999 25.6307C39.999 16.4707 50.5882 9.0193 63.6077 9.01536C63.6589 9.01143 63.8334 9.00092 64.1287 9.00092C65.4594 9.00092 69.1877 9.21746 75.0695 11.2292C82.4658 13.7581 90.5011 18.1373 98.9538 24.2462L98.9695 24.2593C98.9748 24.2632 99.48 24.6792 100.379 25.3695C101.056 24.8564 101.74 24.3288 102.417 23.796C102.446 23.7698 106.706 20.0651 113.056 16.4129C119.014 12.9864 128.111 8.88938 137.382 9.01536C143.695 9.09673 149.609 10.8329 154.036 13.9064C158.527 17.0231 161 21.1871 161 25.6307C161 30.0532 158.525 34.1936 154.032 37.2893C149.638 40.3155 143.726 42.0754 137.386 42.246C137.171 42.2512 136.953 42.2538 136.737 42.2538H136.734C122.69 42.2538 105.606 30.1726 100.376 26.2028C91.8371 32.6162 83.593 37.2198 75.87 39.889C69.6706 42.0308 65.6392 42.2617 64.193 42.2617Z"/>
</g>
</svg>