<?xml version="1.0" encoding="utf-8"?>
<svg xmlns="http://www.w3.org/2000/svg" fill="none" viewBox="0 0 200 40" height="40" width="200">
<path stroke-linejoin="round" stroke-miterlimit="2.613" stroke-width="2" stroke="black" fill="#F2CA30" d="M89.1593 4.52441H142.435C149.089 4.52441 151.93 9.96466 148.751 16.6131L145.43 23.5577C142.251 30.2062 134.205 35.6462 127.552 35.6462H74.2763C67.6235 35.6462 64.7812 30.2063 67.9609 23.5577L71.2819 16.6131C74.4616 9.96427 82.5063 4.52441 89.1593 4.52441Z" clip-rule="evenodd" fill-rule="evenodd"/>
<path fill="black" d="M55.8037 15.9199C55.4381 16.6398 54.7914 16.5111 54.284 16.0813C53.6373 16.2116 52.1686 16.5217 51.9245 17.1435C51.8203 17.4093 51.7237 17.678 51.6347 17.9492L43.428 10.7595L43 12.823L43.6356 14.2669C44.6947 16.0259 46.55 17.7199 48.8677 19.4456C49.0367 19.586 48.7867 18.5834 49.2813 18.9459L50.9989 20.266C50.8073 21.0678 50.6208 21.9102 50.4042 22.8022C50.2785 23.3198 50.4008 23.698 50.8245 23.9655C51.2525 24.2357 51.7084 24.4609 52.1502 24.7088V27.8432C52.1502 28.3244 52.5221 28.5439 53.1848 28.5745V29.4904C53.1882 29.8664 53.3859 30.0891 53.8637 30.0721V34.5811C51.3748 36.4278 52.2913 37.0893 53.2818 36.6959C54.1009 36.308 55.0784 35.4962 55.7391 35.5327C56.3605 35.567 56.9499 36.0096 57.6035 36.3045C58.6895 36.794 59.4163 36.0339 58.613 35.2994C58.2134 34.9342 57.9375 34.7248 57.6142 34.4662C57.6896 33.0659 57.7649 31.6658 57.8405 30.2659C58.2184 30.2677 58.3865 30.0496 58.3902 29.5226V28.4867C59.7154 28.4813 59.5575 27.8742 59.5542 26.9376C59.571 26.9182 59.5878 26.8991 59.605 26.8799L60.9603 27.9215C61.8825 28.6146 62.8306 29.1801 63.8162 29.5599C63.406 28.6779 62.8369 27.7932 61.9513 26.9871L60.5912 25.7957C60.7984 25.5185 60.9461 25.2295 60.9698 24.9052C61.1102 22.9854 61.2564 20.3132 60.6962 19.1006C60.3431 18.3361 58.9648 16.8756 58.0993 16.1135C57.4905 16.6656 57.0374 16.5973 56.7089 15.9197L55.8037 15.9199ZM44.8703 15.2237L45.0775 15.0093C45.0938 14.9927 45.1159 14.9832 45.1392 14.9828C45.1624 14.9824 45.1849 14.9911 45.2017 15.0071L48.6954 18.2848C48.7121 18.301 48.7217 18.3232 48.7221 18.3465C48.7224 18.3697 48.7136 18.3922 48.6974 18.409L48.4902 18.6233C48.4739 18.6399 48.4517 18.6494 48.4285 18.6498C48.4052 18.6501 48.3828 18.6413 48.366 18.6253L44.8723 15.3476C44.864 15.3396 44.8574 15.3301 44.8528 15.3195C44.8482 15.3089 44.8458 15.2976 44.8456 15.2861C44.8454 15.2746 44.8475 15.2631 44.8517 15.2524C44.856 15.2417 44.8623 15.2319 44.8703 15.2237Z" clip-rule="evenodd" fill-rule="evenodd"/>
<path fill="black" d="M56.3914 4.11035C59.4757 4.11035 61.9915 6.6245 61.9915 9.70693C61.9915 12.7894 59.4757 15.3035 56.3914 15.3035C53.3068 15.3035 50.791 12.7894 50.791 9.70693C50.7912 6.6245 53.307 4.11035 56.3914 4.11035Z" clip-rule="evenodd" fill-rule="evenodd"/>
<path fill="white" d="M54.2074 32.0244V30.3768C54.2074 30.1415 54.4002 29.9488 54.6356 29.9488H55.1282C55.3636 29.9488 55.5564 30.1421 55.5564 30.3768V32.0244C55.5558 32.1377 55.5105 32.2462 55.4303 32.3263C55.3501 32.4064 55.2416 32.4517 55.1282 32.4523H54.6356C54.5222 32.4518 54.4136 32.4065 54.3334 32.3264C54.2532 32.2462 54.2079 32.1377 54.2074 32.0244ZM55.9418 32.0244V30.3768C55.9418 30.1415 56.1346 29.9488 56.37 29.9488H56.8624C57.0979 29.9488 57.2906 30.1421 57.2906 30.3768V32.0244C57.29 32.1377 57.2447 32.2462 57.1645 32.3263C57.0843 32.4064 56.9758 32.4517 56.8624 32.4523H56.37C56.2566 32.4518 56.1479 32.4066 56.0677 32.3264C55.9875 32.2463 55.9422 32.1377 55.9418 32.0244ZM54.5961 6.58423C55.7038 6.58423 56.6072 7.48709 56.6072 8.59405C56.6072 9.70101 55.7038 10.6039 54.5961 10.6039C53.4884 10.6039 52.585 9.70101 52.585 8.59405C52.5848 7.48709 53.4884 6.58423 54.5961 6.58423Z" clip-rule="evenodd" fill-rule="evenodd"/>
<path fill="black" d="M54.9477 30.8291C55.0842 30.8291 55.1655 30.9957 55.129 31.2001C55.0925 31.4046 54.9515 31.5713 54.815 31.5713C54.6786 31.5713 54.5972 31.4046 54.6337 31.2001C54.6703 30.9957 54.8113 30.8291 54.9477 30.8291ZM56.6818 30.8291C56.8182 30.8291 56.8996 30.9957 56.8631 31.2001C56.8265 31.4046 56.6855 31.5713 56.5491 31.5713C56.4126 31.5713 56.3313 31.4046 56.3678 31.2001C56.4043 30.9957 56.5453 30.8291 56.6818 30.8291Z" clip-rule="evenodd" fill-rule="evenodd"/>
<path fill="#F2CA30" d="M53.9926 28.4507H55.0418C55.2772 28.4507 55.47 28.6434 55.47 28.8787V29.2853C55.4697 29.3987 55.4244 29.5073 55.3442 29.5875C55.264 29.6677 55.1553 29.7129 55.0418 29.7132H53.9926C53.8791 29.7129 53.7704 29.6677 53.6902 29.5875C53.61 29.5073 53.5647 29.3987 53.5644 29.2853V28.8787C53.5644 28.6434 53.7571 28.4507 53.9926 28.4507ZM54.2496 33.9287V33.1583C54.2496 32.9232 54.4423 32.7303 54.6778 32.7303H55.0847C55.3201 32.7303 55.5129 32.9236 55.5129 33.1583V33.9287C55.5129 34.1636 55.3197 34.3566 55.0847 34.3566H54.6778C54.5643 34.3562 54.4557 34.311 54.3754 34.2308C54.2952 34.1507 54.25 34.0421 54.2496 33.9287ZM55.984 33.9287V33.1583C55.984 32.9232 56.1767 32.7303 56.4122 32.7303H56.8191C57.0545 32.7303 57.2473 32.9236 57.2473 33.1583V33.9287C57.2473 34.1636 57.0541 34.3566 56.8191 34.3566H56.4122C56.2987 34.3562 56.1901 34.311 56.1098 34.2308C56.0296 34.1507 55.9844 34.0421 55.984 33.9287ZM56.5192 28.4507H57.5685C57.8041 28.4507 57.9967 28.6434 57.9967 28.8787V29.2853C57.9963 29.3987 57.9511 29.5073 57.8708 29.5875C57.7906 29.6677 57.6819 29.7129 57.5685 29.7132H56.5192C56.4058 29.7129 56.2971 29.6677 56.2168 29.5875C56.1366 29.5073 56.0914 29.3987 56.091 29.2853V28.8787C56.091 28.6434 56.2838 28.4507 56.5192 28.4507ZM59.0726 21.2496L59.0244 27.6164C59.0237 27.7524 58.9693 27.8826 58.8731 27.9788C58.7768 28.075 58.6465 28.1293 58.5104 28.13H53.0635C52.781 28.13 52.5479 27.8988 52.5495 27.6164L52.5604 20.7526C52.5707 20.4454 52.6147 20.2567 52.4604 20.6754C52.206 21.5046 52.2349 21.5569 51.9805 22.386C52.6504 23.5229 52.3818 24.3158 51.7247 24.0014C51.1145 23.7093 50.6425 23.4801 50.8617 22.4596C51.2159 21.0332 51.5295 19.5043 51.8835 18.0781C52.0476 17.4123 52.3403 16.9986 52.6676 16.8375L54.3062 16.4862C54.7947 16.3583 55.4473 18.6132 56.2644 19.4713C57.1691 18.6796 57.8819 16.6005 58.1835 16.7675C59.3536 17.8006 60.467 18.7793 60.6784 20.6983V23.9489C60.568 24.9564 60.0242 25.7181 59.6495 25.7398C59.4008 25.3875 59.3457 24.9712 59.3177 24.5458C59.2318 23.6342 59.1589 22.1607 59.0726 21.2496Z" clip-rule="evenodd" fill-rule="evenodd"/>
<path fill="white" d="M56.0363 16.3918C56.0479 16.9217 55.9731 17.4662 55.6901 17.7614C55.5286 17.3906 55.3234 16.9963 55.0698 16.7512C55.4387 16.7858 55.7553 16.6476 56.0363 16.3918ZM56.5945 16.3918C56.5829 16.9217 56.6577 17.4662 56.9407 17.7614C57.1025 17.3906 57.3074 16.9963 57.5612 16.7512C57.1921 16.7858 56.8756 16.6476 56.5945 16.3918Z" clip-rule="evenodd" fill-rule="evenodd"/>
<path fill="black" d="M82.1255 9.97735L72.5259 29.6634H90.4252C98.1274 29.6484 102.698 23.0698 97.0246 19.3707C105.772 17.9254 105.923 9.8297 98.2246 9.87747L82.1255 9.97735ZM89.8178 12.9994L87.0525 17.1753H91.17C96.3223 17.1955 96.8137 12.9785 93.4436 12.9994H89.8178ZM84.4716 20.5533L80.7845 26.1418H85.8236C90.7301 26.1619 92.8807 20.5325 88.6505 20.5533H84.4716ZM99.9789 29.6695L108.913 14.3746H114.625L109.206 29.6695H99.9789ZM113.49 9.17871C115.042 9.17871 116.309 10.198 116.309 11.4473C116.309 12.6968 115.042 13.7159 113.49 13.7159C111.937 13.7159 110.671 12.6968 110.671 11.4473C110.67 10.198 111.937 9.17871 113.49 9.17871ZM146.406 10.0569L138.571 18.546H134.616C138.17 10.4529 128.682 12.0338 125.508 18.8281C121.201 28.0456 131.651 28.1358 136.008 22.498L138.351 24.6933C132.015 33.0285 113.526 31.7115 116.467 19.1931C118.623 10.0176 133.016 6.9265 137.545 11.4475L138.424 9.98386L146.406 10.0569Z" clip-rule="evenodd" fill-rule="evenodd"/>
<path fill="black" d="M155.065 7.82778C156.109 7.82778 157 7.01707 157 5.90837C157 4.81012 156.109 4 155.065 4C154.012 4 153.119 4.80992 153.119 5.90837C153.119 7.01688 154.012 7.82778 155.065 7.82778ZM153.505 5.90837C153.505 5.00234 154.189 4.31911 155.065 4.31911C155.931 4.31911 156.615 5.00234 156.615 5.90837C156.615 6.82959 155.931 7.50788 155.065 7.50788C154.189 7.50788 153.505 6.82959 153.505 5.90837ZM154.66 6.06013H155.045L155.627 7.01688H156.002L155.374 6.04493C155.698 6.00447 155.946 5.83239 155.946 5.43749C155.946 5.00214 155.688 4.80992 155.166 4.80992H154.325V7.01688H154.659V6.06013H154.66ZM154.66 5.77673V5.09331H155.116C155.349 5.09331 155.597 5.14384 155.597 5.41736C155.597 5.75641 155.344 5.77673 155.06 5.77673H154.66Z"/>
</svg>