<?xml version="1.0" encoding="utf-8"?>
<svg xmlns="http://www.w3.org/2000/svg" fill="none" viewBox="0 0 200 40" height="40" width="200">
<path fill="#FF5500" d="M73.5238 13.0208C71.3965 13.0208 69.7855 13.9915 68.4017 15.4785C67.1212 13.9915 65.5103 13.0208 63.3829 13.0208C59.3349 13.0208 56.4434 16.3253 56.4434 20.2701V28.8H60.2849V20.0429C60.2849 18.1222 61.4622 16.4079 63.3829 16.4079C65.407 16.4079 66.6875 18.1222 66.6875 20.0429V28.8H66.5842H70.4258H70.5291V20.0429C70.5291 18.1222 71.7063 16.4079 73.6271 16.4079C75.6511 16.4079 76.9316 18.1222 76.9316 20.0429V28.8H80.6699V20.2701C80.6906 16.3253 77.6958 13.0208 73.5238 13.0208Z"/>
<path fill="#FF5500" d="M135.547 13.4336H131.705V28.7998H135.547V13.4336Z"/>
<path fill="#FF5500" d="M124.869 19.6298L123.485 19.4232C122.101 19.2167 120.924 18.8862 120.924 17.8123C120.924 16.7383 121.771 16.2013 123.691 16.2013C125.612 16.2013 127.326 16.9448 128.276 17.4818V17.3785L129.557 14.611C127.946 13.6403 125.819 13 123.464 13C119.519 13 117.062 14.9208 117.062 17.9155C117.062 20.3733 118.879 21.9636 122.287 22.3973L123.898 22.6039C125.715 22.8104 126.356 23.4507 126.356 24.4214C126.356 25.5986 125.385 26.0324 123.154 26.0324C120.697 26.0324 119.106 25.2888 118.032 24.4214L116.855 27.3129C118.982 28.6967 121.667 29.0271 123.154 29.0271C127.636 29.0271 130.197 27.0031 130.197 24.0083C130.094 21.5506 128.173 20.0635 124.869 19.6298Z"/>
<path fill="#FF5500" d="M113.138 13.4336C111.32 17.7089 108.656 24.0082 108.656 24.0082C106.942 19.9601 105.248 16.1186 104.174 13.4336C102.047 13.4336 101.82 13.4336 100.126 13.4336C101.51 16.7382 104.174 22.9342 106.632 28.7998C106.632 28.7998 104.814 33.0751 103.327 36.4829C105.579 36.4829 104.298 36.4829 107.499 36.4829C110.494 29.5433 115.286 18.2252 117.434 13.4336C115.699 13.4336 115.265 13.4336 113.138 13.4336Z"/>
<path fill="#FF5500" d="M95.0861 13.4337V14.7142C93.8056 13.7435 92.0913 13 90.2738 13C85.792 13 82.0537 16.635 82.0537 21.1168C82.0537 25.5986 85.6887 29.2337 90.2738 29.2337C92.0913 29.2337 93.6816 28.4901 95.0861 27.5194V28.7999H98.8244V13.4337H95.0861ZM90.2945 25.5986C87.7334 25.5986 85.7094 23.5746 85.7094 21.1168C85.7094 18.6591 87.7334 16.635 90.2945 16.635C92.8555 16.635 94.8795 18.6591 94.8795 21.1168C94.8795 23.5746 92.8555 25.5986 90.2945 25.5986Z"/>
<path fill="#FF5500" d="M154.754 13.0208C152.627 13.0208 151.016 13.9915 149.632 15.4785C148.248 13.9915 146.74 13.0208 144.51 13.0208C140.462 13.0208 137.57 16.3253 137.57 20.2701V28.8H141.412V20.0429C141.412 18.1222 142.589 16.4079 144.51 16.4079C146.534 16.4079 147.814 18.1222 147.814 20.0429V28.8H147.711H151.553H151.656V20.0429C151.656 18.1222 152.833 16.4079 154.754 16.4079C156.778 16.4079 158.059 18.1222 158.059 20.0429V28.8H161.9V20.2701C161.797 16.3253 158.823 13.0208 154.754 13.0208Z"/>
<path fill="#FF5500" d="M50.9084 13.4337V14.7142C49.6279 13.7435 47.9137 13 46.2201 13C41.635 13 38 16.635 38 21.1168C38 25.5986 41.635 29.2337 46.2201 29.2337C48.0376 29.2337 49.6279 28.4901 51.0324 27.5194V28.7999H54.7707V13.4337H50.9084ZM46.0962 25.5986C43.5351 25.5986 41.5111 23.5746 41.5111 21.1168C41.5111 18.6591 43.5351 16.635 46.0962 16.635C48.6572 16.635 50.6813 18.6591 50.6813 21.1168C50.6813 23.5746 48.6572 25.5986 46.0962 25.5986Z"/>
</svg>