<?xml version="1.0" encoding="utf-8"?>
<svg xmlns="http://www.w3.org/2000/svg" fill="none" viewBox="0 0 200 40" height="40" width="200">
<path fill="#B32274" d="M60.7343 29.0808C60.7343 28.9991 60.707 28.9173 60.707 28.8355C60.6797 28.7264 60.6797 28.6174 60.6523 28.4811C60.625 28.3448 60.5704 28.154 60.5431 28.0177C60.5157 27.8541 60.4884 27.6906 60.4611 27.527C60.4338 27.3362 60.3791 27.1453 60.3518 26.9545C60.3245 26.7637 60.2699 26.5456 60.2426 26.3548C60.1879 26.1367 60.1879 25.9731 60.1605 25.7551C60.1059 25.5369 60.024 25.2916 59.9966 25.0735C59.942 24.8554 59.9147 24.6919 59.86 24.4738C59.8054 24.2829 59.7781 24.0376 59.7235 23.8468C59.6142 23.3561 59.4502 22.9472 59.3409 22.4565C59.2317 21.9931 59.1497 21.5569 58.9858 21.1207C58.8765 20.7663 58.7946 20.3574 58.6852 20.003C58.5487 19.6486 58.5213 19.2124 58.5213 18.8308C58.494 18.4219 58.5487 18.0402 58.5213 17.6313C58.494 17.3587 58.4121 17.0589 58.4121 16.7863C58.3847 16.4319 58.4121 16.132 58.3574 15.7776C58.3574 15.7503 58.3574 15.7231 58.3301 15.6958C58.2755 15.4777 58.0569 15.0961 57.5651 14.6599C57.4559 14.7417 57.4285 14.8235 57.2919 14.878C57.1553 14.9325 56.9368 15.0143 56.7728 15.0688C56.6362 15.0961 56.4723 15.0688 56.3084 15.0961C56.1171 15.1779 55.8713 15.2324 55.7073 15.2051C55.5161 15.2051 55.3795 15.2051 55.2156 15.1506C55.0517 15.1233 54.8877 14.9871 54.7511 14.9325C54.6145 15.0688 54.5052 15.2051 54.4233 15.3687C54.314 15.5595 54.2047 15.7503 54.1501 15.9684C54.0135 16.2956 54.0135 16.5682 53.9862 16.8408C53.8769 17.2224 53.8496 17.6858 53.8496 17.6858C53.8496 17.6858 53.7949 17.8767 53.8222 18.6945C53.8222 18.9126 53.7949 19.1852 53.7949 19.4306C53.7949 19.7304 53.8496 20.0303 53.8769 20.3302C53.9042 20.63 53.8769 20.9026 53.9042 21.2025C53.9315 21.5296 53.9588 21.884 53.9862 22.2111C54.0135 22.5928 54.0954 22.9199 54.1228 23.3016C54.1501 23.6014 54.1228 23.9558 54.1501 24.2829C54.1774 24.6646 54.2594 25.1008 54.2867 25.4824C54.314 25.8641 54.2867 26.2184 54.314 26.6001C54.3413 26.9272 54.4233 27.2816 54.4506 27.6088C54.4779 27.9086 54.4233 28.1812 54.4506 28.4811C54.4779 28.9446 54.5052 29.1353 54.5326 29.5988C54.5326 29.6806 54.6145 30.1713 54.6145 30.2803C54.6419 30.6347 54.5872 30.8801 54.5872 31.2344C54.5872 31.5071 54.6145 31.8069 54.5872 32.1068C54.5599 32.4067 54.5599 33.4971 54.5599 33.7152C54.5599 34.0968 54.5872 34.3967 54.6145 34.8056C54.6419 35.1054 54.6145 35.4053 54.6419 35.7052C54.6692 36.0051 54.7511 36.3322 54.8058 36.6593C54.8604 36.9592 54.8331 37.2863 54.9424 37.5862C55.0243 37.9406 55.2156 38.5403 55.68 38.4858C56.0625 38.4313 56.2264 38.2949 56.3904 37.9406C56.4996 37.6952 56.527 37.4499 56.5816 37.1773C56.6362 36.9864 56.7455 36.7956 56.8002 36.6048C56.8821 36.2504 56.9094 35.8142 56.9914 35.4598C57.1007 34.9146 57.2373 34.4512 57.3466 33.906C57.4012 33.5243 57.4012 33.1972 57.4832 32.8156C57.5378 32.5429 57.6744 31.8887 57.7017 31.6979C57.7291 31.4253 57.811 31.0163 57.811 30.9891C57.8383 30.6619 57.8657 30.3893 57.8383 30.0622C57.8383 29.7623 57.811 29.4079 57.7564 29.1081C57.7564 29.0263 57.5924 28.0722 57.7564 28.0449C57.893 28.0177 58.0296 28.8082 58.0569 28.8628C58.1115 29.1353 58.1389 29.4079 58.2481 29.6533C58.4121 30.1167 58.6306 30.5257 58.7946 30.9891C58.9585 31.398 59.0678 31.8342 59.2317 32.2158C59.3409 32.4339 59.5049 32.6793 59.6142 32.9246C59.8054 33.3335 59.9147 33.7152 60.1879 34.0696C60.2971 34.2058 60.5977 34.533 60.7889 34.3422C60.8162 34.2876 60.8436 34.2058 60.8436 34.1513C60.8709 34.0423 60.8709 33.906 60.8709 33.7969C60.8709 33.6334 60.8982 33.4698 60.8982 33.3062V32.7338C60.8982 32.5157 60.8709 32.3249 60.8436 32.1341C60.8436 31.9159 60.8709 31.6979 60.8709 31.4798V30.9891C60.8709 30.7983 60.8436 30.4711 60.8436 30.2803C60.8436 30.1167 60.8162 29.9532 60.8162 29.7896C60.8162 29.6533 60.8162 29.5443 60.7889 29.4079C60.7616 29.2444 60.7343 29.1626 60.7343 29.0808ZM62.4832 26.1094C62.3193 25.9459 62.5652 24.2829 62.6471 23.7377C62.7291 23.1653 62.8384 22.1566 62.8384 21.9658C62.8384 21.7749 62.8657 20.6028 62.9204 20.1938C62.975 19.7849 63.0296 19.1307 63.1116 18.5309C63.1662 18.1493 63.3028 17.0589 63.3028 16.8408C63.3028 16.6227 63.4121 15.7776 63.4668 15.4777C63.4941 15.1779 63.7127 14.7962 63.8492 14.7144C64.0951 14.5509 64.7781 14.6054 64.9147 14.6599C65.1606 14.7144 65.5977 15.3687 65.6524 15.4777C65.8163 15.7231 66.3081 16.3228 66.3627 16.5137C66.4447 16.7045 66.9091 17.4678 67.0184 17.7677C67.1823 18.0948 67.3462 18.2856 67.4829 18.5582C67.6468 18.8308 68.0566 19.7032 68.0566 19.7032C68.0566 19.7032 68.6576 18.8581 68.8215 18.4764C68.9855 18.0948 69.4226 17.4951 69.5865 17.1679C69.7505 16.8408 70.3242 15.7503 70.4061 15.6413C70.5701 15.4232 70.734 15.0143 71.0345 14.7962C71.335 14.5509 71.6082 14.6327 71.9634 14.6599C72.1273 14.6599 72.2366 14.7144 72.4278 14.8235C72.6191 14.9325 72.7557 15.8321 72.783 16.1047C72.8104 16.3773 72.9469 17.8494 72.9743 18.0402C73.0016 18.2311 73.1655 19.0489 73.1928 19.376C73.2201 19.6759 73.2748 21.3388 73.3567 21.8295C73.4387 22.3202 73.466 23.2198 73.5206 23.4924C73.5753 23.765 73.7119 24.9917 73.7119 25.1281C73.7119 25.2643 73.8758 26.1094 73.7392 26.1367C73.63 26.1639 72.4552 26.2184 72.2366 26.2457C72.0181 26.273 71.499 26.2457 71.3077 26.2457C71.1164 26.2457 70.9252 26.2184 70.9252 25.9186C70.9252 25.6187 70.9525 24.4193 70.8433 23.8741C70.734 23.3561 70.5428 21.9386 70.5428 21.7204C70.5428 21.5024 70.6247 21.0117 70.3788 21.0662C70.1602 21.148 69.6958 22.4019 69.5045 22.7018C69.3406 22.9744 68.9035 23.6014 68.9035 23.6014L68.4391 24.5011C68.4391 24.5011 68.1659 24.8282 68.0292 24.8009C67.8926 24.7737 67.7287 24.0103 67.4556 23.6287C67.1823 23.2471 66.8545 22.6201 66.7452 22.3474C66.6359 22.0748 66.3354 21.4751 66.1715 21.2843C66.0076 21.0934 65.8983 20.8208 65.789 20.7936C65.6797 20.7663 65.5158 20.63 65.4885 20.7936C65.4611 20.9572 65.2972 22.7836 65.2972 22.7836C65.2972 22.7836 65.188 24.1739 65.188 24.3375C65.188 24.5011 65.1606 25.4279 65.1606 25.4279C65.1606 25.4279 65.3245 26.0549 65.024 26.1094C64.8601 26.1912 62.6471 26.273 62.4832 26.1094ZM84.4756 17.9039C84.3936 17.5223 84.175 16.7044 84.0385 16.4591C83.8745 16.2138 83.5194 15.6141 83.3828 15.505C83.2462 15.3959 82.7817 15.1506 82.6178 15.0688C82.4539 14.9871 81.7162 14.7689 81.3337 14.7144C80.9513 14.6599 80.678 14.6872 80.3229 14.6599C79.995 14.6599 79.6672 14.6327 79.1208 14.6054C78.5744 14.5781 78.4924 14.5509 78.1645 14.5509C77.8367 14.5509 77.5635 14.5509 77.3176 14.5781C77.0718 14.6054 76.3887 14.6599 76.2521 14.6872C76.1155 14.7144 76.0609 14.9598 76.0609 15.1233C76.0609 15.2869 76.0882 15.6413 76.0882 15.8594V16.9498C76.0882 17.1134 76.0882 17.7676 76.1428 17.9857C76.1701 18.2038 76.0882 18.8036 76.0882 18.9671C76.0882 19.1307 76.1428 19.6759 76.1155 19.8394C76.1155 20.003 76.0882 20.7391 76.0882 20.8481C76.0882 20.9572 76.1701 21.8022 76.1701 21.9113C76.1701 22.0203 76.1701 22.7291 76.1428 22.9472C76.1155 23.138 76.1428 23.8195 76.1428 23.9286C76.1428 24.0376 76.1701 24.3102 76.1701 24.4192C76.1701 24.5283 76.1701 25.1008 76.1428 25.2371C76.1428 25.3461 76.1975 25.755 76.3068 25.9458C76.4161 26.1367 76.7439 26.1094 76.7439 26.1094H77.6728C77.8914 26.1094 78.5471 26.1094 78.7656 26.0822C78.9568 26.0549 78.9022 25.8368 78.9295 25.8096C78.9295 25.7823 78.9022 25.3461 78.9022 25.2371V24.6373C78.9022 24.3374 78.8749 24.0376 78.8749 23.8468C78.8749 23.6559 78.9022 23.0017 78.9295 22.9199C78.9295 22.8381 78.9022 22.5655 78.9568 22.5655C79.0115 22.5655 79.2847 22.5655 79.5852 22.5928C79.8857 22.5928 80.2136 22.5655 80.2956 22.5383C80.5141 22.511 80.7327 22.4837 81.0605 22.4292C81.3883 22.3747 82.0987 22.2384 82.4266 22.1021C82.7544 21.9658 83.6833 21.5023 83.9838 21.1479C84.2843 20.8208 84.5575 19.7577 84.5848 19.4306C84.6121 19.1034 84.5575 18.2856 84.4756 17.9039ZM82.2353 19.0216C82.208 19.1579 82.1806 19.5396 82.0167 19.7577C81.9348 19.8667 81.8255 19.9212 81.6889 20.0576C81.5796 20.1666 81.3064 20.2483 81.1152 20.3302C80.9239 20.4119 80.7053 20.4392 80.5687 20.4664C80.4321 20.4937 80.3775 20.4937 80.1316 20.5209C79.913 20.5482 79.6945 20.5482 79.4759 20.5755C79.2573 20.6028 79.0934 20.5755 78.9295 20.4119C78.9295 20.4119 78.9568 19.7849 78.9295 19.5123C78.9022 19.2397 78.8476 18.8036 78.8476 18.6672C78.8476 18.5309 78.8202 18.122 78.8202 17.9584C78.8202 17.7949 78.8476 17.2769 78.8202 17.1407C78.7929 17.0043 78.7929 16.7862 78.9022 16.7317C79.0115 16.6772 79.8584 16.6227 80.1316 16.6772C80.4048 16.7317 80.6507 16.759 80.8966 16.8408C81.1152 16.9226 81.2518 16.9226 81.4157 17.0316C81.5796 17.1406 81.7982 17.3042 81.8801 17.4405C81.9621 17.5496 82.126 17.7404 82.1533 17.8767C82.208 18.013 82.2626 18.3401 82.2626 18.5309C82.2626 18.6127 82.2626 18.8581 82.2353 19.0216ZM86.7982 25.9188C86.7982 25.9188 86.7163 24.5558 86.7163 24.1741C86.7163 24.1741 86.7982 21.6934 86.7709 21.4481C86.7436 21.2027 86.7163 19.5671 86.7163 19.349C86.7163 19.1309 86.689 18.5039 86.7163 18.2313C86.7436 17.9587 86.7436 17.5771 86.689 17.3589C86.6616 17.1409 86.607 15.587 86.6343 15.3689C86.6616 15.1508 86.7982 14.6056 86.7982 14.6056C86.7982 14.6056 87.1261 14.5238 87.4539 14.5238C87.7818 14.5238 88.9292 14.4966 89.339 14.5238C89.7489 14.5511 90.3772 14.5238 90.6777 14.5238C90.9782 14.5238 91.6886 14.4966 91.9618 14.4966C92.235 14.4966 92.4262 14.4148 92.9453 14.4693C93.4644 14.5238 93.4644 14.4966 93.7649 14.4966C94.0654 14.4966 94.3114 14.4966 94.3387 14.6056C94.366 14.7147 94.3933 15.3144 94.4206 15.4234C94.448 15.5325 94.366 16.1322 94.3933 16.2958C94.4206 16.4593 94.4753 16.5411 94.284 16.6229C94.0928 16.7047 92.8087 16.6502 92.5628 16.6502C92.317 16.6502 91.2242 16.7319 90.8963 16.7047C90.5685 16.6774 89.7215 16.6774 89.503 16.6774C89.2844 16.6774 89.2297 16.6502 89.1751 16.7592C89.1205 16.8683 89.1751 17.6043 89.1478 17.7406C89.1205 17.8769 89.2297 18.3676 89.2297 18.3676C89.2297 18.3676 89.2571 18.5039 89.4757 18.5312C89.6942 18.5584 89.8854 18.5312 90.0494 18.5312C90.2133 18.5312 90.3499 18.5584 90.6504 18.5312C90.9509 18.5039 91.0329 18.5312 91.4154 18.5039C91.7978 18.5039 91.7159 18.5312 92.0438 18.5584C92.3716 18.5857 92.2623 18.5584 92.5628 18.5312C92.8634 18.5039 92.7268 18.5312 93.0819 18.5039C93.4371 18.4766 93.5464 18.5312 93.7376 18.5312C93.9289 18.5312 93.9562 18.831 93.9835 18.9128C94.0108 19.0491 94.0381 19.5943 94.0381 19.6761C94.0381 19.7579 93.9562 20.5212 93.9562 20.5212C93.9562 20.5212 93.3278 20.5757 92.8634 20.5484C92.3989 20.5212 92.0164 20.5757 91.7159 20.5757C91.4154 20.5757 91.0056 20.603 90.7324 20.603C90.4592 20.603 89.4757 20.5484 89.3663 20.5484C89.2571 20.5484 89.1751 20.7666 89.1751 20.8211V22.3477C89.1751 22.4567 89.0932 23.1655 89.1205 23.2473C89.1478 23.3291 89.1478 23.5199 89.1478 23.5199C89.1478 23.5199 89.1205 23.6834 89.3117 23.6834H91.2788C91.6613 23.6834 93.1639 23.7925 93.4097 23.7652C93.6557 23.7379 94.202 23.6834 94.3114 23.7107C94.4206 23.7379 94.5026 23.847 94.5299 23.9288C94.5572 24.0106 94.4753 24.8557 94.5026 24.9102C94.5299 24.9647 94.5299 25.6189 94.5299 25.728C94.5299 25.8371 94.448 26.0006 94.448 26.0006C94.448 26.0006 94.284 26.0824 94.0928 26.0824C93.8742 26.0824 93.6283 26.1097 93.2458 26.1097C92.8634 26.1097 90.2953 26.0824 90.0494 26.0824H88.8746C88.6014 26.0824 88.656 26.1097 88.1096 26.1097C87.5905 26.1097 87.1534 26.3004 86.7982 25.9188ZM117.916 25.7004C117.916 25.7004 117.834 24.5009 117.834 24.1193C117.834 24.1193 117.916 21.6386 117.889 21.3932C117.861 21.1479 117.834 19.5122 117.834 19.2942C117.834 19.0761 117.807 18.4491 117.834 18.1764C117.861 17.9038 117.861 17.5222 117.807 17.3041C117.78 17.086 117.807 16.7862 117.807 16.459C117.807 16.0774 117.725 15.5049 117.752 15.2868C117.78 15.0687 117.807 14.8507 117.998 14.6598C118.189 14.469 118.244 14.4417 118.572 14.469C118.9 14.4963 120.047 14.4417 120.457 14.469C120.867 14.4963 121.495 14.469 121.796 14.469H123.052C123.326 14.4417 123.572 14.4144 124.091 14.469C124.61 14.4963 124.583 14.4963 124.91 14.469C125.238 14.4417 125.511 14.4963 125.566 14.6053C125.621 14.7143 125.566 15.2323 125.566 15.3686C125.566 15.5049 125.511 16.0774 125.538 16.2409C125.566 16.4045 125.621 16.4863 125.429 16.5681C125.238 16.6498 123.954 16.5953 123.708 16.5953C123.463 16.5953 122.369 16.6771 122.042 16.6498C121.714 16.6226 120.867 16.6226 120.648 16.6226C120.43 16.6226 120.375 16.5953 120.321 16.7044C120.266 16.8134 120.321 17.5494 120.293 17.6858C120.266 17.8221 120.375 18.3128 120.375 18.3128C120.375 18.3128 120.402 18.4491 120.621 18.4763C120.84 18.5036 121.031 18.4763 121.195 18.4763C121.358 18.4763 121.495 18.4491 121.796 18.4491C122.096 18.4491 122.206 18.4763 122.588 18.4491C122.971 18.4491 122.834 18.4218 123.162 18.4491C123.49 18.4763 123.407 18.4491 123.735 18.4491C124.063 18.4218 124.063 18.4763 124.418 18.4491C124.773 18.4218 124.801 18.4763 124.965 18.4491C125.238 18.4491 125.156 18.8579 125.183 18.9398C125.211 19.0761 125.156 19.5667 125.156 19.6486C125.156 19.7303 125.293 20.3301 125.102 20.4663C124.856 20.6299 124.364 20.5754 123.899 20.5481C123.435 20.5209 123.162 20.5481 122.888 20.5481C122.615 20.5481 122.178 20.5754 121.905 20.5754C121.632 20.5754 120.867 20.6299 120.757 20.6299C120.43 20.6027 120.43 20.7389 120.43 20.8207C120.402 20.9298 120.375 22.1565 120.375 22.2656C120.375 22.3746 120.321 23.1107 120.348 23.1924C120.375 23.2742 120.348 23.4923 120.348 23.4923C120.348 23.4923 120.321 23.6558 120.511 23.6558H122.479C122.861 23.6558 124.364 23.7649 124.61 23.7376C124.883 23.7104 125.375 23.7104 125.511 23.7376C125.648 23.7649 125.703 23.9284 125.73 24.0102C125.757 24.092 125.73 24.9098 125.703 24.8826C125.675 24.8281 125.73 25.5914 125.73 25.7004C125.73 25.8094 125.648 25.973 125.648 25.973C125.648 25.973 125.484 26.0548 125.293 26.0548C125.102 26.0548 124.856 26.1638 124.473 26.1366H123.08C122.26 26.1366 121.386 26.0548 121.249 26.0548C121.003 26.0548 120.348 26.1093 120.075 26.1093C119.802 26.1093 119.856 26.0821 119.31 26.0821C118.763 26.0821 118.271 26.2184 117.916 25.7004ZM106.414 25.8095C106.386 25.7549 106.25 25.5369 106.086 25.4006C105.922 25.2643 105.922 25.1279 105.758 24.9644C105.594 24.8008 105.348 24.3101 105.239 24.1738C105.102 24.0376 105.102 23.983 104.829 23.6559C104.556 23.356 104.365 23.1379 104.255 22.9471C104.119 22.7563 103.682 22.3474 103.736 22.3474C103.791 22.3474 104.611 21.2297 104.693 21.1479C104.774 21.0661 105.048 20.6027 105.102 20.4391C105.157 20.2756 105.266 19.9484 105.321 19.7576C105.348 19.5668 105.348 19.4304 105.348 19.2124V18.5854C105.348 18.3673 105.375 18.1219 105.321 17.9311C105.294 17.7403 105.294 17.1951 105.184 16.9225C105.102 16.6499 104.884 16.1864 104.829 16.0229C104.774 15.8593 104.064 15.3686 104.01 15.2051C103.928 15.0415 103.545 14.8779 103.163 14.7962C102.78 14.7144 102.78 14.7689 102.507 14.6871C102.234 14.6053 102.097 14.6326 101.742 14.6053C101.387 14.5781 100.54 14.5781 100.239 14.5508C99.9387 14.5236 97.8078 14.5236 97.5345 14.5508C97.2614 14.5781 97.1521 14.5781 97.1248 14.7689C97.0974 14.9597 97.0974 16.0774 97.1248 16.35C97.1521 16.6226 97.1248 17.6313 97.0701 18.0947C97.0155 18.5581 97.1521 19.4032 97.1521 19.6758C97.1521 19.9484 97.1248 21.2842 97.1248 21.4205C97.1248 21.5841 97.1521 22.9198 97.0974 23.1652C97.0428 23.3833 97.0974 24.6645 97.1248 24.9917C97.1521 25.3188 97.0701 26.0548 97.234 26.1366C97.398 26.2184 98.0537 26.1911 98.2722 26.1911C98.4908 26.1911 98.7913 26.2184 99.2011 26.2184C99.6109 26.2184 99.7748 26.1911 99.9115 26.1366C100.048 26.0821 99.9115 25.5641 99.9387 25.4278C99.9661 25.2915 99.8568 24.4464 99.9115 24.1738C99.9387 23.9012 99.9661 22.8108 99.9934 22.729C100.021 22.6472 100.13 22.6472 100.212 22.6199C100.294 22.5927 100.758 22.6472 100.922 22.7018C101.086 22.729 101.25 23.1107 101.305 23.1379C101.359 23.1652 101.633 23.6013 101.96 23.9557C102.261 24.3101 103.217 25.5369 103.463 25.7549C103.709 25.9731 103.682 26.1093 103.928 26.1639C104.201 26.2184 104.255 26.1911 104.392 26.1911C104.556 26.1639 105.13 26.1911 105.321 26.1911C105.512 26.1911 106.304 26.1639 106.414 26.1639C106.441 26.0548 106.441 25.864 106.414 25.8095ZM102.917 18.9125C102.889 19.1306 102.944 19.1306 102.807 19.4304C102.671 19.7031 102.534 19.8667 102.452 20.0574C102.343 20.2483 101.851 20.4664 101.66 20.4936C101.469 20.5209 100.922 20.6027 100.731 20.6027C100.54 20.6027 100.13 20.5754 99.9661 20.5209C99.8841 20.4936 99.6929 19.2124 99.7202 18.9671C99.7475 18.7217 99.7748 18.1219 99.7475 17.7676C99.7202 17.4132 99.6109 16.8952 99.7202 16.8134C99.8295 16.7317 100.185 16.7589 100.458 16.7862C100.758 16.8134 101.414 16.8407 101.851 17.0315C102.288 17.2496 102.534 17.3314 102.671 17.604C102.807 17.8766 102.862 17.9039 102.889 18.2037C102.917 18.5309 102.971 18.6944 102.917 18.9125ZM108.299 25.9732C108.244 25.8913 108.135 24.0922 108.135 23.8468C108.135 23.6014 108.08 20.7391 108.08 20.4937C108.08 20.2484 108.162 18.6945 108.135 18.4219C108.107 18.1493 108.107 18.1493 108.107 17.8767V17.2224C108.107 17.0044 108.053 16.1593 108.08 15.9684C108.107 15.7776 108.107 15.4232 108.053 15.2597C107.998 15.0688 108.162 14.6872 108.326 14.6054C108.49 14.5236 110.648 14.5236 111.003 14.5509C111.358 14.5782 111.823 14.6327 112.26 14.6327C112.697 14.6327 113.899 14.6054 114.254 14.5782C114.61 14.5509 115.156 14.5509 115.348 14.5509C115.538 14.5509 115.648 15.0416 115.648 15.1779C115.648 15.3142 115.621 15.8594 115.621 15.9684C115.621 16.0775 115.648 16.4319 115.621 16.4864C115.593 16.5409 115.593 16.759 115.538 16.759C115.484 16.759 114.992 16.7863 114.801 16.7863C114.61 16.7863 114.254 16.759 114.036 16.759C113.818 16.759 112.888 16.7863 112.697 16.7863H110.785C110.703 16.7863 110.73 17.0044 110.676 17.1679C110.621 17.3315 110.621 17.9857 110.648 18.0403C110.676 18.0948 110.648 18.4492 110.812 18.5037C110.976 18.5582 111.522 18.5855 111.823 18.5855C112.123 18.5855 112.397 18.5582 112.561 18.5582C112.725 18.5582 112.861 18.5037 113.107 18.5037C113.353 18.5037 113.517 18.5309 113.872 18.5582C114.227 18.5855 114.337 18.5309 114.446 18.5309C114.555 18.5309 114.719 18.5037 114.883 18.5037C115.047 18.5037 115.238 18.5309 115.32 18.5855C115.457 18.6673 115.402 19.5123 115.348 19.6759C115.293 19.8395 115.348 20.2757 115.348 20.3302C115.348 20.3847 115.457 20.521 115.074 20.5483C114.692 20.5755 114.063 20.5755 113.818 20.5755C113.572 20.5755 112.916 20.6028 112.615 20.6028C112.315 20.6028 111.358 20.5755 111.058 20.5755C110.757 20.5755 110.785 20.7391 110.785 20.8481C110.785 20.9572 110.703 22.0476 110.703 22.0476C110.703 22.0476 110.785 22.4565 110.785 22.7564C110.785 23.0562 110.757 23.5742 110.757 23.6832C110.757 23.7923 110.839 24.3375 110.812 24.392C110.785 24.4466 110.839 25.4824 110.839 25.5369C110.839 25.5915 110.922 25.9459 110.785 26.0277C110.621 26.1094 110.484 26.2185 109.965 26.1912C109.391 26.1094 108.408 26.1367 108.299 25.9732ZM135.702 23.6559C135.702 23.6559 135.729 23.874 135.729 24.0103V24.9917C135.729 25.1007 135.674 25.5369 135.647 25.5914C135.619 25.6459 135.1 25.8913 134.882 26.0003C134.663 26.1094 133.926 26.1367 133.789 26.1639C133.653 26.1912 133.379 26.1639 132.696 26.1367C132.013 26.1094 131.74 26.1367 131.357 26.0549C130.975 25.9731 130.675 25.7823 130.319 25.6732C129.964 25.5642 129.527 25.2643 129.199 24.9917C128.872 24.7191 128.407 24.1739 128.271 24.0376C128.134 23.9013 127.56 23.0017 127.451 22.8108C127.341 22.6473 126.986 21.4478 126.986 21.257C126.986 21.0662 126.959 19.6758 126.986 19.5668C127.014 19.4578 127.26 18.4219 127.341 18.2583C127.423 18.0947 127.806 17.3042 127.97 17.1133C128.134 16.9225 128.817 16.1319 129.063 15.9412C129.309 15.7503 129.718 15.3687 129.964 15.2596C130.21 15.1506 130.866 14.8507 131.385 14.7144C131.877 14.5781 132.15 14.5508 132.888 14.5781C133.625 14.6054 134.09 14.5781 134.336 14.6326C134.964 14.7417 135.264 15.0143 135.51 15.1233C135.756 15.2324 135.783 15.6413 135.838 15.8321C135.865 15.9957 135.838 16.6772 135.838 16.7862C135.838 16.8953 135.729 17.1951 135.702 17.2497C135.674 17.3042 135.018 17.1679 134.909 17.0861C134.718 16.9771 133.325 16.7862 132.86 16.8135C132.478 16.8407 131.658 17.0316 131.357 17.2224C131.03 17.4405 130.538 17.9584 130.237 18.3401C129.992 18.6672 129.746 19.3487 129.718 19.4851C129.718 19.6486 129.637 19.9484 129.664 20.0848C129.691 20.2211 129.582 21.0116 129.664 21.1752C129.718 21.3388 129.882 21.8567 130.019 21.993C130.156 22.1293 130.237 22.6746 130.647 22.8926C131.03 23.1107 131.303 23.3016 131.713 23.3833C132.122 23.4923 132.587 23.7377 133.133 23.7649C133.68 23.7922 133.98 23.6559 134.281 23.6559C134.582 23.6559 134.991 23.6014 135.128 23.5469C135.264 23.4923 135.51 23.4651 135.51 23.4651C135.51 23.4651 135.702 23.3833 135.702 23.6559ZM137.559 16.7864C137.559 16.7864 137.395 16.6228 137.395 16.3502C137.368 16.0776 137.313 15.5324 137.34 15.2598C137.368 14.9872 137.368 14.7146 137.505 14.66C137.641 14.6055 139.171 14.5237 139.499 14.5782C139.826 14.6328 139.991 14.6873 140.564 14.66C141.138 14.6328 141.138 14.551 141.794 14.6055C142.449 14.66 142.559 14.6328 143.023 14.66C143.487 14.6873 144.034 14.66 144.034 14.66H145.646C145.81 14.66 145.81 15.0962 145.864 15.3143C145.919 15.5324 145.947 15.7504 145.919 15.9958C145.892 16.2412 145.974 16.541 145.837 16.6501C145.646 16.8136 145.182 16.7864 144.908 16.7864C144.635 16.7864 144.252 16.8136 143.788 16.8136C143.324 16.8136 143.187 16.7591 143.078 16.8136C142.968 16.8682 142.887 16.8954 142.914 17.0862C142.941 17.2771 142.914 18.3402 142.887 18.5038C142.859 18.6673 142.996 20.0577 142.996 20.2757C142.996 20.4938 142.968 21.0663 142.941 21.1753C142.914 21.2844 142.968 21.8023 142.941 21.9932C142.941 22.2385 143.023 22.811 142.996 23.0836C142.996 23.2472 142.968 24.174 142.968 24.2558C142.968 24.3376 142.996 25.319 142.996 25.428C142.996 25.5371 142.968 25.8914 142.887 26.0005C142.805 26.1096 142.695 26.0823 142.395 26.1096C142.094 26.1368 141.438 26.1096 141.22 26.1096C141.001 26.1096 140.619 26.0823 140.428 26.0823C140.236 26.0823 140.236 25.8369 140.182 25.3735C140.127 24.9101 140.291 23.9014 140.291 23.7106C140.291 23.5198 140.155 22.5384 140.182 22.3476C140.209 22.1567 140.291 21.3934 140.264 21.1753C140.236 20.9573 140.155 20.3848 140.155 20.2212C140.155 20.0577 140.236 19.1035 140.209 18.9945C140.182 18.8854 140.155 18.5583 140.155 18.3675C140.155 18.1767 140.1 17.7677 140.1 17.5497C140.1 17.3316 140.127 16.8682 140.127 16.8682C140.127 16.8682 140.018 16.7046 139.69 16.7318C139.362 16.7591 139.28 16.6773 138.898 16.7591C138.515 16.8409 137.778 16.8136 137.559 16.7864ZM80.4052 37.3681C80.4052 37.3681 80.4052 37.4499 80.1594 37.4499C79.9134 37.4499 79.8588 37.4772 79.6402 37.4499C79.4217 37.4227 79.2851 37.4227 79.2577 37.3954C79.2304 37.3681 79.1758 37.3954 79.1758 37.2046V36.1141C79.1758 35.9506 79.1758 35.1873 79.2031 34.9692C79.2304 34.7511 79.2031 34.2332 79.2031 34.0423C79.1758 33.8515 79.1758 33.5244 79.1758 33.3063C79.1758 33.0882 79.2304 32.2431 79.2304 32.0251C79.2304 31.8069 79.2577 31.1254 79.2304 31.0164C79.2031 30.9073 79.2304 30.5257 79.2304 30.4167C79.2304 30.3076 79.2031 30.0895 79.2304 29.8987C79.2577 29.7079 79.3124 29.4625 79.3124 29.3807C79.3124 29.2989 79.5856 29.2717 79.7495 29.2444C79.9134 29.2172 80.1867 29.2172 80.5418 29.2172C80.8696 29.2172 82.4542 29.1899 82.5909 29.1899C82.7275 29.1899 83.8476 29.2989 83.9295 29.2717C84.0115 29.2444 84.0934 29.3807 84.1481 29.5443C84.2028 29.7079 84.1754 30.0077 84.1754 30.0895C84.1754 30.1713 84.0661 30.3349 84.0661 30.3349C84.0661 30.3349 83.5197 30.3894 83.2738 30.3894C83.028 30.3894 81.7166 30.3349 81.5527 30.3349C81.3887 30.3349 80.6238 30.3076 80.5965 30.3349C80.5691 30.3621 80.5418 30.3894 80.5145 30.4439C80.4872 30.4984 80.5145 31.0982 80.4872 31.1527C80.4599 31.2072 80.5145 32.0251 80.5145 32.0523C80.5145 32.0796 80.5418 32.1341 80.7057 32.1068C80.8696 32.0796 81.7439 32.1613 82.0444 32.1341C82.3449 32.1068 83.0553 32.1068 83.3011 32.1341C83.5471 32.1613 83.8202 32.1613 83.8476 32.2158C83.8749 32.2704 83.9022 32.7338 83.9022 32.8156C83.9022 32.8974 83.8476 33.1972 83.8476 33.1972C83.8476 33.1972 83.8476 33.3063 83.629 33.3063C83.4105 33.3063 81.3068 33.3608 81.1429 33.3608C80.979 33.3608 80.6784 33.3608 80.6238 33.3881C80.5691 33.4153 80.5691 33.8788 80.5418 34.0151C80.5145 34.1514 80.5965 34.6693 80.5691 34.8602C80.5418 35.0509 80.5691 36.0051 80.5691 36.0596C80.5691 36.1141 80.4872 37.2591 80.4052 37.3681ZM94.5846 32.9792C94.5572 32.5703 94.3114 31.9706 94.1474 31.6979C93.9835 31.4253 93.7376 30.7711 93.0546 30.1986C92.3716 29.6261 92.8907 30.0351 92.6448 29.926C92.3716 29.7897 92.235 29.7079 92.0984 29.6534C91.9345 29.5716 91.4974 29.4353 91.1149 29.3808C90.7324 29.3263 89.9401 29.299 89.2298 29.5989C88.5194 29.8715 87.6179 30.4985 86.9895 31.2345C86.3338 31.9978 86.2518 33.4699 86.2518 33.4699C86.2518 33.8516 86.5524 34.7784 86.6343 34.942C86.7163 35.1056 86.8802 35.5962 86.9895 35.7326C87.0988 35.8961 87.29 36.0869 87.4539 36.305C87.6179 36.5231 88.055 36.7957 88.2736 36.9593C88.4921 37.1228 88.82 37.2319 88.82 37.2319L89.2298 37.3682C89.2298 37.3682 89.5029 37.3954 89.6669 37.4227C89.8581 37.4227 90.2407 37.5317 90.4319 37.5317C90.6231 37.5317 90.9783 37.5045 91.552 37.4499C92.0984 37.3954 92.2623 37.2046 92.2896 37.1773C92.317 37.1501 92.6175 37.0138 92.6175 37.0138C92.6175 37.0138 92.8634 36.9047 92.9453 36.8775C93.0546 36.8502 93.8469 36.0052 93.9835 35.8416C94.1201 35.678 94.5026 34.6421 94.5299 34.5603C94.5299 34.424 94.6119 33.3608 94.5846 32.9792ZM92.9727 34.7512C92.7541 35.1873 92.3716 35.5144 92.1804 35.678C91.9891 35.8416 91.7432 35.9779 91.634 36.0324C91.4974 36.0869 90.9783 36.1687 90.7597 36.1687C90.5412 36.1687 89.6942 36.1959 89.2571 35.9779C88.82 35.7598 88.4648 35.5417 88.2189 35.1873C87.9731 34.8329 87.6725 33.9061 87.6725 33.8516C87.5905 32.8156 87.8637 32.4612 88.0004 32.1341C88.1643 31.807 88.2462 31.5889 88.5194 31.3708C88.7927 31.1527 89.0932 30.8529 89.3117 30.7438C89.5303 30.6348 89.9674 30.4985 90.0767 30.4985C90.5685 30.4439 90.6777 30.4985 90.8143 30.5257C91.0056 30.553 91.3608 30.6893 91.5793 30.7438C91.7979 30.7983 91.9618 30.9892 92.1257 31.1255C92.4809 31.3436 92.6722 31.7524 92.8361 31.9161C93.0819 32.1887 93.2459 33.1155 93.2732 33.4972C93.3278 33.8516 93.1912 34.315 92.9727 34.7512ZM105.048 31.5884C104.939 31.2885 104.256 30.4979 104.065 30.3071C103.901 30.1163 103.245 29.7074 102.944 29.6256C102.644 29.5438 102.207 29.353 101.961 29.353C101.715 29.353 101.169 29.2984 100.731 29.3257C100.294 29.353 99.2289 29.8982 99.0649 30.0345C98.901 30.1708 98.2726 30.6888 97.9448 31.1249C97.6169 31.5338 97.2344 32.6516 97.2344 32.6516C96.8793 33.4966 97.3984 34.9414 97.5896 35.4049C97.7809 35.8683 98.7371 36.7679 99.0649 36.986C99.3928 37.2041 100.24 37.3404 100.895 37.4494C101.551 37.5312 102.753 37.3404 103.382 37.0405C104.037 36.7134 104.201 36.3862 104.42 36.2499C104.611 36.1137 104.748 35.8138 104.83 35.6502C104.911 35.4867 105.321 34.478 105.376 34.3144C105.431 34.1509 105.458 33.8237 105.485 33.6874V32.9787C105.512 32.4334 105.185 31.8609 105.048 31.5884ZM104.201 33.851C104.174 34.0691 103.709 34.9687 103.627 35.1323C103.518 35.2958 102.644 36.0591 102.125 36.1137C101.633 36.1409 100.95 36.0318 100.568 36.0318C100.185 36.0318 99.7479 35.732 99.2835 35.3503C98.7917 34.9687 98.4912 33.9873 98.5185 33.8783C98.5185 33.7692 98.4638 33.0332 98.5458 32.7061C98.5458 32.7061 98.8737 31.7519 99.4474 31.2612C100.021 30.7706 101.032 30.4707 101.387 30.4707C101.742 30.4707 102.097 30.5797 102.425 30.6888C102.753 30.7978 102.835 30.7978 103.136 31.1249C103.436 31.4521 103.573 31.4793 103.737 31.7792C103.901 32.1063 104.065 32.5152 104.174 32.7606C104.283 33.0059 104.228 33.6057 104.201 33.851ZM114.201 32.8428C114.201 32.6247 113.927 31.6706 113.463 30.9891C112.999 30.3076 112.125 29.9804 111.796 29.7896C111.469 29.626 110.595 29.3262 109.939 29.2716C109.283 29.2171 108.928 29.2716 108.627 29.2716C108.327 29.2716 108.354 29.5169 108.327 29.6533C108.3 29.7896 108.381 30.253 108.354 30.4711C108.354 30.6892 108.354 30.9618 108.327 31.2344C108.3 31.4797 108.381 31.8614 108.381 32.1613C108.381 32.4611 108.409 32.8973 108.409 33.1699C108.409 33.4425 108.381 34.1786 108.381 34.4784C108.381 34.8328 108.409 35.0509 108.409 35.1872V36.5775C108.409 36.7956 108.381 37.3408 108.491 37.4498C108.545 37.5043 108.983 37.4498 108.983 37.4498H109.529C109.748 37.4498 109.72 37.4498 109.939 37.4226C110.13 37.3953 110.922 37.259 111.55 37.0954C112.206 36.9319 112.643 36.4684 113.19 35.9505C113.736 35.4326 114.091 34.3694 114.173 34.2058C114.31 34.015 114.201 33.0608 114.201 32.8428ZM112.916 34.1513C112.807 34.5329 112.261 35.2962 112.097 35.4053C111.96 35.5143 111.277 36.005 110.84 36.0596C110.43 36.1413 110.075 36.1141 109.884 36.0868C109.584 36.0596 109.638 34.751 109.665 34.5057C109.693 34.2603 109.665 33.6333 109.665 33.4152V32.5157C109.665 32.5157 109.611 31.9159 109.611 31.6433C109.611 31.3707 109.611 31.0436 109.584 30.88C109.556 30.7164 109.611 30.4166 109.611 30.4166C109.611 30.4166 109.775 30.3621 110.103 30.4166C110.43 30.4711 110.785 30.5801 111.114 30.7164C111.441 30.8527 111.496 30.9073 111.796 31.1799C112.097 31.4525 112.288 31.5343 112.425 31.8069C112.561 32.0522 112.916 32.5702 112.916 32.8428C112.944 33.1154 112.999 33.7696 112.916 34.1513ZM122.452 31.3976C122.452 31.3976 122.315 30.5798 122.151 30.3072C121.987 30.0346 121.522 29.7074 121.468 29.6529C121.413 29.5984 121.222 29.4893 121.058 29.4076C120.894 29.3258 120.047 29.2985 119.746 29.2985C119.446 29.2985 118.927 29.3531 118.572 29.5166C118.217 29.6802 118.026 29.7892 117.916 29.8983C117.725 30.0618 117.425 30.6616 117.425 30.7706C117.425 30.8797 117.288 31.6429 117.425 31.9973C117.561 32.3517 117.998 33.1696 118.763 33.4149C119.528 33.6602 120.73 33.9601 120.867 34.0419C121.003 34.1237 121.632 34.4236 121.413 35.1051C121.195 35.7866 120.703 36.1955 120.102 36.1409C119.501 36.0864 118.927 35.9229 118.791 35.7593C118.654 35.5957 118.49 35.3232 118.435 35.1051C118.408 35.0233 118.408 34.8324 118.271 34.8324C118.135 34.8324 117.315 34.7779 117.233 34.9142C117.096 35.1596 117.261 35.4594 117.315 35.5957C117.342 35.7321 117.643 36.2773 117.752 36.3863C117.861 36.4953 118.462 37.0406 119.064 37.2587C119.665 37.4767 120.266 37.3949 120.949 37.2587C121.632 37.1223 122.151 36.6044 122.342 36.3045C122.533 36.0047 122.834 35.0506 122.779 34.6416C122.725 34.2327 122.533 33.7693 122.206 33.3604C121.987 33.0878 121.577 32.9787 121.304 32.8969C121.031 32.8152 120.266 32.5971 119.883 32.4608C119.501 32.3244 118.681 31.9156 118.681 31.4521C118.681 31.0704 118.681 30.7979 118.9 30.5798C118.981 30.4707 119.501 30.2799 119.856 30.2799C120.211 30.2799 120.457 30.3617 120.621 30.4435C120.785 30.5253 121.058 30.7706 121.14 30.9342C121.222 31.0977 121.249 31.2613 121.331 31.4248C121.413 31.5884 121.441 31.5067 121.659 31.5067C121.877 31.5067 122.479 31.6702 122.452 31.3976Z"/>
<path fill="#547420" d="M68.5475 11.7977C68.4929 11.4705 68.247 11.2797 67.9465 11.1707C67.6186 11.0343 67.2635 11.0889 66.9903 11.0616C66.5258 11.0071 66.0614 10.8163 65.5969 10.7345C65.2964 10.6527 64.9959 10.5982 64.7227 10.5164C64.4495 10.4346 64.149 10.3801 63.8757 10.3256C63.4113 10.2165 62.9742 10.162 62.4824 10.1347C62.0999 10.1075 61.7175 10.162 61.335 10.2438C60.8705 10.3256 60.4607 10.4346 60.0509 10.5982C59.7231 10.7345 59.3952 10.8981 59.0947 11.0889C58.8488 11.2252 58.6029 11.3615 58.357 11.5251C57.5647 11.9612 56.991 12.3701 56.3626 12.9971C56.4992 12.4247 56.5812 12.0975 56.7178 11.5523C56.8544 11.0889 57.0183 10.7345 57.2915 10.4619C57.5647 10.1893 57.9199 9.99845 58.3844 9.88939C58.7942 9.78034 59.1766 9.69856 59.5591 9.56228C59.8323 9.4805 60.1328 9.26239 60.4061 9.12611C60.6519 8.98978 60.8432 8.908 61.0618 8.68995C61.3623 8.39006 61.5535 8.03567 61.6901 7.654C61.7994 7.38139 61.7994 7.13606 61.9087 6.89073C62.018 6.67261 62.1819 6.45456 62.3185 6.23645C62.4551 6.01839 62.5371 5.773 62.7283 5.58223C62.9469 5.33685 63.22 5.11877 63.4113 4.84616C63.5752 4.62807 63.7118 4.38273 63.7938 4.11012C63.8757 3.83751 63.9304 3.59217 63.8757 3.2923C63.8211 2.96517 63.6299 2.61078 63.384 2.41996C63.1108 2.20187 62.7283 2.14735 62.3731 2.22913C61.936 2.31091 61.5808 2.61078 61.2257 2.85613C61.0071 3.01969 60.8432 3.12874 60.5973 3.26504C60.4061 3.37409 60.1055 3.48312 59.9416 3.61943C59.7504 3.78299 59.5865 4.00108 59.4499 4.21916C59.3405 4.38273 59.2586 4.70986 59.1766 4.90069C58.9854 5.28234 58.7669 5.41864 58.5483 5.7185C58.4117 5.88206 58.2478 6.07289 58.0838 6.23645C57.756 6.61811 57.6194 7.027 57.5101 7.51772C57.4008 7.95389 57.2642 8.33556 57.1003 8.71717C57.0183 8.908 56.9091 9.09884 56.7998 9.26239C56.6085 9.56228 56.4173 9.88939 56.2534 10.1893V9.78034C56.2534 8.908 56.1168 7.84484 56.308 6.89073C56.39 6.50906 56.4992 6.15467 56.6905 5.82756C57.0457 5.28234 57.6467 5.09151 58.0838 4.65534C58.4117 4.30095 58.521 3.86477 58.7669 3.48312C58.9308 3.23778 59.0947 3.04695 59.2586 2.85613C59.4225 2.6653 59.5591 2.44722 59.6684 2.20187C59.7504 1.98379 59.805 1.79296 59.8596 1.57487C59.887 1.35679 59.9143 1.11144 59.9143 0.866097C59.9143 0.811575 59.887 0.811575 59.8323 0.784314C59.2859 0.729791 58.7395 0.784314 58.2478 1.0024C57.9199 1.1387 57.6194 1.35679 57.4008 1.65666C57.2096 1.902 57.073 2.20187 56.9364 2.50174C56.7998 2.80161 56.7724 3.04695 56.6085 3.31956C56.5266 3.45586 56.308 3.67395 56.226 3.81025C56.0075 4.13739 55.8982 4.49177 55.8162 4.90069C55.707 5.36411 55.5977 5.773 55.5704 6.23645C55.543 6.75439 55.5157 7.27239 55.5157 7.79034V9.01706C55.4884 10.6527 55.543 12.2611 55.6796 13.8694C55.625 13.8967 55.5977 13.924 55.543 13.9512C55.4338 14.0058 55.3245 14.1693 55.3245 14.1693L55.0513 14.4964C55.0513 14.4964 55.4064 14.6873 55.5157 14.6873C55.625 14.7146 55.8162 14.6873 56.0075 14.6873H56.4719C56.5812 14.6873 56.8544 14.6328 57.0183 14.5782C57.1823 14.5237 57.3462 14.3874 57.3462 14.3874L57.0457 14.1693L56.7998 14.033C56.7998 14.033 56.6359 13.9785 56.5812 13.924C56.5266 13.924 56.5266 13.8967 56.5266 13.8967C56.7178 13.5423 56.991 13.2152 57.3189 12.9426C57.6467 12.6427 58.0565 12.4247 58.5483 12.2338C58.7669 12.1521 59.0127 12.1248 59.2313 12.1248C59.5865 12.1248 59.9143 12.1248 60.2695 12.0975C60.6246 12.043 60.9798 11.9339 61.335 11.8522C61.6901 11.7704 62.0726 11.7159 62.4004 11.8794C62.701 12.043 63.0015 12.3701 63.2747 12.5337C63.5479 12.6972 63.7391 12.7518 64.0396 12.8608C64.2309 12.9426 64.4768 12.9698 64.6953 12.9971C65.1598 13.0516 65.6242 13.0516 66.0887 12.9426C66.4166 12.8608 66.6898 12.6972 66.9903 12.6154C67.1815 12.5609 67.4547 12.6154 67.646 12.5882C68.0831 12.5337 68.6568 12.3701 68.5475 11.7977Z"/>
</svg>