<?xml version="1.0" encoding="utf-8"?>
<svg xmlns="http://www.w3.org/2000/svg" fill="none" viewBox="0 0 200 40" height="40" width="200">
<g clip-path="url(#clip0_1072_13337)">
<path fill="#231F20" d="M124.015 39.4576V39.5604H124.108C124.125 39.5607 124.143 39.5562 124.158 39.5473C124.164 39.5429 124.169 39.537 124.172 39.5301C124.175 39.5233 124.177 39.5156 124.177 39.508C124.177 39.5005 124.175 39.493 124.172 39.4863C124.169 39.4796 124.164 39.4739 124.158 39.4697C124.143 39.4604 124.125 39.4558 124.108 39.4566H124.015V39.4576ZM124.109 39.3849C124.149 39.3823 124.188 39.3942 124.221 39.4183C124.234 39.4292 124.244 39.4432 124.251 39.459C124.258 39.4748 124.261 39.492 124.26 39.5093C124.261 39.5242 124.258 39.539 124.253 39.5528C124.247 39.5666 124.239 39.579 124.229 39.5892C124.204 39.6116 124.172 39.625 124.139 39.6275L124.264 39.7741H124.168L124.053 39.6286H124.016V39.7741H123.935V39.3851H124.11L124.109 39.3849ZM124.084 39.9083C124.126 39.9087 124.168 39.8999 124.207 39.8826C124.244 39.866 124.278 39.8424 124.307 39.8129C124.335 39.7834 124.358 39.7485 124.374 39.7101C124.407 39.6286 124.407 39.537 124.374 39.4556C124.358 39.4172 124.335 39.3824 124.307 39.3527C124.278 39.3232 124.244 39.2996 124.207 39.2831C124.168 39.2667 124.126 39.2584 124.084 39.2589C124.041 39.2585 123.999 39.2667 123.959 39.2831C123.921 39.2993 123.886 39.3229 123.857 39.3527C123.812 39.3994 123.782 39.4584 123.771 39.5224C123.759 39.5864 123.765 39.6525 123.79 39.7126C123.805 39.7512 123.828 39.7862 123.857 39.8155C123.886 39.8452 123.921 39.8689 123.959 39.8851C123.998 39.9025 124.041 39.9112 124.084 39.9108M124.084 39.1653C124.194 39.1652 124.299 39.2095 124.378 39.2887C124.415 39.3267 124.445 39.3721 124.466 39.4221C124.487 39.4735 124.498 39.5288 124.498 39.5847C124.498 39.6406 124.487 39.6959 124.466 39.7473C124.445 39.7971 124.415 39.8424 124.378 39.8808C124.339 39.9186 124.295 39.949 124.246 39.9707C124.195 39.9931 124.14 40.0045 124.084 40.0041C124.028 40.0046 123.972 39.9932 123.92 39.9707C123.871 39.9495 123.825 39.919 123.787 39.8808C123.75 39.841 123.72 39.7942 123.7 39.743C123.678 39.6916 123.667 39.6363 123.667 39.5804C123.667 39.5245 123.678 39.4692 123.7 39.4178C123.72 39.3677 123.751 39.3224 123.788 39.2844C123.826 39.2454 123.871 39.2148 123.921 39.1944C123.973 39.1719 124.029 39.1605 124.085 39.161M85.8039 37.6633C85.8039 36.9216 86.2764 36.3124 87.0486 36.3124C87.7866 36.3124 88.2846 36.8954 88.2846 37.6633C88.2846 38.4311 87.7866 39.0142 87.0486 39.0142C86.2764 39.0142 85.8039 38.4049 85.8039 37.6633ZM89.1259 37.6633V35.5527H88.2336V36.0669C87.9506 35.6869 87.5214 35.4486 86.9376 35.4486C85.7876 35.4486 84.8851 36.3761 84.8851 37.6643C84.8851 38.9525 85.7871 39.88 86.9376 39.88C87.5211 39.88 87.9506 39.6414 88.2336 39.2617V39.7741H89.1249V37.6633H89.1259ZM119.274 37.6633C119.274 36.9216 119.746 36.3124 120.519 36.3124C121.258 36.3124 121.755 36.8954 121.755 37.6633C121.755 38.4311 121.258 39.0142 120.519 39.0142C119.747 39.0142 119.274 38.4049 119.274 37.6633ZM122.597 37.6633V33.8586H121.704V36.0669C121.421 35.6869 120.992 35.4486 120.408 35.4486C119.258 35.4486 118.355 36.3761 118.355 37.6643C118.355 38.9525 119.257 39.88 120.408 39.88C120.992 39.88 121.421 39.6414 121.704 39.2617V39.7741H122.597V37.6633ZM100.2 36.2689C100.775 36.2689 101.144 36.6396 101.238 37.2923H99.1094C99.2046 36.6831 99.5644 36.2689 100.2 36.2689M100.218 35.4463C99.0154 35.4463 98.1741 36.346 98.1741 37.662C98.1741 39.0036 99.0491 39.8777 100.278 39.8777C100.896 39.8777 101.462 39.7191 101.96 39.2864L101.522 38.6065C101.178 38.8892 100.74 39.0478 100.329 39.0478C99.7536 39.0478 99.2301 38.7741 99.1014 38.0144H102.148C102.157 37.9003 102.166 37.7851 102.166 37.6617C102.157 36.3463 101.366 35.446 100.217 35.446M110.99 37.6617C110.99 36.9201 111.462 36.3108 112.235 36.3108C112.973 36.3108 113.471 36.8939 113.471 37.6617C113.471 38.4296 112.973 39.0126 112.235 39.0126C111.462 39.0126 110.99 38.4034 110.99 37.6617M114.312 37.6617V35.5527H113.42V36.0669C113.136 35.6869 112.708 35.4486 112.124 35.4486C110.974 35.4486 110.071 36.3761 110.071 37.6643C110.071 38.9525 110.973 39.88 112.124 39.88C112.708 39.88 113.136 39.6414 113.42 39.2617V39.7741H114.312V37.6633L114.312 37.6617ZM105.951 37.6617C105.951 38.9417 106.818 39.8774 108.14 39.8774C108.758 39.8774 109.17 39.736 109.615 39.3743L109.187 38.6327C108.852 38.8802 108.5 39.0126 108.112 39.0126C107.399 39.0036 106.876 38.4741 106.876 37.6617C106.876 36.8494 107.399 36.3201 108.112 36.3108C108.499 36.3108 108.851 36.4432 109.187 36.6908L109.615 35.9491C109.169 35.5874 108.757 35.446 108.14 35.446C106.818 35.446 105.951 36.3815 105.951 37.6617ZM117.454 35.446C116.939 35.446 116.604 35.6936 116.372 36.0643V35.5527H115.488V39.7718H116.381V37.4067C116.381 36.7085 116.673 36.3206 117.256 36.3206C117.447 36.3178 117.637 36.3538 117.814 36.4268L118.089 35.562C117.891 35.482 117.634 35.4468 117.453 35.4468M93.5371 35.8882C93.1079 35.5972 92.5164 35.4468 91.8639 35.4468C90.8244 35.4468 90.1551 35.9592 90.1551 36.7975C90.1551 37.4854 90.6534 37.9098 91.5709 38.0422L91.9924 38.1039C92.4816 38.1746 92.7126 38.307 92.7126 38.5453C92.7126 38.8715 92.3876 39.0576 91.7774 39.0576C91.1594 39.0576 90.7134 38.8545 90.4126 38.6162L89.9934 39.3317C90.4826 39.7023 91.1006 39.8792 91.7699 39.8792C92.9549 39.8792 93.6416 39.3054 93.6416 38.5021C93.6416 37.7604 93.1011 37.3725 92.2081 37.2401L91.7876 37.1774C91.4014 37.126 91.0919 37.046 91.0919 36.7633C91.0919 36.4548 91.3836 36.2692 91.8731 36.2692C92.3969 36.2692 92.9039 36.4723 93.1524 36.6309L93.5386 35.8892L93.5371 35.8882ZM105.05 35.4476C104.535 35.4476 104.2 35.6951 103.969 36.0658V35.5527H103.085V39.7718H103.977V37.4067C103.977 36.7085 104.269 36.3206 104.852 36.3206C105.043 36.3178 105.233 36.3538 105.41 36.4268L105.685 35.562C105.488 35.482 105.23 35.4468 105.049 35.4468M97.4359 35.5527H95.9769V34.2728H95.0749V35.5527H94.2426V36.3913H95.0749V38.316C95.0749 39.2949 95.4444 39.8779 96.4999 39.8779C96.8871 39.8779 97.3331 39.7545 97.6161 39.5517L97.3584 38.7661C97.0921 38.9247 96.8004 39.0047 96.5684 39.0047C96.1224 39.0047 95.9769 38.7219 95.9769 38.2985V36.3921H97.4359V35.5527ZM84.0961 39.7728V37.125C84.0961 36.1278 83.4781 35.4568 82.4819 35.4478C81.9581 35.4389 81.4179 35.6065 81.0396 36.1985C80.7566 35.7306 80.3106 35.4478 79.6836 35.4478C79.2454 35.4478 78.8171 35.5802 78.4819 36.0743V35.5527H77.5889V39.7718H78.4889V37.4324C78.4889 36.7 78.8839 36.3108 79.4939 36.3108C80.0864 36.3108 80.3861 36.708 80.3861 37.4232V39.7712H81.2881V37.4319C81.2881 36.6995 81.6999 36.3103 82.2921 36.3103C82.9014 36.3103 83.1921 36.7075 83.1921 37.4227V39.7707L84.0961 39.7728Z"/>
<path fill="#F79410" d="M124.523 25.7383V25.1213H124.367L124.186 25.5447L124.007 25.1213H123.85V25.7383H123.961V25.2735L124.13 25.6746H124.245L124.414 25.2725V25.7383H124.524H124.523ZM123.532 25.7383V25.227H123.732V25.1229H123.221V25.227H123.421V25.7383H123.531H123.532Z"/>
<path fill="#FF5F00" d="M106.764 28.3844H93.2427V3.39722H106.764L106.764 28.3844Z"/>
<path fill="#EB001B" d="M94.1 15.891C94.1 10.8224 96.408 6.30723 100.002 3.39746C97.2815 1.19167 93.9167 -0.00549059 90.4523 -0.000226857C81.918 -0.000226857 75 7.11443 75 15.891C75 24.6676 81.918 31.7823 90.4523 31.7823C93.9168 31.7876 97.2817 30.5905 100.002 28.3846C96.4085 25.4754 94.1 20.9599 94.1 15.891Z"/>
<path fill="#F79E1B" d="M125.006 15.8913C125.006 24.6679 118.088 31.7825 109.554 31.7825C106.089 31.7878 102.724 30.5906 100.003 28.3849C103.598 25.4751 105.906 20.9602 105.906 15.8913C105.906 10.8224 103.598 6.30747 100.003 3.3977C102.724 1.19198 106.089 -0.00515419 109.554 1.66811e-05C118.088 1.66811e-05 125.006 7.11467 125.006 15.8913"/>
</g>
<defs>
<clipPath id="clip0_1072_13337">
<rect transform="translate(75)" fill="white" height="40" width="50"/>
</clipPath>
</defs>
</svg>