<?xml version="1.0" encoding="utf-8"?>
<svg xmlns="http://www.w3.org/2000/svg" fill="none" viewBox="0 0 200 40" height="40" width="200">
<path fill="#2A2A2A" d="M176.599 4.27738C176.747 4.06322 176.875 3.8536 176.982 3.64917H178.053C178.011 3.85165 177.956 4.06062 177.89 4.27738H176.599ZM175.509 5.5721C175.726 5.35144 175.924 5.13339 176.105 4.91857H177.665C177.583 5.13144 177.488 5.34885 177.384 5.5721H175.508H175.509ZM173.98 6.96546C174.27 6.72533 174.541 6.4891 174.798 6.25742H177.043C176.919 6.48781 176.785 6.72468 176.641 6.96546H173.98ZM172.007 8.47433C172.358 8.22361 172.705 7.96722 173.048 7.70529H176.176C176.011 7.9571 175.833 8.21409 175.646 8.47433H172.007ZM169.407 10.2233C169.888 9.91637 170.352 9.61329 170.795 9.31476H175.016C174.782 9.61394 174.536 9.91702 174.277 10.2233H169.407ZM166.02 12.2871C166.641 11.925 167.24 11.5667 167.82 11.2137H173.408C173.076 11.5777 172.737 11.9356 172.391 12.2871H166.02ZM161.646 14.7519C162.428 14.3251 163.208 13.8929 163.985 13.4553H171.195C170.726 13.8973 170.249 14.3296 169.762 14.7519H161.646ZM156.014 17.7989C156.991 17.2557 157.973 16.722 158.96 16.1978H168.028C167.369 16.7229 166.7 17.2341 166.02 17.7314L165.928 17.7989H156.014H156.014ZM149.89 21.5597C150.885 20.8688 151.902 20.2095 152.938 19.5829H163.38C162.351 20.278 161.355 20.9283 160.398 21.5597H149.89ZM144.306 26.3635C145.138 25.4585 146.025 24.6059 146.962 23.8104H157.096C155.985 24.6164 154.936 25.4471 153.957 26.3635H144.306Z" clip-rule="evenodd" fill-rule="evenodd"/>
<mask height="34" width="31" y="3" x="149" maskUnits="userSpaceOnUse" style="mask-type:luminance" id="mask0_985_13381">
<path fill="#2A2A2A" d="M149.702 3.00415H179.878V36.0982H149.702V3.00415Z"/>
</mask>
<g mask="url(#mask0_985_13381)">
<path fill="#2A2A2A" d="M149.702 36.0982C152.956 25.5393 158.294 25.0993 167.294 17.8152C175.066 11.524 178.32 6.17831 178.468 3.00415H178.725C178.73 3.18197 178.725 3.36498 178.711 3.55124H179.694C179.723 3.75891 179.749 3.96659 179.771 4.17426H178.638C178.605 4.38193 178.561 4.59415 178.508 4.81026H179.829C179.843 5.02572 179.856 5.24183 179.864 5.45924H178.322C178.252 5.68054 178.171 5.90704 178.08 6.13742H179.878C179.878 6.37106 179.875 6.60469 179.868 6.84027H177.783C177.671 7.08768 177.552 7.33221 177.427 7.57362H179.829C179.811 7.82672 179.789 8.08177 179.76 8.33552H177.012C176.855 8.60939 176.688 8.88715 176.511 9.16946H179.656C179.611 9.46928 179.562 9.76976 179.505 10.0702H175.917C175.689 10.4018 175.454 10.7291 175.214 11.0521H179.299C179.217 11.4088 179.128 11.7637 179.031 12.1165H174.391C174.078 12.5082 173.758 12.8946 173.432 13.2756H178.682C178.542 13.7078 178.392 14.1367 178.231 14.5618H172.293C171.86 15.033 171.409 15.5106 170.936 15.9948H177.651C177.42 16.5301 177.176 17.0594 176.918 17.5822H169.337C168.734 18.1643 168.102 18.7542 167.443 19.3513H175.985C175.613 20.0148 175.224 20.6683 174.817 21.3112H165.191C164.278 22.0717 163.351 22.8159 162.411 23.5437H173.315C172.697 24.4064 172.055 25.2507 171.387 26.0754H159.217C156.421 28.437 154.557 30.7694 153.006 36.0982H149.702Z" clip-rule="evenodd" fill-rule="evenodd"/>
</g>
<mask height="34" width="159" y="3" x="21" maskUnits="userSpaceOnUse" style="mask-type:luminance" id="mask1_985_13381">
<path fill="#2A2A2A" d="M21 36.098H180V3H21V36.098Z"/>
</mask>
<g mask="url(#mask1_985_13381)">
<path fill="#2A2A2A" d="M125.994 15.7278H129.371V13.1773H125.994V15.7278ZM74.5369 15.7278H77.9155V13.1773H74.5376L74.5369 15.7278ZM40.4635 15.7278H43.8415V13.1773H40.4629L40.4635 15.7278ZM95.0362 21.0001L101.808 26.3029H97.3537L90.5408 21.0007H86.5048V26.3061H83.1937V12.0857L97.98 12.0876C99.7783 12.0876 100.249 13.786 100.249 14.1449V18.8649C100.249 19.9111 99.3137 21.0001 98.0008 21.0001H95.0362ZM86.5048 18.2309H96.9715V14.8601H86.5048V18.2309ZM137.969 13.1883V23.6129H140.208L141.71 26.3061H137.563C135.945 26.3061 134.633 25.345 134.633 24.1613C134.633 24.1613 134.656 16.4741 134.643 13.1883H137.968H137.969ZM64.4167 24.2644L67.7168 16.9375H71.0441L67.5695 24.8732C67.2456 25.7 66.9387 26.2945 64.9638 26.2945L63.5387 26.2925C61.887 26.2925 61.5943 25.6786 61.2549 24.8505L59.3008 20.0091L57.3461 24.8505C57.0073 25.6786 56.7146 26.2925 55.063 26.2925L53.6378 26.2945C51.661 26.2945 51.3547 25.7 51.0315 24.8732L47.5517 16.9031H50.8784L54.1836 24.2644L57.5369 16.9115H61.1537L64.4167 24.2644ZM107.458 24.3994H117.455V22.0975H107.458V24.3994ZM109.308 20.207H117.456L117.438 18.6495L107.532 18.6138L106.123 16.9264H118.758C119.869 16.9264 120.757 17.2444 120.746 18.4191C120.722 20.9929 120.762 26.2925 120.762 26.2925L106.34 26.2906C104.622 26.2906 104.173 25.1321 104.173 24.8855V21.6646C104.173 20.9482 105.066 20.2077 106.32 20.2077L109.308 20.207ZM40.4778 26.3632H43.8369V16.9096H40.4785L40.4778 26.3632ZM74.6252 26.3029H77.9155V16.9102H74.6252V26.3029ZM126.073 26.3146H129.371V16.9096H126.073V26.3146ZM28.8007 18.6294L38.2732 26.3029H33.8732L26.4086 20.2479L24.3046 21.6873V26.3061H21V12.1506H24.3053V18.3977L33.4513 12.1564H38.2538L28.8014 18.6287L28.8007 18.6294Z" clip-rule="evenodd" fill-rule="evenodd"/>
</g>
</svg>