<?xml version="1.0" encoding="utf-8"?>
<svg xmlns="http://www.w3.org/2000/svg" fill="none" viewBox="0 0 200 40" height="40" width="200">
<path fill="#008854" d="M86.6489 23.0596C88.0267 22.545 89.2546 21.9113 89.6378 21.6602C90.3239 21.2037 90.4279 20.5665 90.1244 19.8783C89.1599 17.7095 86.9732 15.4375 83.3477 16.13C80.4599 16.6812 78.396 19.2805 78.396 22.2515C78.396 25.9323 80.6128 28.0816 83.4338 28.7526C86.0424 29.3712 89.2123 28.0967 90.4674 25.8957C90.654 25.3811 90.1402 24.4532 89.1419 24.5386C88.5233 25.2433 87.4569 26.0327 86.5965 26.309C85.7884 26.5688 83.4733 26.7683 82.7966 24.8666C82.6372 24.4159 82.7657 24.2846 83.1396 24.2142C83.3355 24.1712 85.1361 23.6229 86.6489 23.0596ZM85.2495 21.6874L84.2082 22.034C83.1977 22.3764 82.7076 22.4474 82.4722 21.7951C82.1873 21.0143 82.4629 18.5456 83.7424 18.1602C85.0995 17.7497 85.9628 18.4171 86.3733 19.8108C86.5261 20.3246 86.496 20.87 86.3245 21.0724C86.079 21.3724 85.6449 21.5532 85.2495 21.6874Z" clip-rule="evenodd" fill-rule="evenodd"/>
<path fill="#008854" d="M146.185 23.0596C147.563 22.545 148.791 21.9113 149.174 21.6602C149.863 21.2037 149.965 20.5665 149.658 19.8783C148.697 17.7095 146.51 15.4375 142.884 16.13C139.997 16.6812 137.933 19.2805 137.933 22.2515C137.933 25.9323 140.149 28.0816 142.97 28.7526C145.579 29.3712 148.749 28.0967 150.004 25.8957C150.194 25.3811 149.677 24.4532 148.679 24.5386C148.06 25.2433 146.994 26.0327 146.133 26.309C145.325 26.5688 143.01 26.7683 142.336 24.8666C142.174 24.4159 142.302 24.2846 142.679 24.2142C142.875 24.1712 144.673 23.6229 146.185 23.0596ZM144.789 21.6874L143.745 22.034C142.734 22.3764 142.244 22.4474 142.009 21.7951C141.724 21.0143 141.999 18.5456 143.279 18.1602C144.636 17.7497 145.497 18.4171 145.91 19.8108C146.063 20.3246 146.033 20.87 145.861 21.0724C145.616 21.3724 145.181 21.5532 144.789 21.6874Z" clip-rule="evenodd" fill-rule="evenodd"/>
<path fill="#008854" d="M120.429 23.0596C121.807 22.545 123.035 21.9113 123.418 21.6602C124.104 21.2037 124.208 20.5665 123.901 19.8783C122.94 17.7095 120.75 15.4375 117.127 16.13C114.24 16.6812 112.176 19.2805 112.176 22.2515C112.176 25.9323 114.393 28.0816 117.213 28.7526C119.822 29.3712 122.992 28.0967 124.247 25.8957C124.434 25.3811 123.92 24.4532 122.921 24.5386C122.303 25.2433 121.237 26.0327 120.376 26.309C119.568 26.5688 117.253 26.7683 116.576 24.8666C116.417 24.4159 116.545 24.2846 116.919 24.2142C117.115 24.1712 118.916 23.6229 120.429 23.0596ZM119.029 21.6874L117.988 22.034C116.975 22.3764 116.484 22.4474 116.252 21.7951C115.967 21.0143 116.24 18.5456 117.522 18.1602C118.879 17.7497 119.74 18.4171 120.153 19.8108C120.306 20.3246 120.276 20.87 120.101 21.0724C119.859 21.3724 119.424 21.5532 119.029 21.6874Z" clip-rule="evenodd" fill-rule="evenodd"/>
<path fill="#008854" d="M96.1819 25.1113C96.1819 25.1084 96.1819 17.3328 96.1819 16.9905C96.1819 16.7149 96.0226 16.5527 95.747 16.5527C95.447 16.5527 91.683 16.5527 91.683 16.5527C91.3708 16.5527 91.3034 16.6137 91.233 16.9137C91.172 17.1742 91.2058 17.3852 91.1814 17.7038C91.157 18.016 91.3464 18.0347 91.5883 18.1603C91.6952 18.2119 91.7691 18.2887 91.8545 18.3375C92.115 18.4846 92.2499 18.9776 92.2528 19.7828V25.1113C92.2499 26.2079 91.8918 26.5846 91.5732 26.7346C91.4691 26.7834 91.3773 26.8566 91.2481 26.9119C90.9517 27.0375 90.8993 27.1752 90.9453 27.4874C90.9668 27.6252 90.9331 28.0142 91.0099 28.2775C91.0953 28.5782 91.1778 28.6364 91.561 28.6364H96.8801C97.2598 28.6364 97.3423 28.5782 97.4313 28.2775C97.5045 28.0142 97.4923 27.6252 97.5138 27.4874C97.5598 27.1752 97.5081 27.0253 97.211 26.9025C97.0818 26.8473 96.9871 26.7834 96.883 26.7346C96.568 26.5846 96.1819 26.2079 96.1819 25.1113Z" clip-rule="evenodd" fill-rule="evenodd"/>
<path fill="#008854" d="M93.8994 15.8451C95.0907 15.8423 96.0552 14.9144 96.0552 13.769C96.0552 12.6236 95.0907 11.6929 93.8994 11.6929C92.7081 11.6929 91.7437 12.6236 91.7437 13.769C91.7437 14.9144 92.7081 15.8423 93.8994 15.8451Z" clip-rule="evenodd" fill-rule="evenodd"/>
<path fill="#008854" d="M103.623 20.7904C103.623 19.5747 104.297 18.8887 105.121 18.7875C105.656 18.7172 106.349 19.0996 106.349 20.0154C106.349 20.8177 106.349 24.5114 106.349 26.2997C106.349 28.0845 107.87 28.7706 109.059 28.7706C110.318 28.7706 111.405 28.1921 111.876 27.1781C112.021 26.8717 111.852 26.6083 111.69 26.4461C111.487 26.2473 111.352 26.0758 111.062 26.2229C110.707 26.3945 110.158 27.0224 110.158 26.045C110.158 25.0805 110.134 22.0212 110.137 19.5683C110.134 17.4771 109.148 16.5764 108.048 16.2334C106.747 15.8265 105.17 16.4939 104.368 16.8735C103.957 17.0694 103.752 17.1742 103.752 17.1742C103.752 17.1742 103.645 16.9991 103.599 16.8922C103.467 16.5951 103.427 16.4142 103.072 16.4171L99.1676 16.4207C98.8525 16.4207 98.7851 16.4817 98.7147 16.7788C98.653 17.0393 98.6867 17.2532 98.6623 17.5718C98.638 17.884 98.8281 17.8998 99.07 18.0253C99.1769 18.0806 99.2501 18.1538 99.3362 18.2026C99.5967 18.3533 99.774 18.8427 99.774 19.6508V25.1113C99.774 26.2071 99.3728 26.5839 99.0578 26.7346C98.9501 26.7834 98.8583 26.8566 98.7327 26.9119C98.4356 27.0375 98.381 27.1753 98.427 27.4874C98.4478 27.6252 98.4148 28.0142 98.4908 28.2775C98.577 28.5775 98.6595 28.6356 99.042 28.6356H104.322C104.704 28.6356 104.787 28.5775 104.873 28.2775C104.946 28.0142 104.934 27.6252 104.955 27.4874C105.001 27.1753 104.95 27.0253 104.652 26.9025C104.527 26.8473 104.431 26.7834 104.327 26.7346C104.009 26.5839 103.623 26.2071 103.623 25.1113V20.7904Z" clip-rule="evenodd" fill-rule="evenodd"/>
<path fill="#008854" d="M155.657 20.7904C155.657 19.5747 156.331 18.8887 157.155 18.7875C157.687 18.7172 158.382 19.0996 158.382 20.0154C158.382 20.8177 158.382 24.5114 158.382 26.2997C158.382 28.0845 159.904 28.7706 161.089 28.7706C162.351 28.7706 163.438 28.1921 163.91 27.1781C164.053 26.8717 163.885 26.6083 163.72 26.4461C163.521 26.2473 163.386 26.0758 163.092 26.2229C162.74 26.3945 162.192 27.0224 162.192 26.045C162.192 25.0805 162.167 22.0212 162.167 19.5683C162.167 17.4771 161.181 16.5764 160.082 16.2334C158.78 15.8265 157.203 16.4939 156.401 16.8735C155.988 17.0694 155.785 17.1742 155.785 17.1742C155.785 17.1742 155.678 16.9991 155.629 16.8922C155.5 16.5951 155.461 16.4142 155.106 16.4171L151.198 16.4207C150.886 16.4207 150.819 16.4817 150.748 16.7788C150.687 17.0393 150.72 17.2532 150.696 17.5718C150.671 17.884 150.862 17.8998 151.103 18.0253C151.208 18.0806 151.284 18.1538 151.37 18.2026C151.63 18.3533 151.805 18.8427 151.807 19.6508V25.1113C151.805 26.2071 151.406 26.5839 151.088 26.7346C150.984 26.7834 150.892 26.8566 150.763 26.9119C150.466 27.0375 150.415 27.1753 150.46 27.4874C150.478 27.6252 150.448 28.0142 150.524 28.2775C150.61 28.5775 150.693 28.6356 151.073 28.6356H156.355C156.738 28.6356 156.82 28.5775 156.906 28.2775C156.98 28.0142 156.967 27.6252 156.989 27.4874C157.035 27.1753 156.983 27.0253 156.686 26.9025C156.56 26.8473 156.465 26.7834 156.361 26.7346C156.043 26.5839 155.657 26.2071 155.657 25.1113V20.7904Z" clip-rule="evenodd" fill-rule="evenodd"/>
<path fill="#008854" d="M137.95 26.9026C137.825 26.8474 137.022 26.7282 136.542 25.8463L133.617 20.4962L135.396 18.7789C135.396 18.7789 135.862 18.3405 136.205 18.108C136.551 17.8754 136.979 17.7219 137.142 17.6946C137.283 17.6731 137.409 17.5417 137.366 16.8435C137.329 16.2335 137.213 16.1911 137.066 16.1725C136.995 16.1667 136.725 16.1574 136.725 16.1574C136.725 16.1574 135.519 16.1753 134.545 16.1789C133.574 16.1753 132.206 16.1574 132.206 16.1574C132.206 16.1574 131.936 16.1667 131.865 16.1725C131.716 16.1911 131.605 16.2335 131.563 16.8435C131.522 17.3946 131.566 17.5503 131.691 17.6085C131.82 17.6666 131.97 17.7254 132.157 17.851C132.414 18.0225 132.496 18.2335 132.26 18.4689C132.022 18.705 131.039 19.7219 131.039 19.7248L129.851 20.7108L129.854 12.9201C129.814 12.2771 129.639 11.9893 128.941 11.9922L125.214 11.9958C124.902 11.9958 124.782 12.0568 124.712 12.3539C124.651 12.6144 124.666 12.7608 124.642 13.0766C124.614 13.3923 124.807 13.4103 125.049 13.533C125.153 13.5883 125.359 13.6981 125.444 13.744C125.867 13.9894 125.995 14.2313 125.995 15.2266V25.1114C125.995 26.2072 125.643 26.584 125.328 26.7347C125.224 26.7835 125.132 26.8567 125.003 26.912C124.706 27.0375 124.651 27.1753 124.7 27.4875C124.719 27.6253 124.688 28.0142 124.764 28.2776C124.85 28.5776 124.933 28.6357 125.312 28.6357H130.586C130.968 28.6357 131.051 28.5776 131.137 28.2776C131.21 28.0142 131.201 27.6253 131.22 27.4875C131.266 27.1753 131.213 27.0253 130.917 26.9026C130.79 26.8474 130.696 26.7799 130.592 26.7347C129.973 26.4462 129.848 25.8247 129.848 24.8172V24.1038L130.917 23.2283L133.712 28.3056C133.859 28.5776 133.899 28.6357 134.279 28.6357H137.62C138.003 28.6357 138.085 28.5776 138.171 28.2776C138.247 28.0142 138.232 27.6253 138.253 27.4875C138.303 27.1753 138.247 27.0253 137.95 26.9026Z" clip-rule="evenodd" fill-rule="evenodd"/>
<path fill="#008854" d="M159.99 13.0098C159.99 14.3202 161.053 15.3801 162.363 15.3801C163.671 15.3801 164.734 14.3202 164.734 13.0098C164.734 11.6994 163.671 10.6394 162.363 10.6394C161.053 10.6394 159.99 11.6994 159.99 13.0098ZM162.363 14.8749C161.331 14.8749 160.495 14.0417 160.495 13.0098C160.495 11.9807 161.331 11.1446 162.363 11.1446C163.393 11.1446 164.225 11.9807 164.225 13.0098C164.225 14.0417 163.393 14.8749 162.363 14.8749Z" clip-rule="evenodd" fill-rule="evenodd"/>
<path fill="#008854" d="M161.387 14.1609H161.972V13.1626C161.972 13.1626 162.005 13.1691 162.204 13.1777C162.498 13.1899 162.651 13.2423 162.737 13.5179C162.798 13.7045 162.829 13.8853 162.948 14.1609C163.206 14.1666 163.279 14.1666 163.549 14.1666C163.484 14.0044 163.39 13.815 163.349 13.5423C163.304 13.2638 163.212 13.1074 163.001 12.9667C163.19 12.8993 163.383 12.6603 163.383 12.3173C163.383 11.7754 162.817 11.6068 162.608 11.6068C162.404 11.6068 161.387 11.6068 161.387 11.6068V14.1609ZM162.447 12.6574C162.247 12.6574 161.974 12.6574 161.974 12.6574V12.0726C161.974 12.0726 162.204 12.0726 162.385 12.0726C162.566 12.0726 162.78 12.1493 162.78 12.351C162.78 12.5283 162.643 12.6574 162.447 12.6574Z" clip-rule="evenodd" fill-rule="evenodd"/>
<path fill="#008854" d="M76.751 24.8236V15.6924C76.751 14.4028 76.8644 13.9952 77.3115 13.8179C77.5684 13.7139 77.976 13.5237 78.1045 13.4655C78.2272 13.411 78.3033 13.2452 78.2516 12.7953C78.2057 12.3633 78.1597 12.1185 78.0492 12.0819C77.9975 12.0633 77.8533 12.054 77.6423 12.0511C77.0668 12.0389 72.0016 12.0482 72.0016 12.0482C72.0016 12.0482 71.6005 12.0446 71.533 12.0661C71.4347 12.0905 71.3673 12.2621 71.3278 12.7429C71.2819 13.2912 71.3307 13.411 71.4591 13.4655C71.5883 13.5237 71.8761 13.7139 72.0748 13.8179C72.4208 13.9952 72.565 14.4028 72.565 15.6924L72.5435 17.9551C72.5435 18.1482 72.3842 18.3068 72.1882 18.3068H68.9818C68.7888 18.3068 68.6302 18.1482 68.6302 17.9551L68.6086 15.6924C68.6086 14.4028 68.7493 13.9952 69.0952 13.8179C69.2947 13.7139 69.5911 13.5359 69.7138 13.4655C69.9585 13.3249 69.7963 12.2535 69.6743 12.1063C69.5789 11.9901 69.2057 12.0324 69.2057 12.0324L63.5191 12.0295C63.5191 12.0295 63.1668 12.0633 63.1237 12.0819C62.9185 12.1673 62.747 13.3522 62.9981 13.4655C63.1266 13.5237 63.5342 13.7139 63.7947 13.8179C64.2382 13.9952 64.4219 14.4028 64.4219 15.6924V24.8236C64.4219 26.2754 64.0947 26.4771 63.6691 26.701C63.3598 26.8603 63.1051 26.8754 62.9436 27.105C62.7843 27.3318 62.9249 28.5137 63.1237 28.6149C63.2098 28.6573 63.611 28.6573 63.611 28.6573L69.4232 28.6544C69.4232 28.6544 69.8121 28.6393 69.9097 28.6149C70.1243 28.5568 70.247 27.3318 70.0877 27.105C69.9284 26.8754 69.6743 26.8603 69.365 26.701C68.9359 26.4771 68.6115 26.2754 68.6115 24.8236L68.6302 21.1795C68.6302 20.9835 68.7888 20.8271 68.9818 20.8271H72.1882C72.3842 20.8271 72.5435 20.9835 72.5435 21.1795L72.5621 24.8236C72.5621 26.2754 72.2277 26.4649 71.8086 26.701C71.6428 26.79 71.101 26.955 70.9998 27.1021C70.8836 27.2643 71.0336 28.5202 71.2481 28.6056C71.3429 28.6422 71.6005 28.6515 71.6005 28.6515L77.6667 28.6544C77.6667 28.6544 78.0097 28.63 78.0492 28.6149C78.2544 28.5259 78.3894 27.3318 78.23 27.105C78.0679 26.8754 77.8138 26.8603 77.5045 26.701C77.0789 26.4771 76.751 26.2754 76.751 24.8236Z" clip-rule="evenodd" fill-rule="evenodd"/>
<path fill="#FF0000" d="M54.4842 30.7372L47.8672 25.937L40.6077 30.673L43.0902 22.6927L36 17.2828L44.6504 17.2448L47.642 9L50.1822 17.0327L58.985 17.1696L52.2409 22.3282L54.4842 30.7372Z"/>
</svg>