<?xml version="1.0" encoding="utf-8"?>
<svg xmlns="http://www.w3.org/2000/svg" fill="none" viewBox="0 0 150 46" height="46" width="150">
<path fill="white" d="M94.8281 4.28851H56.1914V41.7072H94.8281V4.28851Z"/>
<path fill="#008061" d="M95 4H56V41.8993H95V4Z"/>
<path fill="white" d="M80.0413 39.3992V40.9165H70.692V39.3992H63.6186C62.9239 39.3992 62.3687 38.6725 62.3687 37.7859L59.3979 7.82517C59.3979 6.93853 60.0926 6.21185 60.9473 6.21185H89.5506C90.3946 6.21185 91.0893 6.93853 91.0893 7.82517L88.1612 37.7752C88.1612 38.6618 87.5953 39.3885 86.9112 39.3885L80.0413 39.3992Z"/>
<path fill="#F5821F" d="M64.6006 10.5923H83.7479C81.8672 11.2977 76.1185 15.187 74.6873 17.7936H64.6112L64.6006 10.5923Z"/>
<path fill="#ED1B2D" d="M79.869 31.2465C79.591 33.8538 79.5803 37.0378 79.5803 40.3711H71.2783C71.2783 37.037 71.417 33.8531 71.695 31.2465H79.869Z"/>
<path fill="#008061" d="M67.0259 27.475V28.4789H65.7013V29.4943H67.0259V30.659H63.9912V25.2629H67.0259V26.4596H65.7013V27.475H67.0259Z"/>
<path fill="#008061" d="M74.0775 27.475V28.4789H72.7635V29.4943H74.0775V30.659H71.0542V25.2629H74.0775V26.4596H72.7635V27.475H74.0775Z"/>
<path fill="#008061" d="M81.8577 27.475V28.4789H80.533V29.4943H81.8577V30.659H78.8237V25.2629H81.8577V26.4596H80.533V27.475H81.8577Z"/>
<path fill="#008061" d="M69.3035 25.2629V29.4943H70.6289V30.659H67.5942V25.2629H69.3035Z"/>
<path fill="#008061" d="M76.5363 28.9062L75.8843 25.2629H74.3989L75.2429 30.659H77.4336L78.4596 25.2629H77.1982L76.5363 28.9062Z"/>
<path fill="#008061" d="M84.2069 25.2629H82.5723V30.659H84.2069V25.2629Z"/>
<path fill="#008061" d="M84.2183 26.8658C84.3036 26.2778 85.1476 26.4385 85.1476 26.7698V30.6592H86.7929V26.0858C86.7929 25.1139 85.4248 24.7292 84.2282 25.5838L84.2183 26.8658Z"/>
<path fill="#ED1B2D" d="M80.6397 24.5044C80.8103 22.4424 83.6317 19.0657 86.3777 18.1791V10.2184C78.8451 13.5951 73.9404 18.6917 72.8823 24.4831L80.6397 24.5044Z"/>
</svg>