<?xml version="1.0" encoding="utf-8"?>
<svg xmlns="http://www.w3.org/2000/svg" fill="none" viewBox="0 0 200 40" height="40" width="200">
<path fill="#3697E9" d="M73.1175 30.0296C73.1173 30.5299 73.0163 31.025 72.8205 31.4854C72.6247 31.9458 72.3381 32.362 71.9778 32.7092C71.6176 33.0564 71.191 33.3274 70.7237 33.506C70.2564 33.6847 69.7579 33.7673 69.2579 33.749C68.2844 33.7155 67.3629 33.3012 66.6918 32.5952C66.0207 31.8892 65.6536 30.948 65.6694 29.974C65.674 29.4846 65.7756 29.001 65.9683 28.5511C66.161 28.1011 66.4409 27.6939 66.7919 27.3528C67.143 27.0117 67.5581 26.7436 68.0134 26.564C68.4687 26.3843 68.955 26.2967 69.4444 26.3062C70.4244 26.3156 71.3608 26.7125 72.049 27.4102C72.7373 28.1079 73.1214 29.0496 73.1175 30.0296ZM69.406 16.3211C71.3914 16.2933 73.1215 17.944 73.1175 20.0471C73.1185 20.5404 73.0211 21.029 72.8311 21.4842C72.6411 21.9394 72.3623 22.3523 72.011 22.6985C71.6597 23.0448 71.2429 23.3176 70.7849 23.501C70.327 23.6844 69.8371 23.7747 69.3439 23.7666C68.8558 23.7619 68.3734 23.661 67.9244 23.4695C67.4755 23.278 67.0687 22.9999 66.7275 22.6509C66.3862 22.3019 66.1172 21.889 65.9359 21.4358C65.7545 20.9826 65.6644 20.4982 65.6707 20.0101C65.6866 17.8647 67.4577 16.2814 69.406 16.3211ZM62.4446 30.019C62.479 32.0375 60.7873 33.794 58.6458 33.7477C57.677 33.7043 56.7633 33.2848 56.099 32.5783C55.4346 31.8719 55.072 30.9341 55.0882 29.9645C55.1044 28.9949 55.4981 28.0698 56.1857 27.3859C56.8733 26.702 57.8004 26.3132 58.7702 26.3022C59.7499 26.3092 60.6868 26.7044 61.3756 27.4011C62.0644 28.0978 62.4489 29.0393 62.4446 30.019ZM69.373 13.7775C68.8784 13.7766 68.3891 13.6769 67.9337 13.4842C67.4782 13.2915 67.0659 13.0098 66.7209 12.6555C66.3759 12.3013 66.1051 11.8816 65.9245 11.4213C65.744 10.9609 65.6572 10.4691 65.6694 9.97473C65.6833 8.99664 66.0842 8.0639 66.7843 7.38069C67.4843 6.69749 68.4266 6.31946 69.4047 6.32935C69.894 6.32829 70.3786 6.42418 70.8306 6.61149C71.2826 6.79879 71.693 7.0738 72.0381 7.42062C72.3832 7.76744 72.6561 8.1792 72.8412 8.63212C73.0262 9.08504 73.1197 9.57013 73.1162 10.0594C73.1169 10.55 73.0204 11.0358 72.8322 11.4889C72.6441 11.942 72.368 12.3533 72.0199 12.699C71.6718 13.0447 71.2587 13.318 70.8044 13.5032C70.35 13.6883 69.8635 13.7815 69.373 13.7775ZM62.4446 20.0392C62.4777 21.9875 60.8957 23.7362 58.7794 23.7626C58.2812 23.7706 57.7864 23.6785 57.3244 23.4916C56.8625 23.3047 56.4428 23.0269 56.0903 22.6746C55.7378 22.3224 55.4597 21.9029 55.2725 21.4411C55.0853 20.9793 54.9928 20.4845 55.0004 19.9863C55.0295 17.9017 56.7729 16.2814 58.7913 16.3184C60.7767 16.3515 62.4711 17.9983 62.4446 20.0392ZM58.7172 13.7775C57.741 13.7762 56.8044 13.3912 56.1096 12.7055C55.4147 12.0198 55.0173 11.0884 55.0031 10.1123C54.9936 9.61819 55.0829 9.12717 55.2657 8.66806C55.4486 8.20894 55.7213 7.79098 56.0679 7.43871C56.4145 7.08644 56.828 6.80697 57.2841 6.61669C57.7402 6.42642 58.2297 6.32918 58.7239 6.33068C59.223 6.32969 59.7173 6.42926 60.1772 6.62346C60.637 6.81765 61.0531 7.10249 61.4004 7.46098C61.7478 7.81947 62.0194 8.24426 62.1991 8.71001C62.3787 9.17575 62.4627 9.67291 62.446 10.1718C62.3864 12.103 60.7952 13.7854 58.7172 13.7775ZM80.0763 16.3237C80.5654 16.3212 81.0501 16.416 81.5022 16.6025C81.9544 16.789 82.3649 17.0635 82.71 17.4101C83.0551 17.7567 83.3279 18.1684 83.5124 18.6214C83.697 19.0743 83.7897 19.5594 83.7852 20.0485C83.7869 20.5381 83.6916 21.0232 83.5048 21.4757C83.318 21.9283 83.0434 22.3394 82.6969 22.6852C82.3503 23.0311 81.9386 23.3048 81.4856 23.4906C81.0327 23.6765 80.5474 23.7707 80.0578 23.7679C79.5686 23.7683 79.0842 23.672 78.6324 23.4847C78.1805 23.2974 77.7701 23.0227 77.4246 22.6764C77.0792 22.3301 76.8055 21.919 76.6193 21.4666C76.4331 21.0143 76.3381 20.5297 76.3396 20.0405C76.3396 17.9202 78.0856 16.2814 80.0763 16.3237ZM80.0684 13.7775C79.5794 13.7794 79.0948 13.6848 78.6425 13.499C78.1902 13.3132 77.7791 13.0399 77.4326 12.6948C77.0862 12.3497 76.8113 11.9396 76.6238 11.4881C76.4362 11.0365 76.3396 10.5523 76.3396 10.0634C76.3354 9.57271 76.4288 9.08613 76.6143 8.63189C76.7998 8.17765 77.0737 7.76481 77.4202 7.41737C77.7666 7.06994 78.1787 6.79483 78.6324 6.60805C79.0861 6.42126 79.5724 6.32653 80.0631 6.32935C80.5527 6.3253 81.0382 6.41873 81.4914 6.6042C81.9446 6.78967 82.3563 7.06347 82.7026 7.40964C83.0489 7.75582 83.3229 8.16745 83.5085 8.62055C83.6941 9.07365 83.7877 9.55916 83.7838 10.0488C83.7873 10.5383 83.6937 11.0237 83.5084 11.4768C83.3231 11.9299 83.0498 12.3417 82.7042 12.6885C82.3587 13.0353 81.9478 13.3101 81.4954 13.497C81.0429 13.6839 80.5579 13.7793 80.0684 13.7775ZM76.3396 30.0216C76.3385 29.5273 76.4361 29.0377 76.6268 28.5815C76.8174 28.1254 77.0973 27.712 77.4499 27.3655C77.8026 27.019 78.2209 26.7465 78.6803 26.5639C79.1397 26.3813 79.631 26.2923 80.1252 26.3022C81.1034 26.3127 82.0377 26.7102 82.7236 27.4077C83.4095 28.1052 83.7912 29.046 83.7852 30.0243C83.7877 30.5251 83.6887 31.0211 83.4941 31.4826C83.2995 31.944 83.0133 32.3611 82.6529 32.7088C82.2925 33.0565 81.8654 33.3274 81.3973 33.5053C80.9291 33.6832 80.4298 33.7643 79.9295 33.7437C78.9641 33.7134 78.0487 33.3074 77.3782 32.6122C76.7077 31.917 76.335 30.9875 76.3396 30.0216ZM94.72 6.23809H86.7083V22.6132H90.9026V10.4311H94.7147C95.7688 10.4467 96.7747 10.8755 97.5159 11.6253C98.257 12.3751 98.6741 13.3859 98.6775 14.4402V22.6145H102.872V14.4402C102.872 9.91785 99.2145 6.23809 94.72 6.23809ZM118.21 6.23809H110.198V22.6132H114.391V10.4311H118.199C120.387 10.4535 122.167 12.2538 122.167 14.4402V22.6145H126.36V14.4402C126.36 9.91785 122.707 6.23809 118.21 6.23809ZM104.386 6.291H108.582V22.6132H104.386V6.291ZM144 14.1479C144 9.62554 140.758 6 135.847 6C130.903 6 127.252 9.27899 127.252 14.4045V14.5314C127.252 19.563 130.778 22.8407 135.942 22.8407C138.365 22.8407 140.664 22.1039 142.77 19.9096L140.032 17.2681C138.931 18.3197 137.799 18.8302 136.159 18.8302C133.671 18.8302 132.036 17.5882 131.941 15.6769H143.935C144 14.9428 144 14.1479 144 14.1479ZM132.004 12.5871C132.131 11.0911 133.798 9.91521 135.844 9.91521C137.734 9.91521 139.279 11.1242 139.279 12.5871H132.004Z"/>
<path fill="#979797" d="M87.7867 30.7874C87.5047 30.7874 87.229 30.8711 86.9945 31.0277C86.7601 31.1844 86.5773 31.4071 86.4694 31.6676C86.3615 31.9282 86.3332 32.2149 86.3882 32.4915C86.4433 32.7681 86.5791 33.0221 86.7785 33.2215C86.9779 33.421 87.2319 33.5568 87.5085 33.6118C87.7851 33.6668 88.0718 33.6386 88.3324 33.5306C88.5929 33.4227 88.8156 33.24 88.9723 33.0055C89.129 32.771 89.2126 32.4953 89.2126 32.2133C89.2119 31.8354 89.0614 31.4731 88.7942 31.2058C88.5269 30.9386 88.1647 30.7881 87.7867 30.7874ZM94.0061 26.8603C94.7931 26.8603 95.3843 27.2069 95.8698 27.9502L96.0642 28.2505L98.2877 26.9304L98.0588 26.6037C97.047 25.1355 95.719 24.4212 94.0061 24.4212C92.1503 24.4212 90.9877 25.2321 90.3369 25.9106C89.4972 26.799 89.0276 27.9738 89.0234 29.1962C89.0234 30.4144 89.5036 31.6128 90.3369 32.4845C91.5154 33.7146 92.9823 33.9725 94.0061 33.9725C95.6555 33.9725 97.2136 33.1299 98.0681 31.7808L98.2744 31.4567L96.0602 30.1419L95.8671 30.4462C95.4081 31.1697 94.7812 31.5334 94.0061 31.5334C92.6741 31.5334 91.6702 30.5269 91.6702 29.1922C91.6715 27.8629 92.6741 26.8603 94.0061 26.8603ZM103.281 24.4199C101.424 24.4199 100.259 25.2294 99.6117 25.9093C98.7713 26.797 98.3019 27.9724 98.2996 29.1949C98.2996 30.4131 98.7757 31.6115 99.6117 32.4818C100.79 33.7133 102.257 33.9699 103.281 33.9699C105.135 33.9699 106.301 33.163 106.949 32.4818C107.791 31.5943 108.261 30.4182 108.264 29.1949C108.26 27.9722 107.789 26.7971 106.949 25.9093C105.77 24.6805 104.303 24.4199 103.281 24.4199ZM103.281 31.5374C101.948 31.5374 100.94 30.5295 100.94 29.1949C100.94 27.8629 101.948 26.8577 103.281 26.8577C104.612 26.8577 105.618 27.8629 105.618 29.1949C105.615 30.5295 104.61 31.5374 103.281 31.5374ZM123.78 31.1128C123.593 31.1126 123.408 31.1493 123.235 31.2207C123.062 31.2922 122.905 31.397 122.772 31.5291C122.64 31.6613 122.535 31.8182 122.463 31.991C122.391 32.1638 122.354 32.349 122.354 32.536C122.354 32.7231 122.391 32.9084 122.462 33.0813C122.534 33.2542 122.638 33.4113 122.771 33.5437C122.903 33.6761 123.06 33.7812 123.232 33.853C123.405 33.9247 123.59 33.9617 123.778 33.9619C124.155 33.9623 124.518 33.8125 124.785 33.5456C125.053 33.2787 125.203 32.9165 125.203 32.5387C125.204 32.1609 125.054 31.7984 124.787 31.531C124.52 31.2636 124.158 31.1132 123.78 31.1128ZM131.947 25.1434C131.339 24.6818 130.527 24.4199 129.627 24.4199C126.759 24.4199 124.834 26.8907 124.834 29.1949C124.834 30.3866 125.279 31.5758 126.068 32.4554C126.937 33.4315 128.174 33.9712 129.543 33.9712C130.405 33.9787 131.247 33.7118 131.947 33.2093V33.749H134.486V24.6448H131.947V25.1434ZM129.765 31.5374C128.502 31.5374 127.477 30.4885 127.477 29.1949C127.477 27.9039 128.502 26.8577 129.765 26.8577C130.982 26.8577 132.015 27.9291 132.015 29.1949C132.015 30.4634 130.982 31.5374 129.765 31.5374ZM141.166 24.6474V29.6975C141.166 30.6856 140.456 31.4329 139.518 31.4329C138.58 31.4329 137.87 30.6895 137.87 29.6975V24.6474H135.33V29.8549C135.33 31.0546 135.788 32.13 136.614 32.8879C137.414 33.5976 138.449 33.9846 139.518 33.9738C140.621 33.9738 141.651 33.5863 142.418 32.8879C143.25 32.13 143.708 31.0546 143.708 29.8549V24.6474H141.166ZM120.868 25.412C120.241 24.7744 119.282 24.4199 118.292 24.4199C117.378 24.4199 116.28 24.8855 115.839 25.5442C115.427 24.8062 114.421 24.4199 113.446 24.4199C112.668 24.4199 111.849 24.7969 111.397 25.1514V24.6474H108.852V33.7516H111.397V28.1552C111.4 27.4039 112.154 26.9648 112.755 26.9648C113.511 26.9648 114.113 27.433 114.113 28.4039V33.7516H116.655V28.4039C116.655 27.3656 117.234 26.9648 118 26.9648C118.602 26.9648 119.346 27.4449 119.346 28.1645V33.7516H121.889V28.1486C121.889 27.0362 121.534 26.0931 120.868 25.412Z"/>
</svg>