<?xml version="1.0" encoding="utf-8"?>
<svg xmlns="http://www.w3.org/2000/svg" fill="none" viewBox="0 0 150 46" height="46" width="150">
<mask height="38" width="28" y="6" x="40" maskUnits="userSpaceOnUse" style="mask-type:luminance" id="mask0_1072_16283">
<path fill="white" d="M40 6.88135H67.5958V43.9025H40V6.88135Z"/>
</mask>
<g mask="url(#mask0_1072_16283)">
<path fill="#234291" d="M53.0902 6.90735H54.2286C55.36 7.00164 56.4927 7.3169 57.4396 7.96187C58.5762 8.70924 59.3849 9.90779 59.7233 11.222C60.1462 12.8585 59.9686 14.6182 59.3716 16.1875C59.1773 16.7422 58.9754 17.2952 58.7781 17.8488C59.6967 17.6082 60.5951 17.1853 61.2499 16.4808C61.9585 15.7577 62.3189 14.7801 62.5502 13.8124C64.2191 13.8037 65.8873 13.8106 67.5556 13.8083C66.6931 16.1001 66.0574 18.521 66.1014 20.9875C66.117 23.8341 67.1553 26.5361 67.4382 29.3502C67.6476 31.2539 67.5874 33.212 67.0414 35.0584C66.541 36.784 65.627 38.3926 64.3776 39.6832C63.1252 40.9934 61.5605 41.9831 59.8772 42.6362C57.7184 43.4784 55.3814 43.7977 53.0746 43.7503C50.3234 43.693 47.5335 43.0672 45.17 41.6164C43.1286 40.3797 41.4441 38.4962 40.606 36.2431C39.762 34.0062 39.8204 31.4252 40.8368 29.2548C41.6246 27.557 43.0395 26.1844 44.7159 25.3739C46.7856 24.3755 49.1509 24.1239 51.4173 24.3576C51.7337 23.535 52.0443 22.7096 52.3671 21.8893C50.4594 21.0726 48.7234 19.719 47.725 17.8673C46.1967 15.0873 46.5426 11.3239 48.735 8.9921C49.8485 7.76462 51.4479 7.03056 53.0902 6.90735ZM51.839 12.7376C51.4595 13.5793 51.4173 14.5881 51.8274 15.4263C52.2717 16.3529 52.9762 17.2143 53.9295 17.6365C54.1233 17.194 54.2835 16.7365 54.4594 16.287C54.7272 15.5697 55.0546 14.8611 55.1443 14.0929C55.2368 13.4555 55.1391 12.7521 54.722 12.2407C54.2882 11.7236 53.5287 11.52 52.8924 11.7334C52.4105 11.8867 52.0449 12.2876 51.839 12.7376ZM57.0549 22.4898C56.6801 23.5269 56.2734 24.5531 55.9096 25.5955C57.0595 26.1364 58.25 26.6951 59.1535 27.6178C58.5861 29.0622 58.0198 30.5066 57.4303 31.9423C56.5384 31.0602 55.4989 30.3105 54.3258 29.8547C53.6895 31.542 53.0665 33.2328 52.4406 34.9242C50.8064 34.9283 49.1723 34.9265 47.5382 34.9254C48.2682 32.9714 48.9941 31.0151 49.7207 29.0587C48.116 29.0101 46.5051 29.824 45.6374 31.1863C45.2683 31.7555 45.0445 32.4433 45.1376 33.1264C45.2267 34.5703 45.9729 35.929 47.0852 36.839C48.6048 38.0971 50.5982 38.6108 52.5297 38.7554C54.1262 38.8647 55.7621 38.7698 57.2875 38.2539C58.6613 37.8096 59.9322 36.9905 60.8253 35.8434C61.9943 34.3655 62.4513 32.4115 62.3177 30.5523C62.1875 29.127 61.8445 27.7323 61.5854 26.3273C61.284 24.7452 61.0335 23.1417 61.0335 21.5261C59.7563 22.0201 58.4166 22.3457 57.0549 22.4898Z"/>
</g>
<path fill="#E32123" d="M65.0569 11.9919C67.5778 10.0761 68.8568 9.00707 69.6724 7.59043C70.82 5.59823 70.1247 3.90798 68.6705 3.24797C67.3071 2.62786 65.6886 3.20979 65.0569 4.5466C64.4246 3.20979 62.8061 2.62786 61.4427 3.24797C59.9885 3.90798 59.2932 5.59823 60.4414 7.59043C61.257 9.00707 62.5354 10.0761 65.0569 11.9919Z"/>
<path fill="#234291" d="M71.7603 17.4404V17.4202C71.7603 15.4135 73.3238 13.7695 75.4618 13.7695C76.7321 13.7695 77.4985 14.112 78.2343 14.7379L77.2567 15.9179C76.7118 15.4638 76.2282 15.2012 75.4115 15.2012C74.2817 15.2012 73.3846 16.2002 73.3846 17.3999V17.4201C73.3846 18.7113 74.2719 19.6588 75.5219 19.6588C76.0865 19.6588 76.5909 19.5176 76.9843 19.2359V18.2271H75.4213V16.8857H78.4865V19.9515C77.7611 20.5664 76.7622 21.0708 75.4716 21.0708C73.2735 21.0708 71.7603 19.528 71.7603 17.4404Z"/>
<path fill="#234291" d="M79.5552 18.2774V18.2572C79.5552 16.7139 80.6548 15.4436 82.2276 15.4436C84.033 15.4436 84.8602 16.8452 84.8602 18.3781C84.8602 18.499 84.8498 18.6407 84.8399 18.7819H81.0777C81.2292 19.4778 81.7134 19.8404 82.3989 19.8404C82.9137 19.8404 83.2868 19.6796 83.7102 19.2857L84.5877 20.0626C84.0833 20.6879 83.3568 21.0708 82.3792 21.0708C80.7555 21.0708 79.5552 19.9312 79.5552 18.2774ZM83.3672 17.8234C83.2764 17.1379 82.8732 16.674 82.2276 16.674C81.5925 16.674 81.1789 17.1281 81.0574 17.8234H83.3672Z"/>
<path fill="#234291" d="M85.999 15.5443H87.5319V16.3107C87.8848 15.8566 88.3389 15.4436 89.1152 15.4436C90.275 15.4436 90.9506 16.2101 90.9506 17.4503V20.9499H89.4177V17.9344C89.4177 17.2085 89.0753 16.8354 88.4899 16.8354C87.905 16.8354 87.5319 17.2085 87.5319 17.9344V20.9499H85.999V15.5443Z"/>
<path fill="#234291" d="M92.019 18.2774V18.2572C92.019 16.7139 93.1187 15.4436 94.6915 15.4436C96.4969 15.4436 97.3241 16.8452 97.3241 18.3781C97.3241 18.499 97.3136 18.6407 97.3032 18.7819H93.5415C93.6931 19.4778 94.1773 19.8404 94.8633 19.8404C95.3776 19.8404 95.7507 19.6796 96.1741 19.2857L97.0516 20.0626C96.5472 20.6879 95.8212 21.0708 94.8431 21.0708C93.2193 21.0708 92.019 19.9312 92.019 18.2774ZM95.8311 17.8234C95.7408 17.1379 95.3371 16.674 94.6915 16.674C94.0564 16.674 93.6428 17.1281 93.5219 17.8234H95.8311Z"/>
<path fill="#234291" d="M98.4629 15.5443H99.9958V16.6335C100.309 15.8873 100.813 15.4031 101.72 15.4436V17.0471H101.64C100.621 17.0471 99.9958 17.6626 99.9958 18.9531V20.95H98.4629V15.5443Z"/>
<path fill="#234291" d="M102.104 19.3967V19.3764C102.104 18.1964 103.002 17.6515 104.282 17.6515C104.827 17.6515 105.221 17.7429 105.604 17.8742V17.7828C105.604 17.1476 105.21 16.7948 104.444 16.7948C103.859 16.7948 103.445 16.9059 102.951 17.0875L102.568 15.9178C103.163 15.6552 103.748 15.484 104.665 15.484C105.503 15.484 106.108 15.7056 106.491 16.0891C106.895 16.4923 107.076 17.0875 107.076 17.8134V20.9498H105.594V20.365C105.221 20.778 104.706 21.0505 103.96 21.0505C102.941 21.0505 102.104 20.4656 102.104 19.3967ZM105.624 19.0438V18.7714C105.361 18.6505 105.019 18.5701 104.646 18.5701C103.99 18.5701 103.586 18.8321 103.586 19.3157V19.3365C103.586 19.7495 103.93 19.9913 104.424 19.9913C105.14 19.9913 105.624 19.5986 105.624 19.0438Z"/>
<path fill="#234291" d="M108.467 20.9499H110V13.5879H108.467V20.9499Z"/>
<path fill="#234291" d="M72.0728 23.6217H73.7462L75.6025 26.6065L77.4576 23.6217H79.1317V30.6812H77.5889V26.0726L75.6025 29.0875H75.562L73.5952 26.1027V30.6812H72.0728L72.0728 23.6217Z"/>
<path fill="#234291" d="M80.6948 23.3198H82.3087V24.6809H80.6948V23.3198ZM80.7353 25.2756H82.2677V30.6812H80.7353V25.2756Z"/>
<path fill="#234291" d="M83.7808 30.6818H85.3137V23.3198H83.7808V30.6818Z"/>
<path fill="#234291" d="M86.8262 30.6818H88.3591V23.3198H86.8262V30.6818Z"/>
<path fill="#234291" d="M89.3774 29.9651L90.0323 28.9569C90.6177 29.3803 91.2325 29.6024 91.737 29.6024C92.1806 29.6024 92.3825 29.4405 92.3825 29.1987V29.1784C92.3825 28.8458 91.8584 28.7348 91.2632 28.5531C90.5066 28.3316 89.6493 27.9787 89.6493 26.93V26.9092C89.6493 25.8101 90.5367 25.1952 91.6259 25.1952C92.3114 25.1952 93.0581 25.4272 93.643 25.8205L93.0582 26.8797C92.5237 26.5667 91.9892 26.3752 91.5958 26.3752C91.2227 26.3752 91.0312 26.5366 91.0312 26.7483V26.768C91.0312 27.0711 91.5449 27.2117 92.1303 27.4136C92.8864 27.6658 93.7644 28.0291 93.7644 29.0171V29.0373C93.7644 30.2376 92.8667 30.7819 91.6965 30.7819C90.9404 30.7819 90.093 30.5297 89.3774 29.9651Z"/>
</svg>