<?xml version="1.0" encoding="utf-8"?>
<svg xmlns="http://www.w3.org/2000/svg" fill="none" viewBox="0 0 200 40" height="40" width="200">
<g clip-path="url(#clip0_985_13391)">
<path fill="#002294" d="M88.3521 28.1663H90.6308V15.2832H88.3521V28.1663Z"/>
<path fill="#002294" d="M116.913 28.6199C112.081 28.6199 109.958 26.6742 108.689 25.5115L108.192 25.0609L109.715 23.5465L109.978 23.7411C110.148 23.8689 110.324 24.0194 110.511 24.177L110.531 24.1947C111.607 25.1096 113.231 26.4887 116.913 26.4887C119.813 26.4887 122.912 25.6899 122.912 23.4492C122.912 22.2095 121.682 20.8476 118.981 20.7868L115.182 20.725C114.268 20.7179 112.931 20.5912 111.772 20.0301C110.31 19.3221 109.537 18.0875 109.537 16.459C109.537 15.2107 110.178 13.9831 111.294 13.0916C112.633 12.0217 114.604 11.4576 117.001 11.4576C120.653 11.4576 122.719 12.8717 123.714 13.5518C123.835 13.637 123.942 13.709 124.035 13.7677L124.374 13.9826L122.982 15.5918L122.408 15.2517C121.031 14.4337 119.607 13.5883 117.111 13.5883C115.894 13.5883 114.583 13.8463 113.606 14.2807C112.77 14.6517 111.774 15.3344 111.774 16.4808C111.774 17.8781 112.893 18.5679 115.193 18.5928L119.086 18.6566C122.006 18.7068 125.15 20.2283 125.15 23.4492C125.15 25.9484 122.985 28.6199 116.913 28.6199Z"/>
<path fill="#002294" d="M138.923 15.2822V17.4519H144.122V28.1658H146.4V17.4519H151.601V15.2822H138.923Z"/>
<path fill="#002294" d="M79.8869 28.6077C75.5892 28.6077 73.1386 27.0699 72.0929 26.4136L71.8071 26.2342L72.9135 24.2575L73.1822 24.4436C74.1194 25.0908 76.0703 26.4374 79.7619 26.4374C82.6223 26.4374 84.198 25.7314 84.198 24.4522C84.198 23.9458 83.9319 22.7604 81.4765 22.6788L77.6045 22.5845C75.9692 22.5587 72.8736 21.7523 72.8736 18.8806C72.8736 16.5365 75.239 14.9623 78.7614 14.9623C81.3823 14.9623 83.8063 15.5852 85.5885 16.7164L85.803 16.8528L85.6955 17.0763L84.7802 18.7889L84.5173 18.6419C83.2742 17.9526 81.3275 17.131 79.1121 17.131C76.5577 17.131 75.1507 17.7443 75.1507 18.8563C75.1507 19.8628 75.9484 20.3869 77.5183 20.4148L81.1194 20.5095C83.5908 20.581 86.4746 21.6433 86.4746 24.4035C86.4746 25.9737 85.6199 28.6077 79.8869 28.6077Z"/>
<path fill="#002294" d="M71.9818 28.1653L61.7733 11.3801H59.6053L49.3989 28.1653H52.1188L55.1181 23.1563C62.6556 21.9804 69.2465 28.1653 69.2465 28.1653H71.9818ZM57.0865 19.872L60.6898 13.857L67.7841 25.6991C66.0407 23.4741 62.5343 20.1275 57.0865 19.872Z"/>
<path fill="#002294" d="M108.617 28.1658L100.991 15.2832H99.2037L91.5522 28.1658H93.914L95.9979 24.6631C101.449 23.6367 106.276 28.1658 106.276 28.1658H108.617ZM97.4294 22.2566L100.108 17.756L105.002 26.1187C103.672 24.5161 101.186 22.3474 97.4294 22.2566Z"/>
<path fill="#002294" d="M142.355 28.1658L134.73 15.2832H132.943L125.292 28.1658H127.654L129.738 24.6631C135.189 23.6367 140.014 28.1658 140.014 28.1658H142.355ZM131.169 22.2566L133.848 17.756L138.743 26.1187C137.413 24.5161 134.924 22.3474 131.169 22.2566Z"/>
</g>
<defs>
<clipPath id="clip0_985_13391">
<rect transform="translate(49 11)" fill="white" height="18" width="103"/>
</clipPath>
</defs>
</svg>